<?xml version="1.0" encoding="UTF-8" standalone="no"?><svg xmlns="http://www.w3.org/2000/svg" xmlns:xlink="http://www.w3.org/1999/xlink" clip-rule="evenodd" stroke-miterlimit="10" viewBox="0 0 1280 800"><desc>SVG generated by Keynote</desc><defs></defs><g transform="matrix(1.00, 0.00, -0.00, -1.00, 0.0, 800.0)"><path d="M 0.0 800.0 L 1280.0 800.0 L 1280.0 0.0 L 0.0 0.0 Z M 0.0 800.0 " fill="#FCFCFC"></path><path d="M 0.0 800.0 L 1280.0 800.0 L 1280.0 764.0 L 0.0 764.0 Z M 0.0 800.0 " fill="#2D2D2D"></path><path d="M 0.0 56.0 L 1280.0 56.0 L 1280.0 0.0 L 0.0 0.0 Z M 0.0 56.0 " fill="#2D2D2D"></path><text xml:space="preserve" font-family="FuturaLT-Book,Futura LT" font-size="24.0" fill="#B5B5B5" transform="matrix(1.00, 0.00, -0.00, -1.00, 927.2, 20.4)">K</text><text xml:space="preserve" font-family="FuturaLT-Book,Futura LT" font-size="24.0" fill="#B5B5B5" transform="matrix(1.00, 0.00, -0.00, -1.00, 941.6, 20.4)">e</text><text xml:space="preserve" font-family="FuturaLT-Book,Futura LT" font-size="24.0" fill="#B5B5B5" transform="matrix(1.00, 0.00, -0.00, -1.00, 953.8, 20.4)">v</text><text xml:space="preserve" font-family="FuturaLT-Book,Futura LT" font-size="24.0" fill="#B5B5B5" transform="matrix(1.00, 0.00, -0.00, -1.00, 964.7, 20.4)">i</text><text xml:space="preserve" font-family="FuturaLT-Book,Futura LT" font-size="24.0" fill="#B5B5B5" transform="matrix(1.00, 0.00, -0.00, -1.00, 970.7, 20.4)">n</text><text xml:space="preserve" font-family="FuturaLT-Book,Futura LT" font-size="24.0" fill="#B5B5B5" transform="matrix(1.00, 0.00, -0.00, -1.00, 983.2, 20.4)"> </text><text xml:space="preserve" font-family="FuturaLT-Book,Futura LT" font-size="24.0" fill="#B5B5B5" transform="matrix(1.00, 0.00, -0.00, -1.00, 990.3, 20.4)">Y</text><text xml:space="preserve" font-family="FuturaLT-Book,Futura LT" font-size="24.0" fill="#B5B5B5" transform="matrix(1.00, 0.00, -0.00, -1.00, 1002.4, 20.4)">u</text><text xml:space="preserve" font-family="FuturaLT-Book,Futura LT" font-size="24.0" fill="#B5B5B5" transform="matrix(1.00, 0.00, -0.00, -1.00, 1014.4, 20.4)">n</text><text xml:space="preserve" font-family="FuturaLT-Book,Futura LT" font-size="24.0" fill="#B5B5B5" transform="matrix(1.00, 0.00, -0.00, -1.00, 1026.9, 20.4)">,</text><text xml:space="preserve" font-family="FuturaLT-Book,Futura LT" font-size="24.0" fill="#B5B5B5" transform="matrix(1.00, 0.00, -0.00, -1.00, 1034.0, 20.4)"> </text><text xml:space="preserve" font-family="FuturaLT-Book,Futura LT" font-size="24.0" fill="#B5B5B5" transform="matrix(1.00, 0.00, -0.00, -1.00, 1041.2, 20.4)">@</text><text xml:space="preserve" font-family="FuturaLT-Book,Futura LT" font-size="24.0" fill="#B5B5B5" transform="matrix(1.00, 0.00, -0.00, -1.00, 1060.1, 20.4)">k</text><text xml:space="preserve" font-family="FuturaLT-Book,Futura LT" font-size="24.0" fill="#B5B5B5" transform="matrix(1.00, 0.00, -0.00, -1.00, 1071.2, 20.4)">e</text><text xml:space="preserve" font-family="FuturaLT-Book,Futura LT" font-size="24.0" fill="#B5B5B5" transform="matrix(1.00, 0.00, -0.00, -1.00, 1083.4, 20.4)">v</text><text xml:space="preserve" font-family="FuturaLT-Book,Futura LT" font-size="24.0" fill="#B5B5B5" transform="matrix(1.00, 0.00, -0.00, -1.00, 1094.3, 20.4)">i</text><text xml:space="preserve" font-family="FuturaLT-Book,Futura LT" font-size="24.0" fill="#B5B5B5" transform="matrix(1.00, 0.00, -0.00, -1.00, 1100.3, 20.4)">n</text><text xml:space="preserve" font-family="FuturaLT-Book,Futura LT" font-size="24.0" fill="#B5B5B5" transform="matrix(1.00, 0.00, -0.00, -1.00, 1112.7, 20.4)">s</text><text xml:space="preserve" font-family="FuturaLT-Book,Futura LT" font-size="24.0" fill="#B5B5B5" transform="matrix(1.00, 0.00, -0.00, -1.00, 1122.1, 20.4)">y</text><text xml:space="preserve" font-family="FuturaLT-Book,Futura LT" font-size="24.0" fill="#B5B5B5" transform="matrix(1.00, 0.00, -0.00, -1.00, 1133.8, 20.4)">u</text><text xml:space="preserve" font-family="FuturaLT-Book,Futura LT" font-size="24.0" fill="#B5B5B5" transform="matrix(1.00, 0.00, -0.00, -1.00, 1145.8, 20.4)">n</text><g><clipPath id="clip0x7fe148dd2f50"><path d="M 1167.0 45.0 L 1209.0 45.0 L 1209.0 11.0 L 1167.0 11.0 Z M 1166.9 45.2 "></path></clipPath><g clip-path="url(#clip0x7fe148dd2f50)"><image xlink:href="../../A9B4A605-238E-4E05-8F10-8BFA5952B821/assets/C77DCD3790C3F0B3E066644871480D19.png" width="400.00" height="328.00" transform="matrix(0.10, 0.00, -0.00, -0.10, 1166.9, 45.2)"></image></g></g><image xlink:href="../../A9B4A605-238E-4E05-8F10-8BFA5952B821/assets/FAD6F78933DA75A50BC84521C83A2ED1.png" width="768.00" height="109.00" transform="matrix(0.26, 0.00, -0.00, -0.26, 133.6, 45.4)"></image><image xlink:href="../../A9B4A605-238E-4E05-8F10-8BFA5952B821/assets/1BB4E873FACCA81805DB57C2B755465B.png" width="436.00" height="244.00" transform="matrix(0.11, 0.00, -0.00, -0.11, 75.3, 43.1)"></image><g><clipPath id="clip0x7fe14b3c2430"><path d="M 117.0 467.0 L 383.0 467.0 L 383.0 356.0 L 117.0 356.0 Z M 117.2 467.1 "></path></clipPath><g clip-path="url(#clip0x7fe14b3c2430)"><image xlink:href="../../4ACEC558-9869-4737-87C4-C3C93EA80CC8/assets/C06C3292D4C4F65D281E033813769F45.png" width="910.00" height="380.00" transform="matrix(0.29, 0.00, -0.00, -0.29, 117.2, 467.1)"></image></g></g><image xlink:href="../../4ACEC558-9869-4737-87C4-C3C93EA80CC8/assets/5E361505DAE0297F064D9635D03B8EA4.png" width="580.00" height="230.00" transform="matrix(0.55, 0.00, -0.00, -0.55, 102.0, 270.7)"></image><text xml:space="preserve" font-family="FuturaPT-Heavy,Futura PT" font-weight="bold" font-size="40.0" fill="#164E86" transform="matrix(1.00, 0.00, -0.00, -1.00, 498.1, 427.5)">t</text><text xml:space="preserve" font-family="FuturaPT-Heavy,Futura PT" font-weight="bold" font-size="40.0" fill="#164E86" transform="matrix(1.00, 0.00, -0.00, -1.00, 509.6, 427.5)">e</text><text xml:space="preserve" font-family="FuturaPT-Heavy,Futura PT" font-weight="bold" font-size="40.0" fill="#164E86" transform="matrix(1.00, 0.00, -0.00, -1.00, 531.1, 427.5)">c</text><text xml:space="preserve" font-family="FuturaPT-Heavy,Futura PT" font-weight="bold" font-size="40.0" fill="#164E86" transform="matrix(1.00, 0.00, -0.00, -1.00, 548.0, 427.5)">h</text><text xml:space="preserve" font-family="FuturaPT-Heavy,Futura PT" font-weight="bold" font-size="40.0" fill="#164E86" transform="matrix(1.00, 0.00, -0.00, -1.00, 570.4, 427.5)">n</text><text xml:space="preserve" font-family="FuturaPT-Heavy,Futura PT" font-weight="bold" font-size="40.0" fill="#164E86" transform="matrix(1.00, 0.00, -0.00, -1.00, 592.7, 427.5)">o</text><text xml:space="preserve" font-family="FuturaPT-Heavy,Futura PT" font-weight="bold" font-size="40.0" fill="#164E86" transform="matrix(1.00, 0.00, -0.00, -1.00, 616.0, 427.5)">l</text><text xml:space="preserve" font-family="FuturaPT-Heavy,Futura PT" font-weight="bold" font-size="40.0" fill="#164E86" transform="matrix(1.00, 0.00, -0.00, -1.00, 626.1, 427.5)">o</text><text xml:space="preserve" font-family="FuturaPT-Heavy,Futura PT" font-weight="bold" font-size="40.0" fill="#164E86" transform="matrix(1.00, 0.00, -0.00, -1.00, 649.4, 427.5)">g</text><text xml:space="preserve" font-family="FuturaPT-Heavy,Futura PT" font-weight="bold" font-size="40.0" fill="#164E86" transform="matrix(1.00, 0.00, -0.00, -1.00, 672.8, 427.5)">y</text><text xml:space="preserve" font-family="FuturaPT-Heavy,Futura PT" font-weight="bold" font-size="40.0" fill="#164E86" transform="matrix(1.00, 0.00, -0.00, -1.00, 695.8, 427.5)"> </text><text xml:space="preserve" font-family="FuturaPT-Heavy,Futura PT" font-weight="bold" font-size="40.0" fill="#164E86" transform="matrix(1.00, 0.00, -0.00, -1.00, 704.7, 427.5)">t</text><text xml:space="preserve" font-family="FuturaPT-Heavy,Futura PT" font-weight="bold" font-size="40.0" fill="#164E86" transform="matrix(1.00, 0.00, -0.00, -1.00, 716.3, 427.5)">h</text><text xml:space="preserve" font-family="FuturaPT-Heavy,Futura PT" font-weight="bold" font-size="40.0" fill="#164E86" transform="matrix(1.00, 0.00, -0.00, -1.00, 737.9, 427.5)">a</text><text xml:space="preserve" font-family="FuturaPT-Heavy,Futura PT" font-weight="bold" font-size="40.0" fill="#164E86" transform="matrix(1.00, 0.00, -0.00, -1.00, 761.4, 427.5)">t</text><text xml:space="preserve" font-family="FuturaPT-Heavy,Futura PT" font-weight="bold" font-size="40.0" fill="#164E86" transform="matrix(1.00, 0.00, -0.00, -1.00, 773.0, 427.5)"> </text><text xml:space="preserve" font-family="FuturaPT-Heavy,Futura PT" font-weight="bold" font-size="40.0" fill="#164E86" transform="matrix(1.00, 0.00, -0.00, -1.00, 781.9, 427.5)">a</text><text xml:space="preserve" font-family="FuturaPT-Heavy,Futura PT" font-weight="bold" font-size="40.0" fill="#164E86" transform="matrix(1.00, 0.00, -0.00, -1.00, 805.4, 427.5)"> </text><text xml:space="preserve" font-family="FuturaPT-Heavy,Futura PT" font-weight="bold" font-size="40.0" fill="#164E86" transform="matrix(1.00, 0.00, -0.00, -1.00, 814.4, 427.5)">s</text><text xml:space="preserve" font-family="FuturaPT-Heavy,Futura PT" font-weight="bold" font-size="40.0" fill="#164E86" transform="matrix(1.00, 0.00, -0.00, -1.00, 831.3, 427.5)">m</text><text xml:space="preserve" font-family="FuturaPT-Heavy,Futura PT" font-weight="bold" font-size="40.0" fill="#164E86" transform="matrix(1.00, 0.00, -0.00, -1.00, 864.6, 427.5)">a</text><text xml:space="preserve" font-family="FuturaPT-Heavy,Futura PT" font-weight="bold" font-size="40.0" fill="#164E86" transform="matrix(1.00, 0.00, -0.00, -1.00, 888.2, 427.5)">r</text><text xml:space="preserve" font-family="FuturaPT-Heavy,Futura PT" font-weight="bold" font-size="40.0" fill="#164E86" transform="matrix(1.00, 0.00, -0.00, -1.00, 904.4, 427.5)">t</text><text xml:space="preserve" font-family="FuturaPT-Heavy,Futura PT" font-weight="bold" font-size="40.0" fill="#164E86" transform="matrix(1.00, 0.00, -0.00, -1.00, 916.0, 427.5)"> </text><text xml:space="preserve" font-family="FuturaPT-Heavy,Futura PT" font-weight="bold" font-size="40.0" fill="#164E86" transform="matrix(1.00, 0.00, -0.00, -1.00, 924.9, 427.5)">m</text><text xml:space="preserve" font-family="FuturaPT-Heavy,Futura PT" font-weight="bold" font-size="40.0" fill="#164E86" transform="matrix(1.00, 0.00, -0.00, -1.00, 958.2, 427.5)">a</text><text xml:space="preserve" font-family="FuturaPT-Heavy,Futura PT" font-weight="bold" font-size="40.0" fill="#164E86" transform="matrix(1.00, 0.00, -0.00, -1.00, 981.7, 427.5)">n</text><text xml:space="preserve" font-family="FuturaPT-Heavy,Futura PT" font-weight="bold" font-size="40.0" fill="#164E86" transform="matrix(1.00, 0.00, -0.00, -1.00, 1004.0, 427.5)"> </text><text xml:space="preserve" font-family="FuturaPT-Heavy,Futura PT" font-weight="bold" font-size="40.0" fill="#164E86" transform="matrix(1.00, 0.00, -0.00, -1.00, 1012.9, 427.5)">m</text><text xml:space="preserve" font-family="FuturaPT-Heavy,Futura PT" font-weight="bold" font-size="40.0" fill="#164E86" transform="matrix(1.00, 0.00, -0.00, -1.00, 1046.2, 427.5)">a</text><text xml:space="preserve" font-family="FuturaPT-Heavy,Futura PT" font-weight="bold" font-size="40.0" fill="#164E86" transform="matrix(1.00, 0.00, -0.00, -1.00, 1069.8, 427.5)">d</text><text xml:space="preserve" font-family="FuturaPT-Heavy,Futura PT" font-weight="bold" font-size="40.0" fill="#164E86" transform="matrix(1.00, 0.00, -0.00, -1.00, 1093.4, 427.5)">e</text><text xml:space="preserve" font-family="FuturaPT-Heavy,Futura PT" font-weight="bold" font-size="40.0" fill="#164E86" transform="matrix(1.00, 0.00, -0.00, -1.00, 498.1, 240.0)">c</text><text xml:space="preserve" font-family="FuturaPT-Heavy,Futura PT" font-weight="bold" font-size="40.0" fill="#164E86" transform="matrix(1.00, 0.00, -0.00, -1.00, 514.9, 240.0)">o</text><text xml:space="preserve" font-family="FuturaPT-Heavy,Futura PT" font-weight="bold" font-size="40.0" fill="#164E86" transform="matrix(1.00, 0.00, -0.00, -1.00, 538.2, 240.0)">m</text><text xml:space="preserve" font-family="FuturaPT-Heavy,Futura PT" font-weight="bold" font-size="40.0" fill="#164E86" transform="matrix(1.00, 0.00, -0.00, -1.00, 571.5, 240.0)">p</text><text xml:space="preserve" font-family="FuturaPT-Heavy,Futura PT" font-weight="bold" font-size="40.0" fill="#164E86" transform="matrix(1.00, 0.00, -0.00, -1.00, 595.0, 240.0)">a</text><text xml:space="preserve" font-family="FuturaPT-Heavy,Futura PT" font-weight="bold" font-size="40.0" fill="#164E86" transform="matrix(1.00, 0.00, -0.00, -1.00, 618.6, 240.0)">n</text><text xml:space="preserve" font-family="FuturaPT-Heavy,Futura PT" font-weight="bold" font-size="40.0" fill="#164E86" transform="matrix(1.00, 0.00, -0.00, -1.00, 640.8, 240.0)">y</text><image xlink:href="../../4ACEC558-9869-4737-87C4-C3C93EA80CC8/assets/0795055665111638DBD0E50C1C728F51.png" width="512.00" height="512.00" transform="matrix(0.39, 0.00, -0.00, -0.39, 149.6, 749.2)"></image><text xml:space="preserve" font-family="FuturaPT-Heavy,Futura PT" font-weight="bold" font-size="40.0" fill="#164E86" transform="matrix(1.00, 0.00, -0.00, -1.00, 497.3, 674.4)">a</text><text xml:space="preserve" font-family="FuturaPT-Heavy,Futura PT" font-weight="bold" font-size="40.0" fill="#164E86" transform="matrix(1.00, 0.00, -0.00, -1.00, 520.8, 674.4)">k</text><text xml:space="preserve" font-family="FuturaPT-Heavy,Futura PT" font-weight="bold" font-size="40.0" fill="#164E86" transform="matrix(1.00, 0.00, -0.00, -1.00, 542.2, 674.4)">a</text><text xml:space="preserve" font-family="FuturaPT-Heavy,Futura PT" font-weight="bold" font-size="40.0" fill="#164E86" transform="matrix(1.00, 0.00, -0.00, -1.00, 565.8, 674.4)"> </text><text xml:space="preserve" font-family="FuturaPT-Heavy,Futura PT" font-weight="bold" font-size="40.0" fill="#164E86" transform="matrix(1.00, 0.00, -0.00, -1.00, 574.7, 674.4)">y</text><text xml:space="preserve" font-family="FuturaPT-Heavy,Futura PT" font-weight="bold" font-size="40.0" fill="#164E86" transform="matrix(1.00, 0.00, -0.00, -1.00, 596.9, 674.4)">o</text><text xml:space="preserve" font-family="FuturaPT-Heavy,Futura PT" font-weight="bold" font-size="40.0" fill="#164E86" transform="matrix(1.00, 0.00, -0.00, -1.00, 620.2, 674.4)">u</text><text xml:space="preserve" font-family="FuturaPT-Heavy,Futura PT" font-weight="bold" font-size="40.0" fill="#164E86" transform="matrix(1.00, 0.00, -0.00, -1.00, 642.6, 674.4)">r</text><text xml:space="preserve" font-family="FuturaPT-Heavy,Futura PT" font-weight="bold" font-size="40.0" fill="#164E86" transform="matrix(1.00, 0.00, -0.00, -1.00, 657.5, 674.4)"> </text><text xml:space="preserve" font-family="FuturaPT-Heavy,Futura PT" font-weight="bold" font-size="40.0" fill="#164E86" transform="matrix(1.00, 0.00, -0.00, -1.00, 666.4, 674.4)">c</text><text xml:space="preserve" font-family="FuturaPT-Heavy,Futura PT" font-weight="bold" font-size="40.0" fill="#164E86" transform="matrix(1.00, 0.00, -0.00, -1.00, 683.3, 674.4)">o</text><text xml:space="preserve" font-family="FuturaPT-Heavy,Futura PT" font-weight="bold" font-size="40.0" fill="#164E86" transform="matrix(1.00, 0.00, -0.00, -1.00, 706.6, 674.4)">m</text><text xml:space="preserve" font-family="FuturaPT-Heavy,Futura PT" font-weight="bold" font-size="40.0" fill="#164E86" transform="matrix(1.00, 0.00, -0.00, -1.00, 739.9, 674.4)">p</text><text xml:space="preserve" font-family="FuturaPT-Heavy,Futura PT" font-weight="bold" font-size="40.0" fill="#164E86" transform="matrix(1.00, 0.00, -0.00, -1.00, 763.4, 674.4)">u</text><text xml:space="preserve" font-family="FuturaPT-Heavy,Futura PT" font-weight="bold" font-size="40.0" fill="#164E86" transform="matrix(1.00, 0.00, -0.00, -1.00, 785.8, 674.4)">t</text><text xml:space="preserve" font-family="FuturaPT-Heavy,Futura PT" font-weight="bold" font-size="40.0" fill="#164E86" transform="matrix(1.00, 0.00, -0.00, -1.00, 797.4, 674.4)">e</text><text xml:space="preserve" font-family="FuturaPT-Heavy,Futura PT" font-weight="bold" font-size="40.0" fill="#164E86" transform="matrix(1.00, 0.00, -0.00, -1.00, 818.8, 674.4)">r</text><text xml:space="preserve" font-family="FuturaPT-Heavy,Futura PT" font-weight="bold" font-size="40.0" fill="#164E86" transform="matrix(1.00, 0.00, -0.00, -1.00, 835.5, 674.4)">-</text><text xml:space="preserve" font-family="FuturaPT-Heavy,Futura PT" font-weight="bold" font-size="40.0" fill="#164E86" transform="matrix(1.00, 0.00, -0.00, -1.00, 849.3, 674.4)">i</text><text xml:space="preserve" font-family="FuturaPT-Heavy,Futura PT" font-weight="bold" font-size="40.0" fill="#164E86" transform="matrix(1.00, 0.00, -0.00, -1.00, 860.0, 674.4)">s</text><text xml:space="preserve" font-family="FuturaPT-Heavy,Futura PT" font-weight="bold" font-size="40.0" fill="#164E86" transform="matrix(1.00, 0.00, -0.00, -1.00, 876.9, 674.4)">h</text><text xml:space="preserve" font-family="FuturaPT-BookObl,Futura PT" font-style="italic" font-size="30.0" fill="#A6AAA8" transform="matrix(1.00, 0.00, -0.00, -1.00, 501.4, 627.8)">M</text><text xml:space="preserve" font-family="FuturaPT-BookObl,Futura PT" font-style="italic" font-size="30.0" fill="#A6AAA8" transform="matrix(1.00, 0.00, -0.00, -1.00, 527.0, 627.8)">a</text><text xml:space="preserve" font-family="FuturaPT-BookObl,Futura PT" font-style="italic" font-size="30.0" fill="#A6AAA8" transform="matrix(1.00, 0.00, -0.00, -1.00, 542.5, 627.8)">c</text><text xml:space="preserve" font-family="FuturaPT-BookObl,Futura PT" font-style="italic" font-size="30.0" fill="#A6AAA8" transform="matrix(1.00, 0.00, -0.00, -1.00, 555.4, 627.8)"> </text><text xml:space="preserve" font-family="FuturaPT-BookObl,Futura PT" font-style="italic" font-size="30.0" fill="#A6AAA8" transform="matrix(1.00, 0.00, -0.00, -1.00, 562.1, 627.8)">A</text><text xml:space="preserve" font-family="FuturaPT-BookObl,Futura PT" font-style="italic" font-size="30.0" fill="#A6AAA8" transform="matrix(1.00, 0.00, -0.00, -1.00, 580.5, 627.8)">p</text><text xml:space="preserve" font-family="FuturaPT-BookObl,Futura PT" font-style="italic" font-size="30.0" fill="#A6AAA8" transform="matrix(1.00, 0.00, -0.00, -1.00, 596.0, 627.8)">p</text><text xml:space="preserve" font-family="FuturaPT-BookObl,Futura PT" font-style="italic" font-size="30.0" fill="#A6AAA8" transform="matrix(1.00, 0.00, -0.00, -1.00, 611.5, 627.8)">:</text><text xml:space="preserve" font-family="FuturaPT-BookObl,Futura PT" font-style="italic" font-size="30.0" fill="#A6AAA8" transform="matrix(1.00, 0.00, -0.00, -1.00, 501.4, 377.5)">A</text><text xml:space="preserve" font-family="FuturaPT-BookObl,Futura PT" font-style="italic" font-size="30.0" fill="#A6AAA8" transform="matrix(1.00, 0.00, -0.00, -1.00, 519.7, 377.5)">l</text><text xml:space="preserve" font-family="FuturaPT-BookObl,Futura PT" font-style="italic" font-size="30.0" fill="#A6AAA8" transform="matrix(1.00, 0.00, -0.00, -1.00, 525.7, 377.5)">t</text><text xml:space="preserve" font-family="FuturaPT-BookObl,Futura PT" font-style="italic" font-size="30.0" fill="#A6AAA8" transform="matrix(1.00, 0.00, -0.00, -1.00, 531.8, 377.5)">e</text><text xml:space="preserve" font-family="FuturaPT-BookObl,Futura PT" font-style="italic" font-size="30.0" fill="#A6AAA8" transform="matrix(1.00, 0.00, -0.00, -1.00, 546.0, 377.5)">r</text><text xml:space="preserve" font-family="FuturaPT-BookObl,Futura PT" font-style="italic" font-size="30.0" fill="#A6AAA8" transform="matrix(1.00, 0.00, -0.00, -1.00, 554.6, 377.5)">n</text><text xml:space="preserve" font-family="FuturaPT-BookObl,Futura PT" font-style="italic" font-size="30.0" fill="#A6AAA8" transform="matrix(1.00, 0.00, -0.00, -1.00, 568.3, 377.5)">a</text><text xml:space="preserve" font-family="FuturaPT-BookObl,Futura PT" font-style="italic" font-size="30.0" fill="#A6AAA8" transform="matrix(1.00, 0.00, -0.00, -1.00, 583.9, 377.5)">t</text><text xml:space="preserve" font-family="FuturaPT-BookObl,Futura PT" font-style="italic" font-size="30.0" fill="#A6AAA8" transform="matrix(1.00, 0.00, -0.00, -1.00, 590.0, 377.5)">i</text><text xml:space="preserve" font-family="FuturaPT-BookObl,Futura PT" font-style="italic" font-size="30.0" fill="#A6AAA8" transform="matrix(1.00, 0.00, -0.00, -1.00, 595.9, 377.5)">v</text><text xml:space="preserve" font-family="FuturaPT-BookObl,Futura PT" font-style="italic" font-size="30.0" fill="#A6AAA8" transform="matrix(1.00, 0.00, -0.00, -1.00, 608.4, 377.5)">e</text><text xml:space="preserve" font-family="FuturaPT-BookObl,Futura PT" font-style="italic" font-size="30.0" fill="#A6AAA8" transform="matrix(1.00, 0.00, -0.00, -1.00, 622.6, 377.5)">s</text><text xml:space="preserve" font-family="FuturaPT-BookObl,Futura PT" font-style="italic" font-size="30.0" fill="#A6AAA8" transform="matrix(1.00, 0.00, -0.00, -1.00, 632.8, 377.5)">:</text><text xml:space="preserve" font-family="FuturaPT-Book,Futura PT" font-size="30.0" fill="#000000" transform="matrix(1.00, 0.00, -0.00, -1.00, 113.9, 524.9)">C</text><text xml:space="preserve" font-family="FuturaPT-Book,Futura PT" font-size="30.0" fill="#000000" transform="matrix(1.00, 0.00, -0.00, -1.00, 133.0, 524.9)">o</text><text xml:space="preserve" font-family="FuturaPT-Book,Futura PT" font-size="30.0" fill="#000000" transform="matrix(1.00, 0.00, -0.00, -1.00, 148.4, 524.9)">m</text><text xml:space="preserve" font-family="FuturaPT-Book,Futura PT" font-size="30.0" fill="#000000" transform="matrix(1.00, 0.00, -0.00, -1.00, 168.7, 524.9)">m</text><text xml:space="preserve" font-family="FuturaPT-Book,Futura PT" font-size="30.0" fill="#000000" transform="matrix(1.00, 0.00, -0.00, -1.00, 188.9, 524.9)">a</text><text xml:space="preserve" font-family="FuturaPT-Book,Futura PT" font-size="30.0" fill="#000000" transform="matrix(1.00, 0.00, -0.00, -1.00, 204.4, 524.9)">n</text><text xml:space="preserve" font-family="FuturaPT-Book,Futura PT" font-size="30.0" fill="#000000" transform="matrix(1.00, 0.00, -0.00, -1.00, 218.2, 524.9)">d</text><text xml:space="preserve" font-family="FuturaPT-Book,Futura PT" font-size="30.0" fill="#000000" transform="matrix(1.00, 0.00, -0.00, -1.00, 233.7, 524.9)"> </text><text xml:space="preserve" font-family="FuturaPT-Book,Futura PT" font-size="30.0" fill="#000000" transform="matrix(1.00, 0.00, -0.00, -1.00, 240.4, 524.9)">L</text><text xml:space="preserve" font-family="FuturaPT-Book,Futura PT" font-size="30.0" fill="#000000" transform="matrix(1.00, 0.00, -0.00, -1.00, 250.8, 524.9)">i</text><text xml:space="preserve" font-family="FuturaPT-Book,Futura PT" font-size="30.0" fill="#000000" transform="matrix(1.00, 0.00, -0.00, -1.00, 256.8, 524.9)">n</text><text xml:space="preserve" font-family="FuturaPT-Book,Futura PT" font-size="30.0" fill="#000000" transform="matrix(1.00, 0.00, -0.00, -1.00, 270.6, 524.9)">e</text><text xml:space="preserve" font-family="FuturaPT-Book,Futura PT" font-size="30.0" fill="#000000" transform="matrix(1.00, 0.00, -0.00, -1.00, 284.7, 524.9)"> </text><text xml:space="preserve" font-family="FuturaPT-Book,Futura PT" font-size="30.0" fill="#000000" transform="matrix(1.00, 0.00, -0.00, -1.00, 291.4, 524.9)">I</text><text xml:space="preserve" font-family="FuturaPT-Book,Futura PT" font-size="30.0" fill="#000000" transform="matrix(1.00, 0.00, -0.00, -1.00, 298.5, 524.9)">n</text><text xml:space="preserve" font-family="FuturaPT-Book,Futura PT" font-size="30.0" fill="#000000" transform="matrix(1.00, 0.00, -0.00, -1.00, 312.3, 524.9)">t</text><text xml:space="preserve" font-family="FuturaPT-Book,Futura PT" font-size="30.0" fill="#000000" transform="matrix(1.00, 0.00, -0.00, -1.00, 318.4, 524.9)">e</text><text xml:space="preserve" font-family="FuturaPT-Book,Futura PT" font-size="30.0" fill="#000000" transform="matrix(1.00, 0.00, -0.00, -1.00, 332.5, 524.9)">r</text><text xml:space="preserve" font-family="FuturaPT-Book,Futura PT" font-size="30.0" fill="#000000" transform="matrix(1.00, 0.00, -0.00, -1.00, 341.7, 524.9)">f</text><text xml:space="preserve" font-family="FuturaPT-Book,Futura PT" font-size="30.0" fill="#000000" transform="matrix(1.00, 0.00, -0.00, -1.00, 348.6, 524.9)">a</text><text xml:space="preserve" font-family="FuturaPT-Book,Futura PT" font-size="30.0" fill="#000000" transform="matrix(1.00, 0.00, -0.00, -1.00, 364.1, 524.9)">c</text><text xml:space="preserve" font-family="FuturaPT-Book,Futura PT" font-size="30.0" fill="#000000" transform="matrix(1.00, 0.00, -0.00, -1.00, 376.9, 524.9)">e</text><text xml:space="preserve" font-family="FuturaPT-BookObl,Futura PT" font-style="italic" font-size="30.0" fill="#A6AAA8" transform="matrix(1.00, 0.00, -0.00, -1.00, 501.4, 187.7)">A</text><text xml:space="preserve" font-family="FuturaPT-BookObl,Futura PT" font-style="italic" font-size="30.0" fill="#A6AAA8" transform="matrix(1.00, 0.00, -0.00, -1.00, 519.7, 187.7)">l</text><text xml:space="preserve" font-family="FuturaPT-BookObl,Futura PT" font-style="italic" font-size="30.0" fill="#A6AAA8" transform="matrix(1.00, 0.00, -0.00, -1.00, 525.7, 187.7)">t</text><text xml:space="preserve" font-family="FuturaPT-BookObl,Futura PT" font-style="italic" font-size="30.0" fill="#A6AAA8" transform="matrix(1.00, 0.00, -0.00, -1.00, 531.8, 187.7)">e</text><text xml:space="preserve" font-family="FuturaPT-BookObl,Futura PT" font-style="italic" font-size="30.0" fill="#A6AAA8" transform="matrix(1.00, 0.00, -0.00, -1.00, 546.0, 187.7)">r</text><text xml:space="preserve" font-family="FuturaPT-BookObl,Futura PT" font-style="italic" font-size="30.0" fill="#A6AAA8" transform="matrix(1.00, 0.00, -0.00, -1.00, 554.6, 187.7)">n</text><text xml:space="preserve" font-family="FuturaPT-BookObl,Futura PT" font-style="italic" font-size="30.0" fill="#A6AAA8" transform="matrix(1.00, 0.00, -0.00, -1.00, 568.3, 187.7)">a</text><text xml:space="preserve" font-family="FuturaPT-BookObl,Futura PT" font-style="italic" font-size="30.0" fill="#A6AAA8" transform="matrix(1.00, 0.00, -0.00, -1.00, 583.9, 187.7)">t</text><text xml:space="preserve" font-family="FuturaPT-BookObl,Futura PT" font-style="italic" font-size="30.0" fill="#A6AAA8" transform="matrix(1.00, 0.00, -0.00, -1.00, 590.0, 187.7)">i</text><text xml:space="preserve" font-family="FuturaPT-BookObl,Futura PT" font-style="italic" font-size="30.0" fill="#A6AAA8" transform="matrix(1.00, 0.00, -0.00, -1.00, 595.9, 187.7)">v</text><text xml:space="preserve" font-family="FuturaPT-BookObl,Futura PT" font-style="italic" font-size="30.0" fill="#A6AAA8" transform="matrix(1.00, 0.00, -0.00, -1.00, 608.4, 187.7)">e</text><text xml:space="preserve" font-family="FuturaPT-BookObl,Futura PT" font-style="italic" font-size="30.0" fill="#A6AAA8" transform="matrix(1.00, 0.00, -0.00, -1.00, 622.6, 187.7)">s</text><text xml:space="preserve" font-family="FuturaPT-BookObl,Futura PT" font-style="italic" font-size="30.0" fill="#A6AAA8" transform="matrix(1.00, 0.00, -0.00, -1.00, 632.8, 187.7)">:</text><path d="M 0.2 -0.0 L 46.4 -0.0 L 47.2 -0.0 " fill="none" stroke="#000000" stroke-width="2.00" transform="matrix(0.00, -1.00, -1.00, 0.00, 250.0, 508.2)"></path><path d="M 245.2 462.0 L 250.0 452.4 L 254.8 462.0 Z M 245.2 462.0 " fill="#000000"></path><path d="M 0.2 -0.0 L 46.4 -0.0 L 47.2 -0.0 " fill="none" stroke="#000000" stroke-width="2.00" transform="matrix(0.00, -1.00, -1.00, 0.00, 250.0, 330.2)"></path><path d="M 245.2 284.0 L 250.0 274.4 L 254.8 284.0 Z M 245.2 284.0 " fill="#000000"></path><text xml:space="preserve" font-family="FuturaPT-Book,Futura PT" font-size="30.0" fill="#000000" transform="matrix(1.00, 0.00, -0.00, -1.00, 657.5, 187.7)">•</text><text xml:space="preserve" font-family="FuturaPT-Book,Futura PT" font-size="30.0" fill="#61C59F" transform="matrix(1.00, 0.00, -0.00, -1.00, 687.5, 187.7)">G</text><text xml:space="preserve" font-family="FuturaPT-Book,Futura PT" font-size="30.0" fill="#61C59F" transform="matrix(1.00, 0.00, -0.00, -1.00, 709.9, 187.7)">i</text><text xml:space="preserve" font-family="FuturaPT-Book,Futura PT" font-size="30.0" fill="#61C59F" transform="matrix(1.00, 0.00, -0.00, -1.00, 715.8, 187.7)">t</text><text xml:space="preserve" font-family="FuturaPT-Book,Futura PT" font-size="30.0" fill="#61C59F" transform="matrix(1.00, 0.00, -0.00, -1.00, 722.0, 187.7)">L</text><text xml:space="preserve" font-family="FuturaPT-Book,Futura PT" font-size="30.0" fill="#61C59F" transform="matrix(1.00, 0.00, -0.00, -1.00, 732.4, 187.7)">a</text><text xml:space="preserve" font-family="FuturaPT-Book,Futura PT" font-size="30.0" fill="#61C59F" transform="matrix(1.00, 0.00, -0.00, -1.00, 747.9, 187.7)">b</text><text xml:space="preserve" font-family="FuturaPT-Book,Futura PT" font-size="30.0" fill="#000000" transform="matrix(1.00, 0.00, -0.00, -1.00, 763.4, 187.7)"> </text><g><clipPath id="clip0x7fe14b15a200"><path d="M 686.5 181.1 L 763.4 181.1 L 763.4 185.3 L 686.5 185.3 Z M 686.5 181.1 "></path></clipPath><g clip-path="url(#clip0x7fe14b15a200)"><path d="M 34.0 37.5 L 109.9 37.5 " fill="none" stroke="#61C59F" stroke-width="2.16" transform="matrix(1.00, 0.00, 0.00, -1.00, 653.5, 220.7)"></path></g></g><text xml:space="preserve" font-family="FuturaPT-Book,Futura PT" font-size="30.0" fill="#000000" transform="matrix(1.00, 0.00, -0.00, -1.00, 657.5, 149.7)">•</text><text xml:space="preserve" font-family="FuturaPT-Book,Futura PT" font-size="30.0" fill="#61C59F" transform="matrix(1.00, 0.00, -0.00, -1.00, 687.5, 149.7)">B</text><text xml:space="preserve" font-family="FuturaPT-Book,Futura PT" font-size="30.0" fill="#61C59F" transform="matrix(1.00, 0.00, -0.00, -1.00, 703.1, 149.7)">i</text><text xml:space="preserve" font-family="FuturaPT-Book,Futura PT" font-size="30.0" fill="#61C59F" transform="matrix(1.00, 0.00, -0.00, -1.00, 709.0, 149.7)">t</text><text xml:space="preserve" font-family="FuturaPT-Book,Futura PT" font-size="30.0" fill="#61C59F" transform="matrix(1.00, 0.00, -0.00, -1.00, 715.1, 149.7)">B</text><text xml:space="preserve" font-family="FuturaPT-Book,Futura PT" font-size="30.0" fill="#61C59F" transform="matrix(1.00, 0.00, -0.00, -1.00, 730.7, 149.7)">u</text><text xml:space="preserve" font-family="FuturaPT-Book,Futura PT" font-size="30.0" fill="#61C59F" transform="matrix(1.00, 0.00, -0.00, -1.00, 744.4, 149.7)">c</text><text xml:space="preserve" font-family="FuturaPT-Book,Futura PT" font-size="30.0" fill="#61C59F" transform="matrix(1.00, 0.00, -0.00, -1.00, 757.2, 149.7)">k</text><text xml:space="preserve" font-family="FuturaPT-Book,Futura PT" font-size="30.0" fill="#61C59F" transform="matrix(1.00, 0.00, -0.00, -1.00, 769.3, 149.7)">e</text><text xml:space="preserve" font-family="FuturaPT-Book,Futura PT" font-size="30.0" fill="#61C59F" transform="matrix(1.00, 0.00, -0.00, -1.00, 783.4, 149.7)">t</text><g><clipPath id="clip0x7fe14b15fcb0"><path d="M 686.5 143.1 L 789.5 143.1 L 789.5 147.3 L 686.5 147.3 Z M 686.5 143.1 "></path></clipPath><g clip-path="url(#clip0x7fe14b15fcb0)"><path d="M 34.0 75.5 L 136.1 75.5 " fill="none" stroke="#61C59F" stroke-width="2.16" transform="matrix(1.00, 0.00, 0.00, -1.00, 653.5, 220.7)"></path></g></g><text xml:space="preserve" font-family="FuturaPT-Book,Futura PT" font-size="30.0" fill="#000000" transform="matrix(1.00, 0.00, -0.00, -1.00, 656.2, 377.5)">•</text><text xml:space="preserve" font-family="FuturaPT-Book,Futura PT" font-size="30.0" fill="#61C59F" transform="matrix(1.00, 0.00, -0.00, -1.00, 686.2, 377.5)">S</text><text xml:space="preserve" font-family="FuturaPT-Book,Futura PT" font-size="30.0" fill="#61C59F" transform="matrix(1.00, 0.00, -0.00, -1.00, 701.4, 377.5)">V</text><text xml:space="preserve" font-family="FuturaPT-Book,Futura PT" font-size="30.0" fill="#61C59F" transform="matrix(1.00, 0.00, -0.00, -1.00, 717.8, 377.5)">N</text><g><clipPath id="clip0x7fe14b163090"><path d="M 685.2 370.9 L 740.5 370.9 L 740.5 375.1 L 685.2 375.1 Z M 685.2 370.9 "></path></clipPath><g clip-path="url(#clip0x7fe14b163090)"><path d="M 34.0 37.5 L 88.3 37.5 " fill="none" stroke="#61C59F" stroke-width="2.16" transform="matrix(1.00, 0.00, 0.00, -1.00, 652.2, 410.5)"></path></g></g><text xml:space="preserve" font-family="FuturaPT-BookObl,Futura PT" font-style="italic" font-size="30.0" fill="#A6AAA8" transform="matrix(1.00, 0.00, -0.00, -1.00, 522.1, 584.3)">P</text><text xml:space="preserve" font-family="FuturaPT-BookObl,Futura PT" font-style="italic" font-size="30.0" fill="#A6AAA8" transform="matrix(1.00, 0.00, -0.00, -1.00, 535.5, 584.3)">C</text><text xml:space="preserve" font-family="FuturaPT-BookObl,Futura PT" font-style="italic" font-size="30.0" fill="#A6AAA8" transform="matrix(1.00, 0.00, -0.00, -1.00, 554.7, 584.3)"> </text><text xml:space="preserve" font-family="FuturaPT-BookObl,Futura PT" font-style="italic" font-size="30.0" fill="#A6AAA8" transform="matrix(1.00, 0.00, -0.00, -1.00, 561.4, 584.3)">A</text><text xml:space="preserve" font-family="FuturaPT-BookObl,Futura PT" font-style="italic" font-size="30.0" fill="#A6AAA8" transform="matrix(1.00, 0.00, -0.00, -1.00, 579.8, 584.3)">p</text><text xml:space="preserve" font-family="FuturaPT-BookObl,Futura PT" font-style="italic" font-size="30.0" fill="#A6AAA8" transform="matrix(1.00, 0.00, -0.00, -1.00, 595.3, 584.3)">p</text><text xml:space="preserve" font-family="FuturaPT-BookObl,Futura PT" font-style="italic" font-size="30.0" fill="#A6AAA8" transform="matrix(1.00, 0.00, -0.00, -1.00, 610.8, 584.3)">:</text><text xml:space="preserve" font-family="FuturaPT-Book,Futura PT" font-size="30.0" fill="#000000" transform="matrix(1.00, 0.00, -0.00, -1.00, 656.2, 627.8)">•</text><text xml:space="preserve" font-family="FuturaPT-Book,Futura PT" font-size="30.0" fill="#000000" transform="matrix(1.00, 0.00, -0.00, -1.00, 686.2, 627.8)">T</text><text xml:space="preserve" font-family="FuturaPT-Book,Futura PT" font-size="30.0" fill="#000000" transform="matrix(1.00, 0.00, -0.00, -1.00, 696.4, 627.8)">e</text><text xml:space="preserve" font-family="FuturaPT-Book,Futura PT" font-size="30.0" fill="#000000" transform="matrix(1.00, 0.00, -0.00, -1.00, 710.8, 627.8)">r</text><text xml:space="preserve" font-family="FuturaPT-Book,Futura PT" font-size="30.0" fill="#000000" transform="matrix(1.00, 0.00, -0.00, -1.00, 719.6, 627.8)">m</text><text xml:space="preserve" font-family="FuturaPT-Book,Futura PT" font-size="30.0" fill="#000000" transform="matrix(1.00, 0.00, -0.00, -1.00, 740.1, 627.8)">i</text><text xml:space="preserve" font-family="FuturaPT-Book,Futura PT" font-size="30.0" fill="#000000" transform="matrix(1.00, 0.00, -0.00, -1.00, 746.2, 627.8)">n</text><text xml:space="preserve" font-family="FuturaPT-Book,Futura PT" font-size="30.0" fill="#000000" transform="matrix(1.00, 0.00, -0.00, -1.00, 760.3, 627.8)">a</text><text xml:space="preserve" font-family="FuturaPT-Book,Futura PT" font-size="30.0" fill="#000000" transform="matrix(1.00, 0.00, -0.00, -1.00, 776.0, 627.8)">l</text><text xml:space="preserve" font-family="FuturaPT-Book,Futura PT" font-size="30.0" fill="#000000" transform="matrix(1.00, 0.00, -0.00, -1.00, 656.2, 584.2)">•</text><text xml:space="preserve" font-family="FuturaPT-Book,Futura PT" font-size="30.0" fill="#000000" transform="matrix(1.00, 0.00, -0.00, -1.00, 686.2, 584.2)">C</text><text xml:space="preserve" font-family="FuturaPT-Book,Futura PT" font-size="30.0" fill="#000000" transform="matrix(1.00, 0.00, -0.00, -1.00, 705.3, 584.2)">o</text><text xml:space="preserve" font-family="FuturaPT-Book,Futura PT" font-size="30.0" fill="#000000" transform="matrix(1.00, 0.00, -0.00, -1.00, 720.7, 584.2)">m</text><text xml:space="preserve" font-family="FuturaPT-Book,Futura PT" font-size="30.0" fill="#000000" transform="matrix(1.00, 0.00, -0.00, -1.00, 740.9, 584.2)">m</text><text xml:space="preserve" font-family="FuturaPT-Book,Futura PT" font-size="30.0" fill="#000000" transform="matrix(1.00, 0.00, -0.00, -1.00, 761.2, 584.2)">a</text><text xml:space="preserve" font-family="FuturaPT-Book,Futura PT" font-size="30.0" fill="#000000" transform="matrix(1.00, 0.00, -0.00, -1.00, 776.7, 584.2)">n</text><text xml:space="preserve" font-family="FuturaPT-Book,Futura PT" font-size="30.0" fill="#000000" transform="matrix(1.00, 0.00, -0.00, -1.00, 790.5, 584.2)">d</text><text xml:space="preserve" font-family="FuturaPT-Book,Futura PT" font-size="30.0" fill="#000000" transform="matrix(1.00, 0.00, -0.00, -1.00, 805.9, 584.2)"> </text><text xml:space="preserve" font-family="FuturaPT-Book,Futura PT" font-size="30.0" fill="#000000" transform="matrix(1.00, 0.00, -0.00, -1.00, 812.6, 584.2)">L</text><text xml:space="preserve" font-family="FuturaPT-Book,Futura PT" font-size="30.0" fill="#000000" transform="matrix(1.00, 0.00, -0.00, -1.00, 823.1, 584.2)">i</text><text xml:space="preserve" font-family="FuturaPT-Book,Futura PT" font-size="30.0" fill="#000000" transform="matrix(1.00, 0.00, -0.00, -1.00, 829.0, 584.2)">n</text><text xml:space="preserve" font-family="FuturaPT-Book,Futura PT" font-size="30.0" fill="#000000" transform="matrix(1.00, 0.00, -0.00, -1.00, 842.8, 584.2)">e</text><text xml:space="preserve" font-family="FuturaPT-Book,Futura PT" font-size="30.0" fill="#000000" transform="matrix(1.00, 0.00, -0.00, -1.00, 856.9, 584.2)"> </text><text xml:space="preserve" font-family="FuturaPT-Book,Futura PT" font-size="30.0" fill="#000000" transform="matrix(1.00, 0.00, -0.00, -1.00, 863.6, 584.2)">P</text><text xml:space="preserve" font-family="FuturaPT-Book,Futura PT" font-size="30.0" fill="#000000" transform="matrix(1.00, 0.00, -0.00, -1.00, 877.0, 584.2)">r</text><text xml:space="preserve" font-family="FuturaPT-Book,Futura PT" font-size="30.0" fill="#000000" transform="matrix(1.00, 0.00, -0.00, -1.00, 884.9, 584.2)">o</text><text xml:space="preserve" font-family="FuturaPT-Book,Futura PT" font-size="30.0" fill="#000000" transform="matrix(1.00, 0.00, -0.00, -1.00, 900.3, 584.2)">m</text><text xml:space="preserve" font-family="FuturaPT-Book,Futura PT" font-size="30.0" fill="#000000" transform="matrix(1.00, 0.00, -0.00, -1.00, 920.5, 584.2)">p</text><text xml:space="preserve" font-family="FuturaPT-Book,Futura PT" font-size="30.0" fill="#000000" transform="matrix(1.00, 0.00, -0.00, -1.00, 936.0, 584.2)">t</text></g></svg>