<?xml version="1.0" encoding="UTF-8" standalone="no"?><svg xmlns="http://www.w3.org/2000/svg" xmlns:xlink="http://www.w3.org/1999/xlink" clip-rule="evenodd" stroke-miterlimit="10" viewBox="0 0 1280 800"><desc>SVG generated by Keynote</desc><defs></defs><g transform="matrix(1.00, 0.00, -0.00, -1.00, 0.0, 800.0)"><path d="M 0.0 800.0 L 1280.0 800.0 L 1280.0 0.0 L 0.0 0.0 Z M 0.0 800.0 " fill="#FCFCFC"></path><path d="M 0.0 800.0 L 1280.0 800.0 L 1280.0 764.0 L 0.0 764.0 Z M 0.0 800.0 " fill="#2D2D2D"></path><path d="M 0.0 56.0 L 1280.0 56.0 L 1280.0 0.0 L 0.0 0.0 Z M 0.0 56.0 " fill="#2D2D2D"></path><text xml:space="preserve" font-family="FuturaLT-Book,Futura LT" font-size="24.0" fill="#B5B5B5" transform="matrix(1.00, 0.00, -0.00, -1.00, 927.2, 20.4)">K</text><text xml:space="preserve" font-family="FuturaLT-Book,Futura LT" font-size="24.0" fill="#B5B5B5" transform="matrix(1.00, 0.00, -0.00, -1.00, 941.6, 20.4)">e</text><text xml:space="preserve" font-family="FuturaLT-Book,Futura LT" font-size="24.0" fill="#B5B5B5" transform="matrix(1.00, 0.00, -0.00, -1.00, 953.8, 20.4)">v</text><text xml:space="preserve" font-family="FuturaLT-Book,Futura LT" font-size="24.0" fill="#B5B5B5" transform="matrix(1.00, 0.00, -0.00, -1.00, 964.7, 20.4)">i</text><text xml:space="preserve" font-family="FuturaLT-Book,Futura LT" font-size="24.0" fill="#B5B5B5" transform="matrix(1.00, 0.00, -0.00, -1.00, 970.7, 20.4)">n</text><text xml:space="preserve" font-family="FuturaLT-Book,Futura LT" font-size="24.0" fill="#B5B5B5" transform="matrix(1.00, 0.00, -0.00, -1.00, 983.2, 20.4)"> </text><text xml:space="preserve" font-family="FuturaLT-Book,Futura LT" font-size="24.0" fill="#B5B5B5" transform="matrix(1.00, 0.00, -0.00, -1.00, 990.3, 20.4)">Y</text><text xml:space="preserve" font-family="FuturaLT-Book,Futura LT" font-size="24.0" fill="#B5B5B5" transform="matrix(1.00, 0.00, -0.00, -1.00, 1002.4, 20.4)">u</text><text xml:space="preserve" font-family="FuturaLT-Book,Futura LT" font-size="24.0" fill="#B5B5B5" transform="matrix(1.00, 0.00, -0.00, -1.00, 1014.4, 20.4)">n</text><text xml:space="preserve" font-family="FuturaLT-Book,Futura LT" font-size="24.0" fill="#B5B5B5" transform="matrix(1.00, 0.00, -0.00, -1.00, 1026.9, 20.4)">,</text><text xml:space="preserve" font-family="FuturaLT-Book,Futura LT" font-size="24.0" fill="#B5B5B5" transform="matrix(1.00, 0.00, -0.00, -1.00, 1034.0, 20.4)"> </text><text xml:space="preserve" font-family="FuturaLT-Book,Futura LT" font-size="24.0" fill="#B5B5B5" transform="matrix(1.00, 0.00, -0.00, -1.00, 1041.2, 20.4)">@</text><text xml:space="preserve" font-family="FuturaLT-Book,Futura LT" font-size="24.0" fill="#B5B5B5" transform="matrix(1.00, 0.00, -0.00, -1.00, 1060.1, 20.4)">k</text><text xml:space="preserve" font-family="FuturaLT-Book,Futura LT" font-size="24.0" fill="#B5B5B5" transform="matrix(1.00, 0.00, -0.00, -1.00, 1071.2, 20.4)">e</text><text xml:space="preserve" font-family="FuturaLT-Book,Futura LT" font-size="24.0" fill="#B5B5B5" transform="matrix(1.00, 0.00, -0.00, -1.00, 1083.4, 20.4)">v</text><text xml:space="preserve" font-family="FuturaLT-Book,Futura LT" font-size="24.0" fill="#B5B5B5" transform="matrix(1.00, 0.00, -0.00, -1.00, 1094.3, 20.4)">i</text><text xml:space="preserve" font-family="FuturaLT-Book,Futura LT" font-size="24.0" fill="#B5B5B5" transform="matrix(1.00, 0.00, -0.00, -1.00, 1100.3, 20.4)">n</text><text xml:space="preserve" font-family="FuturaLT-Book,Futura LT" font-size="24.0" fill="#B5B5B5" transform="matrix(1.00, 0.00, -0.00, -1.00, 1112.7, 20.4)">s</text><text xml:space="preserve" font-family="FuturaLT-Book,Futura LT" font-size="24.0" fill="#B5B5B5" transform="matrix(1.00, 0.00, -0.00, -1.00, 1122.1, 20.4)">y</text><text xml:space="preserve" font-family="FuturaLT-Book,Futura LT" font-size="24.0" fill="#B5B5B5" transform="matrix(1.00, 0.00, -0.00, -1.00, 1133.8, 20.4)">u</text><text xml:space="preserve" font-family="FuturaLT-Book,Futura LT" font-size="24.0" fill="#B5B5B5" transform="matrix(1.00, 0.00, -0.00, -1.00, 1145.8, 20.4)">n</text><g><clipPath id="clip0x7fe14a8e85d0"><path d="M 1167.0 45.0 L 1209.0 45.0 L 1209.0 11.0 L 1167.0 11.0 Z M 1166.9 45.2 "></path></clipPath><g clip-path="url(#clip0x7fe14a8e85d0)"><image xlink:href="../../A9B4A605-238E-4E05-8F10-8BFA5952B821/assets/C77DCD3790C3F0B3E066644871480D19.png" width="400.00" height="328.00" transform="matrix(0.10, 0.00, -0.00, -0.10, 1166.9, 45.2)"></image></g></g><image xlink:href="../../A9B4A605-238E-4E05-8F10-8BFA5952B821/assets/FAD6F78933DA75A50BC84521C83A2ED1.png" width="768.00" height="109.00" transform="matrix(0.26, 0.00, -0.00, -0.26, 133.6, 45.4)"></image><image xlink:href="../../A9B4A605-238E-4E05-8F10-8BFA5952B821/assets/1BB4E873FACCA81805DB57C2B755465B.png" width="436.00" height="244.00" transform="matrix(0.11, 0.00, -0.00, -0.11, 75.3, 43.1)"></image><text xml:space="preserve" font-family="FuturaPT-BookObl,Futura PT" font-style="italic" font-size="10.0" fill="#61C59F" transform="matrix(1.00, 0.00, -0.00, -1.00, 1078.5, 78.5)">h</text><text xml:space="preserve" font-family="FuturaPT-BookObl,Futura PT" font-style="italic" font-size="10.0" fill="#61C59F" transform="matrix(1.00, 0.00, -0.00, -1.00, 1083.1, 78.5)">t</text><text xml:space="preserve" font-family="FuturaPT-BookObl,Futura PT" font-style="italic" font-size="10.0" fill="#61C59F" transform="matrix(1.00, 0.00, -0.00, -1.00, 1085.4, 78.5)">t</text><text xml:space="preserve" font-family="FuturaPT-BookObl,Futura PT" font-style="italic" font-size="10.0" fill="#61C59F" transform="matrix(1.00, 0.00, -0.00, -1.00, 1087.4, 78.5)">p</text><text xml:space="preserve" font-family="FuturaPT-BookObl,Futura PT" font-style="italic" font-size="10.0" fill="#61C59F" transform="matrix(1.00, 0.00, -0.00, -1.00, 1092.6, 78.5)">:</text><text xml:space="preserve" font-family="FuturaPT-BookObl,Futura PT" font-style="italic" font-size="10.0" fill="#61C59F" transform="matrix(1.00, 0.00, -0.00, -1.00, 1094.8, 78.5)">/</text><text xml:space="preserve" font-family="FuturaPT-BookObl,Futura PT" font-style="italic" font-size="10.0" fill="#61C59F" transform="matrix(1.00, 0.00, -0.00, -1.00, 1100.7, 78.5)">/</text><text xml:space="preserve" font-family="FuturaPT-BookObl,Futura PT" font-style="italic" font-size="10.0" fill="#61C59F" transform="matrix(1.00, 0.00, -0.00, -1.00, 1106.7, 78.5)">i</text><text xml:space="preserve" font-family="FuturaPT-BookObl,Futura PT" font-style="italic" font-size="10.0" fill="#61C59F" transform="matrix(1.00, 0.00, -0.00, -1.00, 1108.7, 78.5)">m</text><text xml:space="preserve" font-family="FuturaPT-BookObl,Futura PT" font-style="italic" font-size="10.0" fill="#61C59F" transform="matrix(1.00, 0.00, -0.00, -1.00, 1115.4, 78.5)">g</text><text xml:space="preserve" font-family="FuturaPT-BookObl,Futura PT" font-style="italic" font-size="10.0" fill="#61C59F" transform="matrix(1.00, 0.00, -0.00, -1.00, 1120.6, 78.5)">s</text><text xml:space="preserve" font-family="FuturaPT-BookObl,Futura PT" font-style="italic" font-size="10.0" fill="#61C59F" transform="matrix(1.00, 0.00, -0.00, -1.00, 1124.0, 78.5)">.</text><text xml:space="preserve" font-family="FuturaPT-BookObl,Futura PT" font-style="italic" font-size="10.0" fill="#61C59F" transform="matrix(1.00, 0.00, -0.00, -1.00, 1126.2, 78.5)">x</text><text xml:space="preserve" font-family="FuturaPT-BookObl,Futura PT" font-style="italic" font-size="10.0" fill="#61C59F" transform="matrix(1.00, 0.00, -0.00, -1.00, 1130.6, 78.5)">k</text><text xml:space="preserve" font-family="FuturaPT-BookObl,Futura PT" font-style="italic" font-size="10.0" fill="#61C59F" transform="matrix(1.00, 0.00, -0.00, -1.00, 1134.6, 78.5)">c</text><text xml:space="preserve" font-family="FuturaPT-BookObl,Futura PT" font-style="italic" font-size="10.0" fill="#61C59F" transform="matrix(1.00, 0.00, -0.00, -1.00, 1138.9, 78.5)">d</text><text xml:space="preserve" font-family="FuturaPT-BookObl,Futura PT" font-style="italic" font-size="10.0" fill="#61C59F" transform="matrix(1.00, 0.00, -0.00, -1.00, 1144.1, 78.5)">.</text><text xml:space="preserve" font-family="FuturaPT-BookObl,Futura PT" font-style="italic" font-size="10.0" fill="#61C59F" transform="matrix(1.00, 0.00, -0.00, -1.00, 1146.3, 78.5)">c</text><text xml:space="preserve" font-family="FuturaPT-BookObl,Futura PT" font-style="italic" font-size="10.0" fill="#61C59F" transform="matrix(1.00, 0.00, -0.00, -1.00, 1150.6, 78.5)">o</text><text xml:space="preserve" font-family="FuturaPT-BookObl,Futura PT" font-style="italic" font-size="10.0" fill="#61C59F" transform="matrix(1.00, 0.00, -0.00, -1.00, 1155.7, 78.5)">m</text><text xml:space="preserve" font-family="FuturaPT-BookObl,Futura PT" font-style="italic" font-size="10.0" fill="#61C59F" transform="matrix(1.00, 0.00, -0.00, -1.00, 1162.5, 78.5)">/</text><text xml:space="preserve" font-family="FuturaPT-BookObl,Futura PT" font-style="italic" font-size="10.0" fill="#61C59F" transform="matrix(1.00, 0.00, -0.00, -1.00, 1168.4, 78.5)">c</text><text xml:space="preserve" font-family="FuturaPT-BookObl,Futura PT" font-style="italic" font-size="10.0" fill="#61C59F" transform="matrix(1.00, 0.00, -0.00, -1.00, 1172.7, 78.5)">o</text><text xml:space="preserve" font-family="FuturaPT-BookObl,Futura PT" font-style="italic" font-size="10.0" fill="#61C59F" transform="matrix(1.00, 0.00, -0.00, -1.00, 1177.9, 78.5)">m</text><text xml:space="preserve" font-family="FuturaPT-BookObl,Futura PT" font-style="italic" font-size="10.0" fill="#61C59F" transform="matrix(1.00, 0.00, -0.00, -1.00, 1184.7, 78.5)">i</text><text xml:space="preserve" font-family="FuturaPT-BookObl,Futura PT" font-style="italic" font-size="10.0" fill="#61C59F" transform="matrix(1.00, 0.00, -0.00, -1.00, 1186.6, 78.5)">c</text><text xml:space="preserve" font-family="FuturaPT-BookObl,Futura PT" font-style="italic" font-size="10.0" fill="#61C59F" transform="matrix(1.00, 0.00, -0.00, -1.00, 1190.9, 78.5)">s</text><text xml:space="preserve" font-family="FuturaPT-BookObl,Futura PT" font-style="italic" font-size="10.0" fill="#61C59F" transform="matrix(1.00, 0.00, -0.00, -1.00, 1194.3, 78.5)">/</text><text xml:space="preserve" font-family="FuturaPT-BookObl,Futura PT" font-style="italic" font-size="10.0" fill="#61C59F" transform="matrix(1.00, 0.00, -0.00, -1.00, 1200.3, 78.5)">g</text><text xml:space="preserve" font-family="FuturaPT-BookObl,Futura PT" font-style="italic" font-size="10.0" fill="#61C59F" transform="matrix(1.00, 0.00, -0.00, -1.00, 1205.4, 78.5)">i</text><text xml:space="preserve" font-family="FuturaPT-BookObl,Futura PT" font-style="italic" font-size="10.0" fill="#61C59F" transform="matrix(1.00, 0.00, -0.00, -1.00, 1207.4, 78.5)">t</text><text xml:space="preserve" font-family="FuturaPT-BookObl,Futura PT" font-style="italic" font-size="10.0" fill="#61C59F" transform="matrix(1.00, 0.00, -0.00, -1.00, 1209.5, 78.5)">_</text><text xml:space="preserve" font-family="FuturaPT-BookObl,Futura PT" font-style="italic" font-size="10.0" fill="#61C59F" transform="matrix(1.00, 0.00, -0.00, -1.00, 1214.4, 78.5)">c</text><text xml:space="preserve" font-family="FuturaPT-BookObl,Futura PT" font-style="italic" font-size="10.0" fill="#61C59F" transform="matrix(1.00, 0.00, -0.00, -1.00, 1218.7, 78.5)">o</text><text xml:space="preserve" font-family="FuturaPT-BookObl,Futura PT" font-style="italic" font-size="10.0" fill="#61C59F" transform="matrix(1.00, 0.00, -0.00, -1.00, 1223.8, 78.5)">m</text><text xml:space="preserve" font-family="FuturaPT-BookObl,Futura PT" font-style="italic" font-size="10.0" fill="#61C59F" transform="matrix(1.00, 0.00, -0.00, -1.00, 1230.6, 78.5)">m</text><text xml:space="preserve" font-family="FuturaPT-BookObl,Futura PT" font-style="italic" font-size="10.0" fill="#61C59F" transform="matrix(1.00, 0.00, -0.00, -1.00, 1237.3, 78.5)">i</text><text xml:space="preserve" font-family="FuturaPT-BookObl,Futura PT" font-style="italic" font-size="10.0" fill="#61C59F" transform="matrix(1.00, 0.00, -0.00, -1.00, 1239.3, 78.5)">t</text><text xml:space="preserve" font-family="FuturaPT-BookObl,Futura PT" font-style="italic" font-size="10.0" fill="#61C59F" transform="matrix(1.00, 0.00, -0.00, -1.00, 1241.3, 78.5)">.</text><text xml:space="preserve" font-family="FuturaPT-BookObl,Futura PT" font-style="italic" font-size="10.0" fill="#61C59F" transform="matrix(1.00, 0.00, -0.00, -1.00, 1243.5, 78.5)">p</text><text xml:space="preserve" font-family="FuturaPT-BookObl,Futura PT" font-style="italic" font-size="10.0" fill="#61C59F" transform="matrix(1.00, 0.00, -0.00, -1.00, 1248.7, 78.5)">n</text><text xml:space="preserve" font-family="FuturaPT-BookObl,Futura PT" font-style="italic" font-size="10.0" fill="#61C59F" transform="matrix(1.00, 0.00, -0.00, -1.00, 1253.3, 78.5)">g</text><g><clipPath id="clip0x7fe14b3f7010"><path d="M 1077.5 75.6 L 1258.5 75.6 L 1258.5 78.3 L 1077.5 78.3 Z M 1077.5 75.6 "></path></clipPath><g clip-path="url(#clip0x7fe14b3f7010)"><path d="M 4.0 15.5 L 183.9 15.5 " fill="none" stroke="#61C59F" stroke-width="0.72" transform="matrix(1.00, 0.00, 0.00, -1.00, 1074.5, 92.5)"></path></g></g><image xlink:href="../../1ED25A0C-B89A-46EF-9A99-CF40E02635C7/assets/2DF1C68CA46EBCE8CC1E6F349646A01D.png" width="439.00" height="250.00" transform="matrix(1.86, 0.00, -0.00, -1.86, 232.6, 680.3)"></image></g></svg>