<?xml version="1.0" encoding="UTF-8" standalone="no"?><svg xmlns="http://www.w3.org/2000/svg" xmlns:xlink="http://www.w3.org/1999/xlink" clip-rule="evenodd" stroke-miterlimit="10" viewBox="0 0 1280 800"><desc>SVG generated by Keynote</desc><defs></defs><g transform="matrix(1.00, 0.00, -0.00, -1.00, 0.0, 800.0)"><path d="M 0.0 800.0 L 1280.0 800.0 L 1280.0 0.0 L 0.0 0.0 Z M 0.0 800.0 " fill="#FCFCFC"></path><path d="M 0.0 800.0 L 1280.0 800.0 L 1280.0 764.0 L 0.0 764.0 Z M 0.0 800.0 " fill="#2D2D2D"></path><path d="M 0.0 56.0 L 1280.0 56.0 L 1280.0 0.0 L 0.0 0.0 Z M 0.0 56.0 " fill="#2D2D2D"></path><text xml:space="preserve" font-family="FuturaLT-Book,Futura LT" font-size="24.0" fill="#B5B5B5" transform="matrix(1.00, 0.00, -0.00, -1.00, 927.2, 20.4)">K</text><text xml:space="preserve" font-family="FuturaLT-Book,Futura LT" font-size="24.0" fill="#B5B5B5" transform="matrix(1.00, 0.00, -0.00, -1.00, 941.6, 20.4)">e</text><text xml:space="preserve" font-family="FuturaLT-Book,Futura LT" font-size="24.0" fill="#B5B5B5" transform="matrix(1.00, 0.00, -0.00, -1.00, 953.8, 20.4)">v</text><text xml:space="preserve" font-family="FuturaLT-Book,Futura LT" font-size="24.0" fill="#B5B5B5" transform="matrix(1.00, 0.00, -0.00, -1.00, 964.7, 20.4)">i</text><text xml:space="preserve" font-family="FuturaLT-Book,Futura LT" font-size="24.0" fill="#B5B5B5" transform="matrix(1.00, 0.00, -0.00, -1.00, 970.7, 20.4)">n</text><text xml:space="preserve" font-family="FuturaLT-Book,Futura LT" font-size="24.0" fill="#B5B5B5" transform="matrix(1.00, 0.00, -0.00, -1.00, 983.2, 20.4)"> </text><text xml:space="preserve" font-family="FuturaLT-Book,Futura LT" font-size="24.0" fill="#B5B5B5" transform="matrix(1.00, 0.00, -0.00, -1.00, 990.3, 20.4)">Y</text><text xml:space="preserve" font-family="FuturaLT-Book,Futura LT" font-size="24.0" fill="#B5B5B5" transform="matrix(1.00, 0.00, -0.00, -1.00, 1002.4, 20.4)">u</text><text xml:space="preserve" font-family="FuturaLT-Book,Futura LT" font-size="24.0" fill="#B5B5B5" transform="matrix(1.00, 0.00, -0.00, -1.00, 1014.4, 20.4)">n</text><text xml:space="preserve" font-family="FuturaLT-Book,Futura LT" font-size="24.0" fill="#B5B5B5" transform="matrix(1.00, 0.00, -0.00, -1.00, 1026.9, 20.4)">,</text><text xml:space="preserve" font-family="FuturaLT-Book,Futura LT" font-size="24.0" fill="#B5B5B5" transform="matrix(1.00, 0.00, -0.00, -1.00, 1034.0, 20.4)"> </text><text xml:space="preserve" font-family="FuturaLT-Book,Futura LT" font-size="24.0" fill="#B5B5B5" transform="matrix(1.00, 0.00, -0.00, -1.00, 1041.2, 20.4)">@</text><text xml:space="preserve" font-family="FuturaLT-Book,Futura LT" font-size="24.0" fill="#B5B5B5" transform="matrix(1.00, 0.00, -0.00, -1.00, 1060.1, 20.4)">k</text><text xml:space="preserve" font-family="FuturaLT-Book,Futura LT" font-size="24.0" fill="#B5B5B5" transform="matrix(1.00, 0.00, -0.00, -1.00, 1071.2, 20.4)">e</text><text xml:space="preserve" font-family="FuturaLT-Book,Futura LT" font-size="24.0" fill="#B5B5B5" transform="matrix(1.00, 0.00, -0.00, -1.00, 1083.4, 20.4)">v</text><text xml:space="preserve" font-family="FuturaLT-Book,Futura LT" font-size="24.0" fill="#B5B5B5" transform="matrix(1.00, 0.00, -0.00, -1.00, 1094.3, 20.4)">i</text><text xml:space="preserve" font-family="FuturaLT-Book,Futura LT" font-size="24.0" fill="#B5B5B5" transform="matrix(1.00, 0.00, -0.00, -1.00, 1100.3, 20.4)">n</text><text xml:space="preserve" font-family="FuturaLT-Book,Futura LT" font-size="24.0" fill="#B5B5B5" transform="matrix(1.00, 0.00, -0.00, -1.00, 1112.7, 20.4)">s</text><text xml:space="preserve" font-family="FuturaLT-Book,Futura LT" font-size="24.0" fill="#B5B5B5" transform="matrix(1.00, 0.00, -0.00, -1.00, 1122.1, 20.4)">y</text><text xml:space="preserve" font-family="FuturaLT-Book,Futura LT" font-size="24.0" fill="#B5B5B5" transform="matrix(1.00, 0.00, -0.00, -1.00, 1133.8, 20.4)">u</text><text xml:space="preserve" font-family="FuturaLT-Book,Futura LT" font-size="24.0" fill="#B5B5B5" transform="matrix(1.00, 0.00, -0.00, -1.00, 1145.8, 20.4)">n</text><g><clipPath id="clip0x7fe1476f5f30"><path d="M 1167.0 45.0 L 1209.0 45.0 L 1209.0 11.0 L 1167.0 11.0 Z M 1166.9 45.2 "></path></clipPath><g clip-path="url(#clip0x7fe1476f5f30)"><image xlink:href="../../A9B4A605-238E-4E05-8F10-8BFA5952B821/assets/C77DCD3790C3F0B3E066644871480D19.png" width="400.00" height="328.00" transform="matrix(0.10, 0.00, -0.00, -0.10, 1166.9, 45.2)"></image></g></g><image xlink:href="../../A9B4A605-238E-4E05-8F10-8BFA5952B821/assets/FAD6F78933DA75A50BC84521C83A2ED1.png" width="768.00" height="109.00" transform="matrix(0.26, 0.00, -0.00, -0.26, 133.6, 45.4)"></image><image xlink:href="../../A9B4A605-238E-4E05-8F10-8BFA5952B821/assets/1BB4E873FACCA81805DB57C2B755465B.png" width="436.00" height="244.00" transform="matrix(0.11, 0.00, -0.00, -0.11, 75.3, 43.1)"></image><g><clipPath id="clip0x7fe147e91a50"><path d="M 420.0 744.0 L 860.0 744.0 L 860.0 69.0 L 420.0 69.0 Z M 420.0 743.6 "></path></clipPath><g clip-path="url(#clip0x7fe147e91a50)"><image xlink:href="../../3805495B-B2CE-40ED-B357-8D246D8FEF47/assets/9630126AA97C3D81541393D151E76EB2.png" width="440.00" height="675.00" transform="matrix(1.00, 0.00, -0.00, -1.00, 420.0, 743.6)"></image></g></g><image xlink:href="../../5876350E-8F25-463C-ABC7-9D4EE873E5F5/assets/6411CD2C9BD2C17981B3823C1591E24A.png" width="240.00" height="278.00" transform="matrix(0.66, 0.00, -0.00, -0.66, 997.5, 515.0)"></image><g><clipPath id="clip0x7fe148939f20"><path d="M 99.0 468.0 L 336.0 468.0 L 336.0 369.0 L 99.0 369.0 Z M 99.1 468.4 "></path></clipPath><g clip-path="url(#clip0x7fe148939f20)"><image xlink:href="../../4ACEC558-9869-4737-87C4-C3C93EA80CC8/assets/C06C3292D4C4F65D281E033813769F45.png" width="910.00" height="380.00" transform="matrix(0.26, 0.00, -0.00, -0.26, 99.1, 468.4)"></image></g></g><text xml:space="preserve" font-family="MinionPro-It,Minion Pro" font-style="italic" font-size="44.0" fill="#FFFFFF" transform="matrix(1.00, 0.00, -0.00, -1.00, 479.9, 115.9)">T</text><text xml:space="preserve" font-family="MinionPro-It,Minion Pro" font-style="italic" font-size="44.0" fill="#FFFFFF" transform="matrix(1.00, 0.00, -0.00, -1.00, 506.0, 115.9)">h</text><text xml:space="preserve" font-family="MinionPro-It,Minion Pro" font-style="italic" font-size="44.0" fill="#FFFFFF" transform="matrix(1.00, 0.00, -0.00, -1.00, 527.8, 115.9)">e</text><text xml:space="preserve" font-family="MinionPro-It,Minion Pro" font-style="italic" font-size="44.0" fill="#FFFFFF" transform="matrix(1.00, 0.00, -0.00, -1.00, 544.9, 115.9)"> </text><text xml:space="preserve" font-family="MinionPro-It,Minion Pro" font-style="italic" font-size="44.0" fill="#FFFFFF" transform="matrix(1.00, 0.00, -0.00, -1.00, 554.6, 115.9)">m</text><text xml:space="preserve" font-family="MinionPro-It,Minion Pro" font-style="italic" font-size="44.0" fill="#FFFFFF" transform="matrix(1.00, 0.00, -0.00, -1.00, 588.5, 115.9)">a</text><text xml:space="preserve" font-family="MinionPro-It,Minion Pro" font-style="italic" font-size="44.0" fill="#FFFFFF" transform="matrix(1.00, 0.00, -0.00, -1.00, 608.9, 115.9)">n</text><text xml:space="preserve" font-family="MinionPro-It,Minion Pro" font-style="italic" font-size="44.0" fill="#FFFFFF" transform="matrix(1.00, 0.00, -0.00, -1.00, 631.8, 115.9)">,</text><text xml:space="preserve" font-family="MinionPro-It,Minion Pro" font-style="italic" font-size="44.0" fill="#FFFFFF" transform="matrix(1.00, 0.00, -0.00, -1.00, 641.7, 115.9)"> </text><text xml:space="preserve" font-family="MinionPro-It,Minion Pro" font-style="italic" font-size="44.0" fill="#FFFFFF" transform="matrix(1.00, 0.00, -0.00, -1.00, 651.4, 115.9)">t</text><text xml:space="preserve" font-family="MinionPro-It,Minion Pro" font-style="italic" font-size="44.0" fill="#FFFFFF" transform="matrix(1.00, 0.00, -0.00, -1.00, 664.0, 115.9)">h</text><text xml:space="preserve" font-family="MinionPro-It,Minion Pro" font-style="italic" font-size="44.0" fill="#FFFFFF" transform="matrix(1.00, 0.00, -0.00, -1.00, 685.8, 115.9)">e</text><text xml:space="preserve" font-family="MinionPro-It,Minion Pro" font-style="italic" font-size="44.0" fill="#FFFFFF" transform="matrix(1.00, 0.00, -0.00, -1.00, 702.9, 115.9)"> </text><text xml:space="preserve" font-family="MinionPro-It,Minion Pro" font-style="italic" font-size="44.0" fill="#FFFFFF" transform="matrix(1.00, 0.00, -0.00, -1.00, 712.6, 115.9)">m</text><text xml:space="preserve" font-family="MinionPro-It,Minion Pro" font-style="italic" font-size="44.0" fill="#FFFFFF" transform="matrix(1.00, 0.00, -0.00, -1.00, 745.7, 115.9)">y</text><text xml:space="preserve" font-family="MinionPro-It,Minion Pro" font-style="italic" font-size="44.0" fill="#FFFFFF" transform="matrix(1.00, 0.00, -0.00, -1.00, 765.3, 115.9)">t</text><text xml:space="preserve" font-family="MinionPro-It,Minion Pro" font-style="italic" font-size="44.0" fill="#FFFFFF" transform="matrix(1.00, 0.00, -0.00, -1.00, 778.0, 115.9)">h</text><text xml:space="preserve" font-family="FuturaPT-Book,Futura PT" font-size="30.0" fill="#000000" transform="matrix(1.00, 0.00, -0.00, -1.00, 1056.5, 277.1)">L</text><text xml:space="preserve" font-family="FuturaPT-Book,Futura PT" font-size="30.0" fill="#000000" transform="matrix(1.00, 0.00, -0.00, -1.00, 1067.0, 277.1)">i</text><text xml:space="preserve" font-family="FuturaPT-Book,Futura PT" font-size="30.0" fill="#000000" transform="matrix(1.00, 0.00, -0.00, -1.00, 1072.9, 277.1)">n</text><text xml:space="preserve" font-family="FuturaPT-Book,Futura PT" font-size="30.0" fill="#000000" transform="matrix(1.00, 0.00, -0.00, -1.00, 1086.7, 277.1)">u</text><text xml:space="preserve" font-family="FuturaPT-Book,Futura PT" font-size="30.0" fill="#000000" transform="matrix(1.00, 0.00, -0.00, -1.00, 1100.4, 277.1)">x</text><text xml:space="preserve" font-family="FuturaPT-Book,Futura PT" font-size="30.0" fill="#61C59F" transform="matrix(1.00, 0.00, -0.00, -1.00, 108.1, 311.4)">h</text><text xml:space="preserve" font-family="FuturaPT-Book,Futura PT" font-size="30.0" fill="#61C59F" transform="matrix(1.00, 0.00, -0.00, -1.00, 121.9, 311.4)">t</text><text xml:space="preserve" font-family="FuturaPT-Book,Futura PT" font-size="30.0" fill="#61C59F" transform="matrix(1.00, 0.00, -0.00, -1.00, 128.6, 311.4)">t</text><text xml:space="preserve" font-family="FuturaPT-Book,Futura PT" font-size="30.0" fill="#61C59F" transform="matrix(1.00, 0.00, -0.00, -1.00, 134.7, 311.4)">p</text><text xml:space="preserve" font-family="FuturaPT-Book,Futura PT" font-size="30.0" fill="#61C59F" transform="matrix(1.00, 0.00, -0.00, -1.00, 150.2, 311.4)">:</text><text xml:space="preserve" font-family="FuturaPT-Book,Futura PT" font-size="30.0" fill="#61C59F" transform="matrix(1.00, 0.00, -0.00, -1.00, 156.8, 311.4)">/</text><text xml:space="preserve" font-family="FuturaPT-Book,Futura PT" font-size="30.0" fill="#61C59F" transform="matrix(1.00, 0.00, -0.00, -1.00, 174.2, 311.4)">/</text><text xml:space="preserve" font-family="FuturaPT-Book,Futura PT" font-size="30.0" fill="#61C59F" transform="matrix(1.00, 0.00, -0.00, -1.00, 191.7, 311.4)">g</text><text xml:space="preserve" font-family="FuturaPT-Book,Futura PT" font-size="30.0" fill="#61C59F" transform="matrix(1.00, 0.00, -0.00, -1.00, 207.2, 311.4)">i</text><text xml:space="preserve" font-family="FuturaPT-Book,Futura PT" font-size="30.0" fill="#61C59F" transform="matrix(1.00, 0.00, -0.00, -1.00, 213.1, 311.4)">t</text><text xml:space="preserve" font-family="FuturaPT-Book,Futura PT" font-size="30.0" fill="#61C59F" transform="matrix(1.00, 0.00, -0.00, -1.00, 219.2, 311.4)">-</text><text xml:space="preserve" font-family="FuturaPT-Book,Futura PT" font-size="30.0" fill="#61C59F" transform="matrix(1.00, 0.00, -0.00, -1.00, 228.5, 311.4)">s</text><text xml:space="preserve" font-family="FuturaPT-Book,Futura PT" font-size="30.0" fill="#61C59F" transform="matrix(1.00, 0.00, -0.00, -1.00, 238.8, 311.4)">c</text><text xml:space="preserve" font-family="FuturaPT-Book,Futura PT" font-size="30.0" fill="#61C59F" transform="matrix(1.00, 0.00, -0.00, -1.00, 251.6, 311.4)">m</text><text xml:space="preserve" font-family="FuturaPT-Book,Futura PT" font-size="30.0" fill="#61C59F" transform="matrix(1.00, 0.00, -0.00, -1.00, 271.9, 311.4)">.</text><text xml:space="preserve" font-family="FuturaPT-Book,Futura PT" font-size="30.0" fill="#61C59F" transform="matrix(1.00, 0.00, -0.00, -1.00, 278.4, 311.4)">c</text><text xml:space="preserve" font-family="FuturaPT-Book,Futura PT" font-size="30.0" fill="#61C59F" transform="matrix(1.00, 0.00, -0.00, -1.00, 291.3, 311.4)">o</text><text xml:space="preserve" font-family="FuturaPT-Book,Futura PT" font-size="30.0" fill="#61C59F" transform="matrix(1.00, 0.00, -0.00, -1.00, 306.7, 311.4)">m</text><text xml:space="preserve" font-family="FuturaPT-Book,Futura PT" font-size="30.0" fill="#61C59F" transform="matrix(1.00, 0.00, -0.00, -1.00, 326.9, 311.4)">/</text><g><clipPath id="clip0x7fe1475df2e0"><path d="M 107.1 304.8 L 344.4 304.8 L 344.4 309.0 L 107.1 309.0 Z M 107.1 304.8 "></path></clipPath><g clip-path="url(#clip0x7fe1475df2e0)"><path d="M 22.0 37.5 L 258.3 37.5 " fill="none" stroke="#61C59F" stroke-width="2.16" transform="matrix(1.00, 0.00, 0.00, -1.00, 86.1, 344.4)"></path></g></g></g></svg>