<?xml version="1.0" encoding="UTF-8" standalone="no"?><svg xmlns="http://www.w3.org/2000/svg" xmlns:xlink="http://www.w3.org/1999/xlink" clip-rule="evenodd" stroke-miterlimit="10" viewBox="0 0 1280 800"><desc>SVG generated by Keynote</desc><defs></defs><g transform="matrix(1.00, 0.00, -0.00, -1.00, 0.0, 800.0)"><path d="M 0.0 800.0 L 1280.0 800.0 L 1280.0 0.0 L 0.0 0.0 Z M 0.0 800.0 " fill="#FCFCFC"></path><path d="M 0.0 800.0 L 1280.0 800.0 L 1280.0 764.0 L 0.0 764.0 Z M 0.0 800.0 " fill="#2D2D2D"></path><path d="M 0.0 56.0 L 1280.0 56.0 L 1280.0 0.0 L 0.0 0.0 Z M 0.0 56.0 " fill="#2D2D2D"></path><text xml:space="preserve" font-family="FuturaLT-Book,Futura LT" font-size="24.0" fill="#B5B5B5" transform="matrix(1.00, 0.00, -0.00, -1.00, 927.2, 20.4)">K</text><text xml:space="preserve" font-family="FuturaLT-Book,Futura LT" font-size="24.0" fill="#B5B5B5" transform="matrix(1.00, 0.00, -0.00, -1.00, 941.6, 20.4)">e</text><text xml:space="preserve" font-family="FuturaLT-Book,Futura LT" font-size="24.0" fill="#B5B5B5" transform="matrix(1.00, 0.00, -0.00, -1.00, 953.8, 20.4)">v</text><text xml:space="preserve" font-family="FuturaLT-Book,Futura LT" font-size="24.0" fill="#B5B5B5" transform="matrix(1.00, 0.00, -0.00, -1.00, 964.7, 20.4)">i</text><text xml:space="preserve" font-family="FuturaLT-Book,Futura LT" font-size="24.0" fill="#B5B5B5" transform="matrix(1.00, 0.00, -0.00, -1.00, 970.7, 20.4)">n</text><text xml:space="preserve" font-family="FuturaLT-Book,Futura LT" font-size="24.0" fill="#B5B5B5" transform="matrix(1.00, 0.00, -0.00, -1.00, 983.2, 20.4)"> </text><text xml:space="preserve" font-family="FuturaLT-Book,Futura LT" font-size="24.0" fill="#B5B5B5" transform="matrix(1.00, 0.00, -0.00, -1.00, 990.3, 20.4)">Y</text><text xml:space="preserve" font-family="FuturaLT-Book,Futura LT" font-size="24.0" fill="#B5B5B5" transform="matrix(1.00, 0.00, -0.00, -1.00, 1002.4, 20.4)">u</text><text xml:space="preserve" font-family="FuturaLT-Book,Futura LT" font-size="24.0" fill="#B5B5B5" transform="matrix(1.00, 0.00, -0.00, -1.00, 1014.4, 20.4)">n</text><text xml:space="preserve" font-family="FuturaLT-Book,Futura LT" font-size="24.0" fill="#B5B5B5" transform="matrix(1.00, 0.00, -0.00, -1.00, 1026.9, 20.4)">,</text><text xml:space="preserve" font-family="FuturaLT-Book,Futura LT" font-size="24.0" fill="#B5B5B5" transform="matrix(1.00, 0.00, -0.00, -1.00, 1034.0, 20.4)"> </text><text xml:space="preserve" font-family="FuturaLT-Book,Futura LT" font-size="24.0" fill="#B5B5B5" transform="matrix(1.00, 0.00, -0.00, -1.00, 1041.2, 20.4)">@</text><text xml:space="preserve" font-family="FuturaLT-Book,Futura LT" font-size="24.0" fill="#B5B5B5" transform="matrix(1.00, 0.00, -0.00, -1.00, 1060.1, 20.4)">k</text><text xml:space="preserve" font-family="FuturaLT-Book,Futura LT" font-size="24.0" fill="#B5B5B5" transform="matrix(1.00, 0.00, -0.00, -1.00, 1071.2, 20.4)">e</text><text xml:space="preserve" font-family="FuturaLT-Book,Futura LT" font-size="24.0" fill="#B5B5B5" transform="matrix(1.00, 0.00, -0.00, -1.00, 1083.4, 20.4)">v</text><text xml:space="preserve" font-family="FuturaLT-Book,Futura LT" font-size="24.0" fill="#B5B5B5" transform="matrix(1.00, 0.00, -0.00, -1.00, 1094.3, 20.4)">i</text><text xml:space="preserve" font-family="FuturaLT-Book,Futura LT" font-size="24.0" fill="#B5B5B5" transform="matrix(1.00, 0.00, -0.00, -1.00, 1100.3, 20.4)">n</text><text xml:space="preserve" font-family="FuturaLT-Book,Futura LT" font-size="24.0" fill="#B5B5B5" transform="matrix(1.00, 0.00, -0.00, -1.00, 1112.7, 20.4)">s</text><text xml:space="preserve" font-family="FuturaLT-Book,Futura LT" font-size="24.0" fill="#B5B5B5" transform="matrix(1.00, 0.00, -0.00, -1.00, 1122.1, 20.4)">y</text><text xml:space="preserve" font-family="FuturaLT-Book,Futura LT" font-size="24.0" fill="#B5B5B5" transform="matrix(1.00, 0.00, -0.00, -1.00, 1133.8, 20.4)">u</text><text xml:space="preserve" font-family="FuturaLT-Book,Futura LT" font-size="24.0" fill="#B5B5B5" transform="matrix(1.00, 0.00, -0.00, -1.00, 1145.8, 20.4)">n</text><g><clipPath id="clip0x7fe147ac3bf0"><path d="M 1167.0 45.0 L 1209.0 45.0 L 1209.0 11.0 L 1167.0 11.0 Z M 1166.9 45.2 "></path></clipPath><g clip-path="url(#clip0x7fe147ac3bf0)"><image xlink:href="../../A9B4A605-238E-4E05-8F10-8BFA5952B821/assets/C77DCD3790C3F0B3E066644871480D19.png" width="400.00" height="328.00" transform="matrix(0.10, 0.00, -0.00, -0.10, 1166.9, 45.2)"></image></g></g><image xlink:href="../../A9B4A605-238E-4E05-8F10-8BFA5952B821/assets/FAD6F78933DA75A50BC84521C83A2ED1.png" width="768.00" height="109.00" transform="matrix(0.26, 0.00, -0.00, -0.26, 133.6, 45.4)"></image><image xlink:href="../../A9B4A605-238E-4E05-8F10-8BFA5952B821/assets/1BB4E873FACCA81805DB57C2B755465B.png" width="436.00" height="244.00" transform="matrix(0.11, 0.00, -0.00, -0.11, 75.3, 43.1)"></image><text xml:space="preserve" font-family="FuturaPT-Heavy,Futura PT" font-weight="bold" font-size="96.0" fill="#206288" transform="matrix(1.00, 0.00, -0.00, -1.00, 301.3, 480.6)">W</text><text xml:space="preserve" font-family="FuturaPT-Heavy,Futura PT" font-weight="bold" font-size="96.0" fill="#206288" transform="matrix(1.00, 0.00, -0.00, -1.00, 393.1, 480.6)">h</text><text xml:space="preserve" font-family="FuturaPT-Heavy,Futura PT" font-weight="bold" font-size="96.0" fill="#206288" transform="matrix(1.00, 0.00, -0.00, -1.00, 445.1, 480.6)">a</text><text xml:space="preserve" font-family="FuturaPT-Heavy,Futura PT" font-weight="bold" font-size="96.0" fill="#206288" transform="matrix(1.00, 0.00, -0.00, -1.00, 501.5, 480.6)">t</text><text xml:space="preserve" font-family="FuturaPT-Heavy,Futura PT" font-weight="bold" font-size="96.0" fill="#206288" transform="matrix(1.00, 0.00, -0.00, -1.00, 529.3, 480.6)"> </text><text xml:space="preserve" font-family="FuturaPT-Heavy,Futura PT" font-weight="bold" font-size="96.0" fill="#206288" transform="matrix(1.00, 0.00, -0.00, -1.00, 550.7, 480.6)">i</text><text xml:space="preserve" font-family="FuturaPT-Heavy,Futura PT" font-weight="bold" font-size="96.0" fill="#206288" transform="matrix(1.00, 0.00, -0.00, -1.00, 576.2, 480.6)">s</text><text xml:space="preserve" font-family="FuturaPT-Heavy,Futura PT" font-weight="bold" font-size="96.0" fill="#206288" transform="matrix(1.00, 0.00, -0.00, -1.00, 616.9, 480.6)"> </text><text xml:space="preserve" font-family="FuturaPT-Heavy,Futura PT" font-weight="bold" font-size="96.0" fill="#206288" transform="matrix(1.00, 0.00, -0.00, -1.00, 638.3, 480.6)">C</text><text xml:space="preserve" font-family="FuturaPT-Heavy,Futura PT" font-weight="bold" font-size="96.0" fill="#206288" transform="matrix(1.00, 0.00, -0.00, -1.00, 695.4, 480.6)">L</text><text xml:space="preserve" font-family="FuturaPT-Heavy,Futura PT" font-weight="bold" font-size="96.0" fill="#206288" transform="matrix(1.00, 0.00, -0.00, -1.00, 737.5, 480.6)">I</text><text xml:space="preserve" font-family="FuturaPT-Heavy,Futura PT" font-weight="bold" font-size="96.0" fill="#206288" transform="matrix(1.00, 0.00, -0.00, -1.00, 765.9, 480.6)">,</text><text xml:space="preserve" font-family="FuturaPT-Heavy,Futura PT" font-weight="bold" font-size="96.0" fill="#206288" transform="matrix(1.00, 0.00, -0.00, -1.00, 798.6, 480.6)"> </text><text xml:space="preserve" font-family="FuturaPT-Heavy,Futura PT" font-weight="bold" font-size="96.0" fill="#206288" transform="matrix(1.00, 0.00, -0.00, -1.00, 820.0, 480.6)">G</text><text xml:space="preserve" font-family="FuturaPT-Heavy,Futura PT" font-weight="bold" font-size="96.0" fill="#206288" transform="matrix(1.00, 0.00, -0.00, -1.00, 892.7, 480.6)">i</text><text xml:space="preserve" font-family="FuturaPT-Heavy,Futura PT" font-weight="bold" font-size="96.0" fill="#206288" transform="matrix(1.00, 0.00, -0.00, -1.00, 918.3, 480.6)">t</text><text xml:space="preserve" font-family="FuturaPT-Heavy,Futura PT" font-weight="bold" font-size="96.0" fill="#206288" transform="matrix(1.00, 0.00, -0.00, -1.00, 946.0, 480.6)">,</text><text xml:space="preserve" font-family="FuturaPT-Heavy,Futura PT" font-weight="bold" font-size="96.0" fill="#206288" transform="matrix(1.00, 0.00, -0.00, -1.00, 978.7, 480.6)"> </text><text xml:space="preserve" font-family="FuturaPT-Heavy,Futura PT" font-weight="bold" font-size="96.0" fill="#206288" transform="matrix(1.00, 0.00, -0.00, -1.00, 1000.1, 480.6)"> </text><text xml:space="preserve" font-family="FuturaPT-Heavy,Futura PT" font-weight="bold" font-size="96.0" fill="#206288" transform="matrix(1.00, 0.00, -0.00, -1.00, 368.8, 357.6)">a</text><text xml:space="preserve" font-family="FuturaPT-Heavy,Futura PT" font-weight="bold" font-size="96.0" fill="#206288" transform="matrix(1.00, 0.00, -0.00, -1.00, 425.3, 357.6)">n</text><text xml:space="preserve" font-family="FuturaPT-Heavy,Futura PT" font-weight="bold" font-size="96.0" fill="#206288" transform="matrix(1.00, 0.00, -0.00, -1.00, 478.8, 357.6)">d</text><text xml:space="preserve" font-family="FuturaPT-Heavy,Futura PT" font-weight="bold" font-size="96.0" fill="#206288" transform="matrix(1.00, 0.00, -0.00, -1.00, 535.6, 357.6)"> </text><text xml:space="preserve" font-family="FuturaPT-Heavy,Futura PT" font-weight="bold" font-size="96.0" fill="#206288" transform="matrix(1.00, 0.00, -0.00, -1.00, 557.0, 357.6)">G</text><text xml:space="preserve" font-family="FuturaPT-Heavy,Futura PT" font-weight="bold" font-size="96.0" fill="#206288" transform="matrix(1.00, 0.00, -0.00, -1.00, 629.7, 357.6)">i</text><text xml:space="preserve" font-family="FuturaPT-Heavy,Futura PT" font-weight="bold" font-size="96.0" fill="#206288" transform="matrix(1.00, 0.00, -0.00, -1.00, 655.2, 357.6)">t</text><text xml:space="preserve" font-family="FuturaPT-Heavy,Futura PT" font-weight="bold" font-size="96.0" fill="#206288" transform="matrix(1.00, 0.00, -0.00, -1.00, 683.0, 357.6)">H</text><text xml:space="preserve" font-family="FuturaPT-Heavy,Futura PT" font-weight="bold" font-size="96.0" fill="#206288" transform="matrix(1.00, 0.00, -0.00, -1.00, 751.1, 357.6)">u</text><text xml:space="preserve" font-family="FuturaPT-Heavy,Futura PT" font-weight="bold" font-size="96.0" fill="#206288" transform="matrix(1.00, 0.00, -0.00, -1.00, 804.9, 357.6)">b</text><text xml:space="preserve" font-family="FuturaPT-Heavy,Futura PT" font-weight="bold" font-size="96.0" fill="#206288" transform="matrix(1.00, 0.00, -0.00, -1.00, 861.7, 357.6)">?</text><text xml:space="preserve" font-family="FuturaPT-Heavy,Futura PT" font-weight="bold" font-size="96.0" fill="#206288" transform="matrix(1.00, 0.00, -0.00, -1.00, 911.2, 357.6)"> </text><text xml:space="preserve" font-family="FuturaPT-Book,Futura PT" font-size="50.0" fill="#206288" transform="matrix(1.00, 0.00, -0.00, -1.00, 280.3, 279.8)">L</text><text xml:space="preserve" font-family="FuturaPT-Book,Futura PT" font-size="50.0" fill="#206288" transform="matrix(1.00, 0.00, -0.00, -1.00, 297.7, 279.8)">e</text><text xml:space="preserve" font-family="FuturaPT-Book,Futura PT" font-size="50.0" fill="#206288" transform="matrix(1.00, 0.00, -0.00, -1.00, 321.3, 279.8)">t</text><text xml:space="preserve" font-family="FuturaPT-Book,Futura PT" font-size="50.0" fill="#206288" transform="matrix(1.00, 0.00, -0.00, -1.00, 331.5, 279.8)">’</text><text xml:space="preserve" font-family="FuturaPT-Book,Futura PT" font-size="50.0" fill="#206288" transform="matrix(1.00, 0.00, -0.00, -1.00, 342.1, 279.8)">s</text><text xml:space="preserve" font-family="FuturaPT-Book,Futura PT" font-size="50.0" fill="#206288" transform="matrix(1.00, 0.00, -0.00, -1.00, 359.2, 279.8)"> </text><text xml:space="preserve" font-family="FuturaPT-Book,Futura PT" font-size="50.0" fill="#206288" transform="matrix(1.00, 0.00, -0.00, -1.00, 370.3, 279.8)">l</text><text xml:space="preserve" font-family="FuturaPT-Book,Futura PT" font-size="50.0" fill="#206288" transform="matrix(1.00, 0.00, -0.00, -1.00, 380.2, 279.8)">o</text><text xml:space="preserve" font-family="FuturaPT-Book,Futura PT" font-size="50.0" fill="#206288" transform="matrix(1.00, 0.00, -0.00, -1.00, 405.9, 279.8)">o</text><text xml:space="preserve" font-family="FuturaPT-Book,Futura PT" font-size="50.0" fill="#206288" transform="matrix(1.00, 0.00, -0.00, -1.00, 431.6, 279.8)">k</text><text xml:space="preserve" font-family="FuturaPT-Book,Futura PT" font-size="50.0" fill="#206288" transform="matrix(1.00, 0.00, -0.00, -1.00, 452.2, 279.8)"> </text><text xml:space="preserve" font-family="FuturaPT-Book,Futura PT" font-size="50.0" fill="#206288" transform="matrix(1.00, 0.00, -0.00, -1.00, 463.4, 279.8)">a</text><text xml:space="preserve" font-family="FuturaPT-Book,Futura PT" font-size="50.0" fill="#206288" transform="matrix(1.00, 0.00, -0.00, -1.00, 489.2, 279.8)">t</text><text xml:space="preserve" font-family="FuturaPT-Book,Futura PT" font-size="50.0" fill="#206288" transform="matrix(1.00, 0.00, -0.00, -1.00, 499.4, 279.8)"> </text><text xml:space="preserve" font-family="FuturaPT-Book,Futura PT" font-size="50.0" fill="#206288" transform="matrix(1.00, 0.00, -0.00, -1.00, 510.5, 279.8)">s</text><text xml:space="preserve" font-family="FuturaPT-Book,Futura PT" font-size="50.0" fill="#206288" transform="matrix(1.00, 0.00, -0.00, -1.00, 527.6, 279.8)">o</text><text xml:space="preserve" font-family="FuturaPT-Book,Futura PT" font-size="50.0" fill="#206288" transform="matrix(1.00, 0.00, -0.00, -1.00, 553.3, 279.8)">m</text><text xml:space="preserve" font-family="FuturaPT-Book,Futura PT" font-size="50.0" fill="#206288" transform="matrix(1.00, 0.00, -0.00, -1.00, 587.1, 279.8)">e</text><text xml:space="preserve" font-family="FuturaPT-Book,Futura PT" font-size="50.0" fill="#206288" transform="matrix(1.00, 0.00, -0.00, -1.00, 610.6, 279.8)"> </text><text xml:space="preserve" font-family="FuturaPT-Book,Futura PT" font-size="50.0" fill="#206288" transform="matrix(1.00, 0.00, -0.00, -1.00, 621.8, 279.8)">d</text><text xml:space="preserve" font-family="FuturaPT-Book,Futura PT" font-size="50.0" fill="#206288" transform="matrix(1.00, 0.00, -0.00, -1.00, 647.6, 279.8)">e</text><text xml:space="preserve" font-family="FuturaPT-Book,Futura PT" font-size="50.0" fill="#206288" transform="matrix(1.00, 0.00, -0.00, -1.00, 671.1, 279.8)">f</text><text xml:space="preserve" font-family="FuturaPT-Book,Futura PT" font-size="50.0" fill="#206288" transform="matrix(1.00, 0.00, -0.00, -1.00, 682.6, 279.8)">i</text><text xml:space="preserve" font-family="FuturaPT-Book,Futura PT" font-size="50.0" fill="#206288" transform="matrix(1.00, 0.00, -0.00, -1.00, 692.5, 279.8)">n</text><text xml:space="preserve" font-family="FuturaPT-Book,Futura PT" font-size="50.0" fill="#206288" transform="matrix(1.00, 0.00, -0.00, -1.00, 715.5, 279.8)">i</text><text xml:space="preserve" font-family="FuturaPT-Book,Futura PT" font-size="50.0" fill="#206288" transform="matrix(1.00, 0.00, -0.00, -1.00, 725.4, 279.8)">t</text><text xml:space="preserve" font-family="FuturaPT-Book,Futura PT" font-size="50.0" fill="#206288" transform="matrix(1.00, 0.00, -0.00, -1.00, 735.6, 279.8)">i</text><text xml:space="preserve" font-family="FuturaPT-Book,Futura PT" font-size="50.0" fill="#206288" transform="matrix(1.00, 0.00, -0.00, -1.00, 745.5, 279.8)">o</text><text xml:space="preserve" font-family="FuturaPT-Book,Futura PT" font-size="50.0" fill="#206288" transform="matrix(1.00, 0.00, -0.00, -1.00, 771.2, 279.8)">n</text><text xml:space="preserve" font-family="FuturaPT-Book,Futura PT" font-size="50.0" fill="#206288" transform="matrix(1.00, 0.00, -0.00, -1.00, 794.2, 279.8)">s</text><text xml:space="preserve" font-family="FuturaPT-Book,Futura PT" font-size="50.0" fill="#206288" transform="matrix(1.00, 0.00, -0.00, -1.00, 811.3, 279.8)"> </text><text xml:space="preserve" font-family="FuturaPT-Book,Futura PT" font-size="50.0" fill="#206288" transform="matrix(1.00, 0.00, -0.00, -1.00, 822.5, 279.8)">a</text><text xml:space="preserve" font-family="FuturaPT-Book,Futura PT" font-size="50.0" fill="#206288" transform="matrix(1.00, 0.00, -0.00, -1.00, 848.3, 279.8)">n</text><text xml:space="preserve" font-family="FuturaPT-Book,Futura PT" font-size="50.0" fill="#206288" transform="matrix(1.00, 0.00, -0.00, -1.00, 871.3, 279.8)">d</text><text xml:space="preserve" font-family="FuturaPT-Book,Futura PT" font-size="50.0" fill="#206288" transform="matrix(1.00, 0.00, -0.00, -1.00, 897.1, 279.8)"> </text><text xml:space="preserve" font-family="FuturaPT-Book,Futura PT" font-size="50.0" fill="#206288" transform="matrix(1.00, 0.00, -0.00, -1.00, 908.2, 279.8)">u</text><text xml:space="preserve" font-family="FuturaPT-Book,Futura PT" font-size="50.0" fill="#206288" transform="matrix(1.00, 0.00, -0.00, -1.00, 931.0, 279.8)">s</text><text xml:space="preserve" font-family="FuturaPT-Book,Futura PT" font-size="50.0" fill="#206288" transform="matrix(1.00, 0.00, -0.00, -1.00, 948.1, 279.8)">e</text><text xml:space="preserve" font-family="FuturaPT-Book,Futura PT" font-size="50.0" fill="#206288" transform="matrix(1.00, 0.00, -0.00, -1.00, 971.7, 279.8)">s</text><text xml:space="preserve" font-family="FuturaPT-Book,Futura PT" font-size="50.0" fill="#206288" transform="matrix(1.00, 0.00, -0.00, -1.00, 988.8, 279.8)">.</text></g></svg>