<?xml version="1.0" encoding="UTF-8" standalone="no"?><svg xmlns="http://www.w3.org/2000/svg" xmlns:xlink="http://www.w3.org/1999/xlink" clip-rule="evenodd" stroke-miterlimit="10" viewBox="0 0 719 327"><desc>SVG generated by Keynote</desc><defs></defs><g transform="matrix(1.00, 0.00, -0.00, -1.00, 0.0, 327.0)"><text xml:space="preserve" font-family="FuturaPT-Heavy,Futura PT" font-weight="bold" font-size="96.0" fill="#206288" transform="matrix(1.00, 0.00, -0.00, -1.00, 18.3, 203.6)">W</text><text xml:space="preserve" font-family="FuturaPT-Heavy,Futura PT" font-weight="bold" font-size="96.0" fill="#206288" transform="matrix(1.00, 0.00, -0.00, -1.00, 110.1, 203.6)">h</text><text xml:space="preserve" font-family="FuturaPT-Heavy,Futura PT" font-weight="bold" font-size="96.0" fill="#206288" transform="matrix(1.00, 0.00, -0.00, -1.00, 162.1, 203.6)">a</text><text xml:space="preserve" font-family="FuturaPT-Heavy,Futura PT" font-weight="bold" font-size="96.0" fill="#206288" transform="matrix(1.00, 0.00, -0.00, -1.00, 218.5, 203.6)">t</text><text xml:space="preserve" font-family="FuturaPT-Heavy,Futura PT" font-weight="bold" font-size="96.0" fill="#206288" transform="matrix(1.00, 0.00, -0.00, -1.00, 246.3, 203.6)"> </text><text xml:space="preserve" font-family="FuturaPT-Heavy,Futura PT" font-weight="bold" font-size="96.0" fill="#206288" transform="matrix(1.00, 0.00, -0.00, -1.00, 267.7, 203.6)">i</text><text xml:space="preserve" font-family="FuturaPT-Heavy,Futura PT" font-weight="bold" font-size="96.0" fill="#206288" transform="matrix(1.00, 0.00, -0.00, -1.00, 293.2, 203.6)">s</text><text xml:space="preserve" font-family="FuturaPT-Heavy,Futura PT" font-weight="bold" font-size="96.0" fill="#206288" transform="matrix(1.00, 0.00, -0.00, -1.00, 333.9, 203.6)"> </text><text xml:space="preserve" font-family="FuturaPT-Heavy,Futura PT" font-weight="bold" font-size="96.0" fill="#206288" transform="matrix(1.00, 0.00, -0.00, -1.00, 355.3, 203.6)">C</text><text xml:space="preserve" font-family="FuturaPT-Heavy,Futura PT" font-weight="bold" font-size="96.0" fill="#206288" transform="matrix(1.00, 0.00, -0.00, -1.00, 412.4, 203.6)">L</text><text xml:space="preserve" font-family="FuturaPT-Heavy,Futura PT" font-weight="bold" font-size="96.0" fill="#206288" transform="matrix(1.00, 0.00, -0.00, -1.00, 454.5, 203.6)">I</text><text xml:space="preserve" font-family="FuturaPT-Heavy,Futura PT" font-weight="bold" font-size="96.0" fill="#206288" transform="matrix(1.00, 0.00, -0.00, -1.00, 482.9, 203.6)">,</text><text xml:space="preserve" font-family="FuturaPT-Heavy,Futura PT" font-weight="bold" font-size="96.0" fill="#206288" transform="matrix(1.00, 0.00, -0.00, -1.00, 515.6, 203.6)"> </text><text xml:space="preserve" font-family="FuturaPT-Heavy,Futura PT" font-weight="bold" font-size="96.0" fill="#206288" transform="matrix(1.00, 0.00, -0.00, -1.00, 537.0, 203.6)">G</text><text xml:space="preserve" font-family="FuturaPT-Heavy,Futura PT" font-weight="bold" font-size="96.0" fill="#206288" transform="matrix(1.00, 0.00, -0.00, -1.00, 609.7, 203.6)">i</text><text xml:space="preserve" font-family="FuturaPT-Heavy,Futura PT" font-weight="bold" font-size="96.0" fill="#206288" transform="matrix(1.00, 0.00, -0.00, -1.00, 635.3, 203.6)">t</text><text xml:space="preserve" font-family="FuturaPT-Heavy,Futura PT" font-weight="bold" font-size="96.0" fill="#206288" transform="matrix(1.00, 0.00, -0.00, -1.00, 663.0, 203.6)">,</text><text xml:space="preserve" font-family="FuturaPT-Heavy,Futura PT" font-weight="bold" font-size="96.0" fill="#206288" transform="matrix(1.00, 0.00, -0.00, -1.00, 695.7, 203.6)"> </text><text xml:space="preserve" font-family="FuturaPT-Heavy,Futura PT" font-weight="bold" font-size="96.0" fill="#206288" transform="matrix(1.00, 0.00, -0.00, -1.00, 717.1, 203.6)"> </text><text xml:space="preserve" font-family="FuturaPT-Heavy,Futura PT" font-weight="bold" font-size="96.0" fill="#206288" transform="matrix(1.00, 0.00, -0.00, -1.00, 85.8, 80.6)">a</text><text xml:space="preserve" font-family="FuturaPT-Heavy,Futura PT" font-weight="bold" font-size="96.0" fill="#206288" transform="matrix(1.00, 0.00, -0.00, -1.00, 142.3, 80.6)">n</text><text xml:space="preserve" font-family="FuturaPT-Heavy,Futura PT" font-weight="bold" font-size="96.0" fill="#206288" transform="matrix(1.00, 0.00, -0.00, -1.00, 195.8, 80.6)">d</text><text xml:space="preserve" font-family="FuturaPT-Heavy,Futura PT" font-weight="bold" font-size="96.0" fill="#206288" transform="matrix(1.00, 0.00, -0.00, -1.00, 252.6, 80.6)"> </text><text xml:space="preserve" font-family="FuturaPT-Heavy,Futura PT" font-weight="bold" font-size="96.0" fill="#206288" transform="matrix(1.00, 0.00, -0.00, -1.00, 274.0, 80.6)">G</text><text xml:space="preserve" font-family="FuturaPT-Heavy,Futura PT" font-weight="bold" font-size="96.0" fill="#206288" transform="matrix(1.00, 0.00, -0.00, -1.00, 346.7, 80.6)">i</text><text xml:space="preserve" font-family="FuturaPT-Heavy,Futura PT" font-weight="bold" font-size="96.0" fill="#206288" transform="matrix(1.00, 0.00, -0.00, -1.00, 372.2, 80.6)">t</text><text xml:space="preserve" font-family="FuturaPT-Heavy,Futura PT" font-weight="bold" font-size="96.0" fill="#206288" transform="matrix(1.00, 0.00, -0.00, -1.00, 400.0, 80.6)">H</text><text xml:space="preserve" font-family="FuturaPT-Heavy,Futura PT" font-weight="bold" font-size="96.0" fill="#206288" transform="matrix(1.00, 0.00, -0.00, -1.00, 468.1, 80.6)">u</text><text xml:space="preserve" font-family="FuturaPT-Heavy,Futura PT" font-weight="bold" font-size="96.0" fill="#206288" transform="matrix(1.00, 0.00, -0.00, -1.00, 521.9, 80.6)">b</text><text xml:space="preserve" font-family="FuturaPT-Heavy,Futura PT" font-weight="bold" font-size="96.0" fill="#206288" transform="matrix(1.00, 0.00, -0.00, -1.00, 578.7, 80.6)">?</text><text xml:space="preserve" font-family="FuturaPT-Heavy,Futura PT" font-weight="bold" font-size="96.0" fill="#206288" transform="matrix(1.00, 0.00, -0.00, -1.00, 628.2, 80.6)"> </text><text xml:space="preserve" font-family="FuturaPT-Book,Futura PT" font-size="50.0" fill="#206288" transform="matrix(1.00, 0.00, -0.00, -1.00, -2.7, 2.8)">L</text><text xml:space="preserve" font-family="FuturaPT-Book,Futura PT" font-size="50.0" fill="#206288" transform="matrix(1.00, 0.00, -0.00, -1.00, 14.7, 2.8)">e</text><text xml:space="preserve" font-family="FuturaPT-Book,Futura PT" font-size="50.0" fill="#206288" transform="matrix(1.00, 0.00, -0.00, -1.00, 38.3, 2.8)">t</text><text xml:space="preserve" font-family="FuturaPT-Book,Futura PT" font-size="50.0" fill="#206288" transform="matrix(1.00, 0.00, -0.00, -1.00, 48.5, 2.8)">’</text><text xml:space="preserve" font-family="FuturaPT-Book,Futura PT" font-size="50.0" fill="#206288" transform="matrix(1.00, 0.00, -0.00, -1.00, 59.1, 2.8)">s</text><text xml:space="preserve" font-family="FuturaPT-Book,Futura PT" font-size="50.0" fill="#206288" transform="matrix(1.00, 0.00, -0.00, -1.00, 76.2, 2.8)"> </text><text xml:space="preserve" font-family="FuturaPT-Book,Futura PT" font-size="50.0" fill="#206288" transform="matrix(1.00, 0.00, -0.00, -1.00, 87.3, 2.8)">l</text><text xml:space="preserve" font-family="FuturaPT-Book,Futura PT" font-size="50.0" fill="#206288" transform="matrix(1.00, 0.00, -0.00, -1.00, 97.2, 2.8)">o</text><text xml:space="preserve" font-family="FuturaPT-Book,Futura PT" font-size="50.0" fill="#206288" transform="matrix(1.00, 0.00, -0.00, -1.00, 122.9, 2.8)">o</text><text xml:space="preserve" font-family="FuturaPT-Book,Futura PT" font-size="50.0" fill="#206288" transform="matrix(1.00, 0.00, -0.00, -1.00, 148.6, 2.8)">k</text><text xml:space="preserve" font-family="FuturaPT-Book,Futura PT" font-size="50.0" fill="#206288" transform="matrix(1.00, 0.00, -0.00, -1.00, 169.2, 2.8)"> </text><text xml:space="preserve" font-family="FuturaPT-Book,Futura PT" font-size="50.0" fill="#206288" transform="matrix(1.00, 0.00, -0.00, -1.00, 180.4, 2.8)">a</text><text xml:space="preserve" font-family="FuturaPT-Book,Futura PT" font-size="50.0" fill="#206288" transform="matrix(1.00, 0.00, -0.00, -1.00, 206.2, 2.8)">t</text><text xml:space="preserve" font-family="FuturaPT-Book,Futura PT" font-size="50.0" fill="#206288" transform="matrix(1.00, 0.00, -0.00, -1.00, 216.4, 2.8)"> </text><text xml:space="preserve" font-family="FuturaPT-Book,Futura PT" font-size="50.0" fill="#206288" transform="matrix(1.00, 0.00, -0.00, -1.00, 227.5, 2.8)">s</text><text xml:space="preserve" font-family="FuturaPT-Book,Futura PT" font-size="50.0" fill="#206288" transform="matrix(1.00, 0.00, -0.00, -1.00, 244.6, 2.8)">o</text><text xml:space="preserve" font-family="FuturaPT-Book,Futura PT" font-size="50.0" fill="#206288" transform="matrix(1.00, 0.00, -0.00, -1.00, 270.3, 2.8)">m</text><text xml:space="preserve" font-family="FuturaPT-Book,Futura PT" font-size="50.0" fill="#206288" transform="matrix(1.00, 0.00, -0.00, -1.00, 304.1, 2.8)">e</text><text xml:space="preserve" font-family="FuturaPT-Book,Futura PT" font-size="50.0" fill="#206288" transform="matrix(1.00, 0.00, -0.00, -1.00, 327.6, 2.8)"> </text><text xml:space="preserve" font-family="FuturaPT-Book,Futura PT" font-size="50.0" fill="#206288" transform="matrix(1.00, 0.00, -0.00, -1.00, 338.8, 2.8)">d</text><text xml:space="preserve" font-family="FuturaPT-Book,Futura PT" font-size="50.0" fill="#206288" transform="matrix(1.00, 0.00, -0.00, -1.00, 364.6, 2.8)">e</text><text xml:space="preserve" font-family="FuturaPT-Book,Futura PT" font-size="50.0" fill="#206288" transform="matrix(1.00, 0.00, -0.00, -1.00, 388.1, 2.8)">f</text><text xml:space="preserve" font-family="FuturaPT-Book,Futura PT" font-size="50.0" fill="#206288" transform="matrix(1.00, 0.00, -0.00, -1.00, 399.6, 2.8)">i</text><text xml:space="preserve" font-family="FuturaPT-Book,Futura PT" font-size="50.0" fill="#206288" transform="matrix(1.00, 0.00, -0.00, -1.00, 409.5, 2.8)">n</text><text xml:space="preserve" font-family="FuturaPT-Book,Futura PT" font-size="50.0" fill="#206288" transform="matrix(1.00, 0.00, -0.00, -1.00, 432.5, 2.8)">i</text><text xml:space="preserve" font-family="FuturaPT-Book,Futura PT" font-size="50.0" fill="#206288" transform="matrix(1.00, 0.00, -0.00, -1.00, 442.4, 2.8)">t</text><text xml:space="preserve" font-family="FuturaPT-Book,Futura PT" font-size="50.0" fill="#206288" transform="matrix(1.00, 0.00, -0.00, -1.00, 452.6, 2.8)">i</text><text xml:space="preserve" font-family="FuturaPT-Book,Futura PT" font-size="50.0" fill="#206288" transform="matrix(1.00, 0.00, -0.00, -1.00, 462.5, 2.8)">o</text><text xml:space="preserve" font-family="FuturaPT-Book,Futura PT" font-size="50.0" fill="#206288" transform="matrix(1.00, 0.00, -0.00, -1.00, 488.2, 2.8)">n</text><text xml:space="preserve" font-family="FuturaPT-Book,Futura PT" font-size="50.0" fill="#206288" transform="matrix(1.00, 0.00, -0.00, -1.00, 511.2, 2.8)">s</text><text xml:space="preserve" font-family="FuturaPT-Book,Futura PT" font-size="50.0" fill="#206288" transform="matrix(1.00, 0.00, -0.00, -1.00, 528.3, 2.8)"> </text><text xml:space="preserve" font-family="FuturaPT-Book,Futura PT" font-size="50.0" fill="#206288" transform="matrix(1.00, 0.00, -0.00, -1.00, 539.5, 2.8)">a</text><text xml:space="preserve" font-family="FuturaPT-Book,Futura PT" font-size="50.0" fill="#206288" transform="matrix(1.00, 0.00, -0.00, -1.00, 565.3, 2.8)">n</text><text xml:space="preserve" font-family="FuturaPT-Book,Futura PT" font-size="50.0" fill="#206288" transform="matrix(1.00, 0.00, -0.00, -1.00, 588.3, 2.8)">d</text><text xml:space="preserve" font-family="FuturaPT-Book,Futura PT" font-size="50.0" fill="#206288" transform="matrix(1.00, 0.00, -0.00, -1.00, 614.1, 2.8)"> </text><text xml:space="preserve" font-family="FuturaPT-Book,Futura PT" font-size="50.0" fill="#206288" transform="matrix(1.00, 0.00, -0.00, -1.00, 625.2, 2.8)">u</text><text xml:space="preserve" font-family="FuturaPT-Book,Futura PT" font-size="50.0" fill="#206288" transform="matrix(1.00, 0.00, -0.00, -1.00, 648.0, 2.8)">s</text><text xml:space="preserve" font-family="FuturaPT-Book,Futura PT" font-size="50.0" fill="#206288" transform="matrix(1.00, 0.00, -0.00, -1.00, 665.1, 2.8)">e</text><text xml:space="preserve" font-family="FuturaPT-Book,Futura PT" font-size="50.0" fill="#206288" transform="matrix(1.00, 0.00, -0.00, -1.00, 688.7, 2.8)">s</text><text xml:space="preserve" font-family="FuturaPT-Book,Futura PT" font-size="50.0" fill="#206288" transform="matrix(1.00, 0.00, -0.00, -1.00, 705.8, 2.8)">.</text></g></svg>