<?xml version="1.0" encoding="UTF-8" standalone="no"?><svg xmlns="http://www.w3.org/2000/svg" xmlns:xlink="http://www.w3.org/1999/xlink" clip-rule="evenodd" stroke-miterlimit="10" viewBox="0 0 759 107"><desc>SVG generated by Keynote</desc><defs></defs><g transform="matrix(1.00, 0.00, -0.00, -1.00, 0.0, 107.0)"><text xml:space="preserve" font-family="FuturaPT-Book,Futura PT" font-size="48.0" fill="#FCFCFC" transform="matrix(1.00, 0.00, -0.00, -1.00, -1.6, 69.6)">U</text><text xml:space="preserve" font-family="FuturaPT-Book,Futura PT" font-size="48.0" fill="#FCFCFC" transform="matrix(1.00, 0.00, -0.00, -1.00, 27.0, 69.6)">S</text><text xml:space="preserve" font-family="FuturaPT-Book,Futura PT" font-size="48.0" fill="#FCFCFC" transform="matrix(1.00, 0.00, -0.00, -1.00, 49.4, 69.6)">I</text><text xml:space="preserve" font-family="FuturaPT-Book,Futura PT" font-size="48.0" fill="#FCFCFC" transform="matrix(1.00, 0.00, -0.00, -1.00, 58.8, 69.6)">N</text><text xml:space="preserve" font-family="FuturaPT-Book,Futura PT" font-size="48.0" fill="#FCFCFC" transform="matrix(1.00, 0.00, -0.00, -1.00, 93.2, 69.6)">G</text><text xml:space="preserve" font-family="FuturaPT-Book,Futura PT" font-size="48.0" fill="#FCFCFC" transform="matrix(1.00, 0.00, -0.00, -1.00, 127.2, 69.6)"> </text><text xml:space="preserve" font-family="FuturaPT-Book,Futura PT" font-size="48.0" fill="#FCFCFC" transform="matrix(1.00, 0.00, -0.00, -1.00, 136.0, 69.6)">C</text><text xml:space="preserve" font-family="FuturaPT-Book,Futura PT" font-size="48.0" fill="#FCFCFC" transform="matrix(1.00, 0.00, -0.00, -1.00, 164.6, 69.6)">O</text><text xml:space="preserve" font-family="FuturaPT-Book,Futura PT" font-size="48.0" fill="#FCFCFC" transform="matrix(1.00, 0.00, -0.00, -1.00, 200.3, 69.6)">M</text><text xml:space="preserve" font-family="FuturaPT-Book,Futura PT" font-size="48.0" fill="#FCFCFC" transform="matrix(1.00, 0.00, -0.00, -1.00, 239.3, 69.6)">M</text><text xml:space="preserve" font-family="FuturaPT-Book,Futura PT" font-size="48.0" fill="#FCFCFC" transform="matrix(1.00, 0.00, -0.00, -1.00, 278.4, 69.6)">A</text><text xml:space="preserve" font-family="FuturaPT-Book,Futura PT" font-size="48.0" fill="#FCFCFC" transform="matrix(1.00, 0.00, -0.00, -1.00, 305.8, 69.6)">N</text><text xml:space="preserve" font-family="FuturaPT-Book,Futura PT" font-size="48.0" fill="#FCFCFC" transform="matrix(1.00, 0.00, -0.00, -1.00, 340.2, 69.6)">D</text><text xml:space="preserve" font-family="FuturaPT-Book,Futura PT" font-size="48.0" fill="#FCFCFC" transform="matrix(1.00, 0.00, -0.00, -1.00, 368.1, 69.6)"> </text><text xml:space="preserve" font-family="FuturaPT-Book,Futura PT" font-size="48.0" fill="#FCFCFC" transform="matrix(1.00, 0.00, -0.00, -1.00, 376.9, 69.6)">L</text><text xml:space="preserve" font-family="FuturaPT-Book,Futura PT" font-size="48.0" fill="#FCFCFC" transform="matrix(1.00, 0.00, -0.00, -1.00, 391.7, 69.6)">I</text><text xml:space="preserve" font-family="FuturaPT-Book,Futura PT" font-size="48.0" fill="#FCFCFC" transform="matrix(1.00, 0.00, -0.00, -1.00, 401.1, 69.6)">N</text><text xml:space="preserve" font-family="FuturaPT-Book,Futura PT" font-size="48.0" fill="#FCFCFC" transform="matrix(1.00, 0.00, -0.00, -1.00, 435.5, 69.6)">E</text><text xml:space="preserve" font-family="FuturaPT-Book,Futura PT" font-size="48.0" fill="#FCFCFC" transform="matrix(1.00, 0.00, -0.00, -1.00, 456.2, 69.6)"> </text><text xml:space="preserve" font-family="FuturaPT-Book,Futura PT" font-size="48.0" fill="#FCFCFC" transform="matrix(1.00, 0.00, -0.00, -1.00, 465.0, 69.6)">I</text><text xml:space="preserve" font-family="FuturaPT-Book,Futura PT" font-size="48.0" fill="#FCFCFC" transform="matrix(1.00, 0.00, -0.00, -1.00, 474.4, 69.6)">N</text><text xml:space="preserve" font-family="FuturaPT-Book,Futura PT" font-size="48.0" fill="#FCFCFC" transform="matrix(1.00, 0.00, -0.00, -1.00, 508.8, 69.6)">T</text><text xml:space="preserve" font-family="FuturaPT-Book,Futura PT" font-size="48.0" fill="#FCFCFC" transform="matrix(1.00, 0.00, -0.00, -1.00, 526.8, 69.6)">E</text><text xml:space="preserve" font-family="FuturaPT-Book,Futura PT" font-size="48.0" fill="#FCFCFC" transform="matrix(1.00, 0.00, -0.00, -1.00, 547.5, 69.6)">R</text><text xml:space="preserve" font-family="FuturaPT-Book,Futura PT" font-size="48.0" fill="#FCFCFC" transform="matrix(1.00, 0.00, -0.00, -1.00, 569.2, 69.6)">F</text><text xml:space="preserve" font-family="FuturaPT-Book,Futura PT" font-size="48.0" fill="#FCFCFC" transform="matrix(1.00, 0.00, -0.00, -1.00, 586.1, 69.6)">A</text><text xml:space="preserve" font-family="FuturaPT-Book,Futura PT" font-size="48.0" fill="#FCFCFC" transform="matrix(1.00, 0.00, -0.00, -1.00, 612.5, 69.6)">C</text><text xml:space="preserve" font-family="FuturaPT-Book,Futura PT" font-size="48.0" fill="#FCFCFC" transform="matrix(1.00, 0.00, -0.00, -1.00, 641.1, 69.6)">E</text><text xml:space="preserve" font-family="FuturaPT-Book,Futura PT" font-size="48.0" fill="#FCFCFC" transform="matrix(1.00, 0.00, -0.00, -1.00, 661.9, 69.6)"> </text><text xml:space="preserve" font-family="FuturaPT-Book,Futura PT" font-size="48.0" fill="#FCFCFC" transform="matrix(1.00, 0.00, -0.00, -1.00, 670.7, 69.6)">(</text><text xml:space="preserve" font-family="FuturaPT-Book,Futura PT" font-size="48.0" fill="#FCFCFC" transform="matrix(1.00, 0.00, -0.00, -1.00, 682.4, 69.6)">C</text><text xml:space="preserve" font-family="FuturaPT-Book,Futura PT" font-size="48.0" fill="#FCFCFC" transform="matrix(1.00, 0.00, -0.00, -1.00, 711.0, 69.6)">L</text><text xml:space="preserve" font-family="FuturaPT-Book,Futura PT" font-size="48.0" fill="#FCFCFC" transform="matrix(1.00, 0.00, -0.00, -1.00, 725.8, 69.6)">I</text><text xml:space="preserve" font-family="FuturaPT-Book,Futura PT" font-size="48.0" fill="#FCFCFC" transform="matrix(1.00, 0.00, -0.00, -1.00, 735.2, 69.6)">)</text><text xml:space="preserve" font-family="FuturaPT-Book,Futura PT" font-size="48.0" fill="#FCFCFC" transform="matrix(1.00, 0.00, -0.00, -1.00, 746.9, 69.6)">,</text><text xml:space="preserve" font-family="FuturaPT-Book,Futura PT" font-size="48.0" fill="#FCFCFC" transform="matrix(1.00, 0.00, -0.00, -1.00, 757.6, 69.6)"> </text><text xml:space="preserve" font-family="FuturaPT-Book,Futura PT" font-size="48.0" fill="#FCFCFC" transform="matrix(1.00, 0.00, -0.00, -1.00, 249.6, 8.6)">G</text><text xml:space="preserve" font-family="FuturaPT-Book,Futura PT" font-size="48.0" fill="#FCFCFC" transform="matrix(1.00, 0.00, -0.00, -1.00, 283.6, 8.6)">I</text><text xml:space="preserve" font-family="FuturaPT-Book,Futura PT" font-size="48.0" fill="#FCFCFC" transform="matrix(1.00, 0.00, -0.00, -1.00, 293.0, 8.6)">T</text><text xml:space="preserve" font-family="FuturaPT-Book,Futura PT" font-size="48.0" fill="#FCFCFC" transform="matrix(1.00, 0.00, -0.00, -1.00, 307.5, 8.6)">,</text><text xml:space="preserve" font-family="FuturaPT-Book,Futura PT" font-size="48.0" fill="#FCFCFC" transform="matrix(1.00, 0.00, -0.00, -1.00, 318.2, 8.6)"> </text><text xml:space="preserve" font-family="FuturaPT-Book,Futura PT" font-size="48.0" fill="#FCFCFC" transform="matrix(1.00, 0.00, -0.00, -1.00, 327.0, 8.6)">&amp;</text><text xml:space="preserve" font-family="FuturaPT-Book,Futura PT" font-size="48.0" fill="#FCFCFC" transform="matrix(1.00, 0.00, -0.00, -1.00, 355.1, 8.6)"> </text><text xml:space="preserve" font-family="FuturaPT-Book,Futura PT" font-size="48.0" fill="#FCFCFC" transform="matrix(1.00, 0.00, -0.00, -1.00, 363.9, 8.6)">G</text><text xml:space="preserve" font-family="FuturaPT-Book,Futura PT" font-size="48.0" fill="#FCFCFC" transform="matrix(1.00, 0.00, -0.00, -1.00, 397.9, 8.6)">I</text><text xml:space="preserve" font-family="FuturaPT-Book,Futura PT" font-size="48.0" fill="#FCFCFC" transform="matrix(1.00, 0.00, -0.00, -1.00, 407.3, 8.6)">T</text><text xml:space="preserve" font-family="FuturaPT-Book,Futura PT" font-size="48.0" fill="#FCFCFC" transform="matrix(1.00, 0.00, -0.00, -1.00, 425.4, 8.6)">H</text><text xml:space="preserve" font-family="FuturaPT-Book,Futura PT" font-size="48.0" fill="#FCFCFC" transform="matrix(1.00, 0.00, -0.00, -1.00, 454.7, 8.6)">U</text><text xml:space="preserve" font-family="FuturaPT-Book,Futura PT" font-size="48.0" fill="#FCFCFC" transform="matrix(1.00, 0.00, -0.00, -1.00, 483.3, 8.6)">B</text></g></svg>