<?xml version="1.0" encoding="UTF-8" standalone="no"?><svg xmlns="http://www.w3.org/2000/svg" xmlns:xlink="http://www.w3.org/1999/xlink" clip-rule="evenodd" stroke-miterlimit="10" viewBox="0 0 1280 800"><desc>SVG generated by Keynote</desc><defs></defs><g transform="matrix(1.00, 0.00, -0.00, -1.00, 0.0, 800.0)"><path d="M 0.0 800.0 L 1280.0 800.0 L 1280.0 0.0 L 0.0 0.0 Z M 0.0 800.0 " fill="#FCFCFC"></path><path d="M 0.0 800.0 L 1280.0 800.0 L 1280.0 764.0 L 0.0 764.0 Z M 0.0 800.0 " fill="#2D2D2D"></path><path d="M 0.0 56.0 L 1280.0 56.0 L 1280.0 0.0 L 0.0 0.0 Z M 0.0 56.0 " fill="#2D2D2D"></path><text xml:space="preserve" font-family="FuturaLT-Book,Futura LT" font-size="24.0" fill="#B5B5B5" transform="matrix(1.00, 0.00, -0.00, -1.00, 927.2, 20.4)">K</text><text xml:space="preserve" font-family="FuturaLT-Book,Futura LT" font-size="24.0" fill="#B5B5B5" transform="matrix(1.00, 0.00, -0.00, -1.00, 941.6, 20.4)">e</text><text xml:space="preserve" font-family="FuturaLT-Book,Futura LT" font-size="24.0" fill="#B5B5B5" transform="matrix(1.00, 0.00, -0.00, -1.00, 953.8, 20.4)">v</text><text xml:space="preserve" font-family="FuturaLT-Book,Futura LT" font-size="24.0" fill="#B5B5B5" transform="matrix(1.00, 0.00, -0.00, -1.00, 964.7, 20.4)">i</text><text xml:space="preserve" font-family="FuturaLT-Book,Futura LT" font-size="24.0" fill="#B5B5B5" transform="matrix(1.00, 0.00, -0.00, -1.00, 970.7, 20.4)">n</text><text xml:space="preserve" font-family="FuturaLT-Book,Futura LT" font-size="24.0" fill="#B5B5B5" transform="matrix(1.00, 0.00, -0.00, -1.00, 983.2, 20.4)"> </text><text xml:space="preserve" font-family="FuturaLT-Book,Futura LT" font-size="24.0" fill="#B5B5B5" transform="matrix(1.00, 0.00, -0.00, -1.00, 990.3, 20.4)">Y</text><text xml:space="preserve" font-family="FuturaLT-Book,Futura LT" font-size="24.0" fill="#B5B5B5" transform="matrix(1.00, 0.00, -0.00, -1.00, 1002.4, 20.4)">u</text><text xml:space="preserve" font-family="FuturaLT-Book,Futura LT" font-size="24.0" fill="#B5B5B5" transform="matrix(1.00, 0.00, -0.00, -1.00, 1014.4, 20.4)">n</text><text xml:space="preserve" font-family="FuturaLT-Book,Futura LT" font-size="24.0" fill="#B5B5B5" transform="matrix(1.00, 0.00, -0.00, -1.00, 1026.9, 20.4)">,</text><text xml:space="preserve" font-family="FuturaLT-Book,Futura LT" font-size="24.0" fill="#B5B5B5" transform="matrix(1.00, 0.00, -0.00, -1.00, 1034.0, 20.4)"> </text><text xml:space="preserve" font-family="FuturaLT-Book,Futura LT" font-size="24.0" fill="#B5B5B5" transform="matrix(1.00, 0.00, -0.00, -1.00, 1041.2, 20.4)">@</text><text xml:space="preserve" font-family="FuturaLT-Book,Futura LT" font-size="24.0" fill="#B5B5B5" transform="matrix(1.00, 0.00, -0.00, -1.00, 1060.1, 20.4)">k</text><text xml:space="preserve" font-family="FuturaLT-Book,Futura LT" font-size="24.0" fill="#B5B5B5" transform="matrix(1.00, 0.00, -0.00, -1.00, 1071.2, 20.4)">e</text><text xml:space="preserve" font-family="FuturaLT-Book,Futura LT" font-size="24.0" fill="#B5B5B5" transform="matrix(1.00, 0.00, -0.00, -1.00, 1083.4, 20.4)">v</text><text xml:space="preserve" font-family="FuturaLT-Book,Futura LT" font-size="24.0" fill="#B5B5B5" transform="matrix(1.00, 0.00, -0.00, -1.00, 1094.3, 20.4)">i</text><text xml:space="preserve" font-family="FuturaLT-Book,Futura LT" font-size="24.0" fill="#B5B5B5" transform="matrix(1.00, 0.00, -0.00, -1.00, 1100.3, 20.4)">n</text><text xml:space="preserve" font-family="FuturaLT-Book,Futura LT" font-size="24.0" fill="#B5B5B5" transform="matrix(1.00, 0.00, -0.00, -1.00, 1112.7, 20.4)">s</text><text xml:space="preserve" font-family="FuturaLT-Book,Futura LT" font-size="24.0" fill="#B5B5B5" transform="matrix(1.00, 0.00, -0.00, -1.00, 1122.1, 20.4)">y</text><text xml:space="preserve" font-family="FuturaLT-Book,Futura LT" font-size="24.0" fill="#B5B5B5" transform="matrix(1.00, 0.00, -0.00, -1.00, 1133.8, 20.4)">u</text><text xml:space="preserve" font-family="FuturaLT-Book,Futura LT" font-size="24.0" fill="#B5B5B5" transform="matrix(1.00, 0.00, -0.00, -1.00, 1145.8, 20.4)">n</text><g><clipPath id="clip0x7fe1479e5830"><path d="M 1167.0 45.0 L 1209.0 45.0 L 1209.0 11.0 L 1167.0 11.0 Z M 1166.9 45.2 "></path></clipPath><g clip-path="url(#clip0x7fe1479e5830)"><image xlink:href="../../A9B4A605-238E-4E05-8F10-8BFA5952B821/assets/C77DCD3790C3F0B3E066644871480D19.png" width="400.00" height="328.00" transform="matrix(0.10, 0.00, -0.00, -0.10, 1166.9, 45.2)"></image></g></g><image xlink:href="../../A9B4A605-238E-4E05-8F10-8BFA5952B821/assets/FAD6F78933DA75A50BC84521C83A2ED1.png" width="768.00" height="109.00" transform="matrix(0.26, 0.00, -0.00, -0.26, 133.6, 45.4)"></image><image xlink:href="../../A9B4A605-238E-4E05-8F10-8BFA5952B821/assets/1BB4E873FACCA81805DB57C2B755465B.png" width="436.00" height="244.00" transform="matrix(0.11, 0.00, -0.00, -0.11, 75.3, 43.1)"></image><text xml:space="preserve" font-family="FuturaPT-BookObl,Futura PT" font-style="italic" font-size="10.0" fill="#61C59F" transform="matrix(1.00, 0.00, -0.00, -1.00, 857.3, 78.5)">h</text><text xml:space="preserve" font-family="FuturaPT-BookObl,Futura PT" font-style="italic" font-size="10.0" fill="#61C59F" transform="matrix(1.00, 0.00, -0.00, -1.00, 861.9, 78.5)">t</text><text xml:space="preserve" font-family="FuturaPT-BookObl,Futura PT" font-style="italic" font-size="10.0" fill="#61C59F" transform="matrix(1.00, 0.00, -0.00, -1.00, 864.1, 78.5)">t</text><text xml:space="preserve" font-family="FuturaPT-BookObl,Futura PT" font-style="italic" font-size="10.0" fill="#61C59F" transform="matrix(1.00, 0.00, -0.00, -1.00, 866.2, 78.5)">p</text><text xml:space="preserve" font-family="FuturaPT-BookObl,Futura PT" font-style="italic" font-size="10.0" fill="#61C59F" transform="matrix(1.00, 0.00, -0.00, -1.00, 871.3, 78.5)">:</text><text xml:space="preserve" font-family="FuturaPT-BookObl,Futura PT" font-style="italic" font-size="10.0" fill="#61C59F" transform="matrix(1.00, 0.00, -0.00, -1.00, 873.5, 78.5)">/</text><text xml:space="preserve" font-family="FuturaPT-BookObl,Futura PT" font-style="italic" font-size="10.0" fill="#61C59F" transform="matrix(1.00, 0.00, -0.00, -1.00, 879.5, 78.5)">/</text><text xml:space="preserve" font-family="FuturaPT-BookObl,Futura PT" font-style="italic" font-size="10.0" fill="#61C59F" transform="matrix(1.00, 0.00, -0.00, -1.00, 885.4, 78.5)">w</text><text xml:space="preserve" font-family="FuturaPT-BookObl,Futura PT" font-style="italic" font-size="10.0" fill="#61C59F" transform="matrix(1.00, 0.00, -0.00, -1.00, 892.2, 78.5)">w</text><text xml:space="preserve" font-family="FuturaPT-BookObl,Futura PT" font-style="italic" font-size="10.0" fill="#61C59F" transform="matrix(1.00, 0.00, -0.00, -1.00, 898.9, 78.5)">w</text><text xml:space="preserve" font-family="FuturaPT-BookObl,Futura PT" font-style="italic" font-size="10.0" fill="#61C59F" transform="matrix(1.00, 0.00, -0.00, -1.00, 905.4, 78.5)">.</text><text xml:space="preserve" font-family="FuturaPT-BookObl,Futura PT" font-style="italic" font-size="10.0" fill="#61C59F" transform="matrix(1.00, 0.00, -0.00, -1.00, 907.6, 78.5)">w</text><text xml:space="preserve" font-family="FuturaPT-BookObl,Futura PT" font-style="italic" font-size="10.0" fill="#61C59F" transform="matrix(1.00, 0.00, -0.00, -1.00, 914.3, 78.5)">i</text><text xml:space="preserve" font-family="FuturaPT-BookObl,Futura PT" font-style="italic" font-size="10.0" fill="#61C59F" transform="matrix(1.00, 0.00, -0.00, -1.00, 916.3, 78.5)">l</text><text xml:space="preserve" font-family="FuturaPT-BookObl,Futura PT" font-style="italic" font-size="10.0" fill="#61C59F" transform="matrix(1.00, 0.00, -0.00, -1.00, 918.3, 78.5)">d</text><text xml:space="preserve" font-family="FuturaPT-BookObl,Futura PT" font-style="italic" font-size="10.0" fill="#61C59F" transform="matrix(1.00, 0.00, -0.00, -1.00, 923.4, 78.5)">b</text><text xml:space="preserve" font-family="FuturaPT-BookObl,Futura PT" font-style="italic" font-size="10.0" fill="#61C59F" transform="matrix(1.00, 0.00, -0.00, -1.00, 928.6, 78.5)">u</text><text xml:space="preserve" font-family="FuturaPT-BookObl,Futura PT" font-style="italic" font-size="10.0" fill="#61C59F" transform="matrix(1.00, 0.00, -0.00, -1.00, 933.2, 78.5)">n</text><text xml:space="preserve" font-family="FuturaPT-BookObl,Futura PT" font-style="italic" font-size="10.0" fill="#61C59F" transform="matrix(1.00, 0.00, -0.00, -1.00, 937.8, 78.5)">n</text><text xml:space="preserve" font-family="FuturaPT-BookObl,Futura PT" font-style="italic" font-size="10.0" fill="#61C59F" transform="matrix(1.00, 0.00, -0.00, -1.00, 942.3, 78.5)">y</text><text xml:space="preserve" font-family="FuturaPT-BookObl,Futura PT" font-style="italic" font-size="10.0" fill="#61C59F" transform="matrix(1.00, 0.00, -0.00, -1.00, 946.6, 78.5)">.</text><text xml:space="preserve" font-family="FuturaPT-BookObl,Futura PT" font-style="italic" font-size="10.0" fill="#61C59F" transform="matrix(1.00, 0.00, -0.00, -1.00, 948.8, 78.5)">c</text><text xml:space="preserve" font-family="FuturaPT-BookObl,Futura PT" font-style="italic" font-size="10.0" fill="#61C59F" transform="matrix(1.00, 0.00, -0.00, -1.00, 953.1, 78.5)">o</text><text xml:space="preserve" font-family="FuturaPT-BookObl,Futura PT" font-style="italic" font-size="10.0" fill="#61C59F" transform="matrix(1.00, 0.00, -0.00, -1.00, 958.3, 78.5)">.</text><text xml:space="preserve" font-family="FuturaPT-BookObl,Futura PT" font-style="italic" font-size="10.0" fill="#61C59F" transform="matrix(1.00, 0.00, -0.00, -1.00, 960.5, 78.5)">u</text><text xml:space="preserve" font-family="FuturaPT-BookObl,Futura PT" font-style="italic" font-size="10.0" fill="#61C59F" transform="matrix(1.00, 0.00, -0.00, -1.00, 965.0, 78.5)">k</text><text xml:space="preserve" font-family="FuturaPT-BookObl,Futura PT" font-style="italic" font-size="10.0" fill="#61C59F" transform="matrix(1.00, 0.00, -0.00, -1.00, 969.2, 78.5)">/</text><text xml:space="preserve" font-family="FuturaPT-BookObl,Futura PT" font-style="italic" font-size="10.0" fill="#61C59F" transform="matrix(1.00, 0.00, -0.00, -1.00, 975.1, 78.5)">b</text><text xml:space="preserve" font-family="FuturaPT-BookObl,Futura PT" font-style="italic" font-size="10.0" fill="#61C59F" transform="matrix(1.00, 0.00, -0.00, -1.00, 980.3, 78.5)">l</text><text xml:space="preserve" font-family="FuturaPT-BookObl,Futura PT" font-style="italic" font-size="10.0" fill="#61C59F" transform="matrix(1.00, 0.00, -0.00, -1.00, 982.3, 78.5)">o</text><text xml:space="preserve" font-family="FuturaPT-BookObl,Futura PT" font-style="italic" font-size="10.0" fill="#61C59F" transform="matrix(1.00, 0.00, -0.00, -1.00, 987.5, 78.5)">g</text><text xml:space="preserve" font-family="FuturaPT-BookObl,Futura PT" font-style="italic" font-size="10.0" fill="#61C59F" transform="matrix(1.00, 0.00, -0.00, -1.00, 992.6, 78.5)">/</text><text xml:space="preserve" font-family="FuturaPT-BookObl,Futura PT" font-style="italic" font-size="10.0" fill="#61C59F" transform="matrix(1.00, 0.00, -0.00, -1.00, 998.6, 78.5)">w</text><text xml:space="preserve" font-family="FuturaPT-BookObl,Futura PT" font-style="italic" font-size="10.0" fill="#61C59F" transform="matrix(1.00, 0.00, -0.00, -1.00, 1005.3, 78.5)">p</text><text xml:space="preserve" font-family="FuturaPT-BookObl,Futura PT" font-style="italic" font-size="10.0" fill="#61C59F" transform="matrix(1.00, 0.00, -0.00, -1.00, 1010.5, 78.5)">-</text><text xml:space="preserve" font-family="FuturaPT-BookObl,Futura PT" font-style="italic" font-size="10.0" fill="#61C59F" transform="matrix(1.00, 0.00, -0.00, -1.00, 1013.6, 78.5)">c</text><text xml:space="preserve" font-family="FuturaPT-BookObl,Futura PT" font-style="italic" font-size="10.0" fill="#61C59F" transform="matrix(1.00, 0.00, -0.00, -1.00, 1017.9, 78.5)">o</text><text xml:space="preserve" font-family="FuturaPT-BookObl,Futura PT" font-style="italic" font-size="10.0" fill="#61C59F" transform="matrix(1.00, 0.00, -0.00, -1.00, 1023.0, 78.5)">n</text><text xml:space="preserve" font-family="FuturaPT-BookObl,Futura PT" font-style="italic" font-size="10.0" fill="#61C59F" transform="matrix(1.00, 0.00, -0.00, -1.00, 1027.6, 78.5)">t</text><text xml:space="preserve" font-family="FuturaPT-BookObl,Futura PT" font-style="italic" font-size="10.0" fill="#61C59F" transform="matrix(1.00, 0.00, -0.00, -1.00, 1029.7, 78.5)">e</text><text xml:space="preserve" font-family="FuturaPT-BookObl,Futura PT" font-style="italic" font-size="10.0" fill="#61C59F" transform="matrix(1.00, 0.00, -0.00, -1.00, 1034.4, 78.5)">n</text><text xml:space="preserve" font-family="FuturaPT-BookObl,Futura PT" font-style="italic" font-size="10.0" fill="#61C59F" transform="matrix(1.00, 0.00, -0.00, -1.00, 1039.0, 78.5)">t</text><text xml:space="preserve" font-family="FuturaPT-BookObl,Futura PT" font-style="italic" font-size="10.0" fill="#61C59F" transform="matrix(1.00, 0.00, -0.00, -1.00, 1041.0, 78.5)">/</text><text xml:space="preserve" font-family="FuturaPT-BookObl,Futura PT" font-style="italic" font-size="10.0" fill="#61C59F" transform="matrix(1.00, 0.00, -0.00, -1.00, 1047.0, 78.5)">u</text><text xml:space="preserve" font-family="FuturaPT-BookObl,Futura PT" font-style="italic" font-size="10.0" fill="#61C59F" transform="matrix(1.00, 0.00, -0.00, -1.00, 1051.5, 78.5)">p</text><text xml:space="preserve" font-family="FuturaPT-BookObl,Futura PT" font-style="italic" font-size="10.0" fill="#61C59F" transform="matrix(1.00, 0.00, -0.00, -1.00, 1056.7, 78.5)">l</text><text xml:space="preserve" font-family="FuturaPT-BookObl,Futura PT" font-style="italic" font-size="10.0" fill="#61C59F" transform="matrix(1.00, 0.00, -0.00, -1.00, 1058.7, 78.5)">o</text><text xml:space="preserve" font-family="FuturaPT-BookObl,Futura PT" font-style="italic" font-size="10.0" fill="#61C59F" transform="matrix(1.00, 0.00, -0.00, -1.00, 1063.9, 78.5)">a</text><text xml:space="preserve" font-family="FuturaPT-BookObl,Futura PT" font-style="italic" font-size="10.0" fill="#61C59F" transform="matrix(1.00, 0.00, -0.00, -1.00, 1069.1, 78.5)">d</text><text xml:space="preserve" font-family="FuturaPT-BookObl,Futura PT" font-style="italic" font-size="10.0" fill="#61C59F" transform="matrix(1.00, 0.00, -0.00, -1.00, 1074.2, 78.5)">s</text><text xml:space="preserve" font-family="FuturaPT-BookObl,Futura PT" font-style="italic" font-size="10.0" fill="#61C59F" transform="matrix(1.00, 0.00, -0.00, -1.00, 1077.6, 78.5)">/</text><text xml:space="preserve" font-family="FuturaPT-BookObl,Futura PT" font-style="italic" font-size="10.0" fill="#61C59F" transform="matrix(1.00, 0.00, -0.00, -1.00, 1083.6, 78.5)">2</text><text xml:space="preserve" font-family="FuturaPT-BookObl,Futura PT" font-style="italic" font-size="10.0" fill="#61C59F" transform="matrix(1.00, 0.00, -0.00, -1.00, 1089.2, 78.5)">0</text><text xml:space="preserve" font-family="FuturaPT-BookObl,Futura PT" font-style="italic" font-size="10.0" fill="#61C59F" transform="matrix(1.00, 0.00, -0.00, -1.00, 1093.5, 78.5)">1</text><text xml:space="preserve" font-family="FuturaPT-BookObl,Futura PT" font-style="italic" font-size="10.0" fill="#61C59F" transform="matrix(1.00, 0.00, -0.00, -1.00, 1097.8, 78.5)">2</text><text xml:space="preserve" font-family="FuturaPT-BookObl,Futura PT" font-style="italic" font-size="10.0" fill="#61C59F" transform="matrix(1.00, 0.00, -0.00, -1.00, 1103.4, 78.5)">/</text><text xml:space="preserve" font-family="FuturaPT-BookObl,Futura PT" font-style="italic" font-size="10.0" fill="#61C59F" transform="matrix(1.00, 0.00, -0.00, -1.00, 1109.4, 78.5)">0</text><text xml:space="preserve" font-family="FuturaPT-BookObl,Futura PT" font-style="italic" font-size="10.0" fill="#61C59F" transform="matrix(1.00, 0.00, -0.00, -1.00, 1114.9, 78.5)">6</text><text xml:space="preserve" font-family="FuturaPT-BookObl,Futura PT" font-style="italic" font-size="10.0" fill="#61C59F" transform="matrix(1.00, 0.00, -0.00, -1.00, 1120.5, 78.5)">/</text><text xml:space="preserve" font-family="FuturaPT-BookObl,Futura PT" font-style="italic" font-size="10.0" fill="#61C59F" transform="matrix(1.00, 0.00, -0.00, -1.00, 1126.5, 78.5)">v</text><text xml:space="preserve" font-family="FuturaPT-BookObl,Futura PT" font-style="italic" font-size="10.0" fill="#61C59F" transform="matrix(1.00, 0.00, -0.00, -1.00, 1130.6, 78.5)">e</text><text xml:space="preserve" font-family="FuturaPT-BookObl,Futura PT" font-style="italic" font-size="10.0" fill="#61C59F" transform="matrix(1.00, 0.00, -0.00, -1.00, 1135.3, 78.5)">r</text><text xml:space="preserve" font-family="FuturaPT-BookObl,Futura PT" font-style="italic" font-size="10.0" fill="#61C59F" transform="matrix(1.00, 0.00, -0.00, -1.00, 1138.1, 78.5)">s</text><text xml:space="preserve" font-family="FuturaPT-BookObl,Futura PT" font-style="italic" font-size="10.0" fill="#61C59F" transform="matrix(1.00, 0.00, -0.00, -1.00, 1141.5, 78.5)">i</text><text xml:space="preserve" font-family="FuturaPT-BookObl,Futura PT" font-style="italic" font-size="10.0" fill="#61C59F" transform="matrix(1.00, 0.00, -0.00, -1.00, 1143.5, 78.5)">o</text><text xml:space="preserve" font-family="FuturaPT-BookObl,Futura PT" font-style="italic" font-size="10.0" fill="#61C59F" transform="matrix(1.00, 0.00, -0.00, -1.00, 1148.7, 78.5)">n</text><text xml:space="preserve" font-family="FuturaPT-BookObl,Futura PT" font-style="italic" font-size="10.0" fill="#61C59F" transform="matrix(1.00, 0.00, -0.00, -1.00, 1153.2, 78.5)">_</text><text xml:space="preserve" font-family="FuturaPT-BookObl,Futura PT" font-style="italic" font-size="10.0" fill="#61C59F" transform="matrix(1.00, 0.00, -0.00, -1.00, 1158.1, 78.5)">c</text><text xml:space="preserve" font-family="FuturaPT-BookObl,Futura PT" font-style="italic" font-size="10.0" fill="#61C59F" transform="matrix(1.00, 0.00, -0.00, -1.00, 1162.4, 78.5)">o</text><text xml:space="preserve" font-family="FuturaPT-BookObl,Futura PT" font-style="italic" font-size="10.0" fill="#61C59F" transform="matrix(1.00, 0.00, -0.00, -1.00, 1167.6, 78.5)">n</text><text xml:space="preserve" font-family="FuturaPT-BookObl,Futura PT" font-style="italic" font-size="10.0" fill="#61C59F" transform="matrix(1.00, 0.00, -0.00, -1.00, 1172.2, 78.5)">t</text><text xml:space="preserve" font-family="FuturaPT-BookObl,Futura PT" font-style="italic" font-size="10.0" fill="#61C59F" transform="matrix(1.00, 0.00, -0.00, -1.00, 1174.3, 78.5)">r</text><text xml:space="preserve" font-family="FuturaPT-BookObl,Futura PT" font-style="italic" font-size="10.0" fill="#61C59F" transform="matrix(1.00, 0.00, -0.00, -1.00, 1176.9, 78.5)">o</text><text xml:space="preserve" font-family="FuturaPT-BookObl,Futura PT" font-style="italic" font-size="10.0" fill="#61C59F" transform="matrix(1.00, 0.00, -0.00, -1.00, 1182.1, 78.5)">l</text><text xml:space="preserve" font-family="FuturaPT-BookObl,Futura PT" font-style="italic" font-size="10.0" fill="#61C59F" transform="matrix(1.00, 0.00, -0.00, -1.00, 1184.0, 78.5)">_</text><text xml:space="preserve" font-family="FuturaPT-BookObl,Futura PT" font-style="italic" font-size="10.0" fill="#61C59F" transform="matrix(1.00, 0.00, -0.00, -1.00, 1188.9, 78.5)">s</text><text xml:space="preserve" font-family="FuturaPT-BookObl,Futura PT" font-style="italic" font-size="10.0" fill="#61C59F" transform="matrix(1.00, 0.00, -0.00, -1.00, 1192.3, 78.5)">t</text><text xml:space="preserve" font-family="FuturaPT-BookObl,Futura PT" font-style="italic" font-size="10.0" fill="#61C59F" transform="matrix(1.00, 0.00, -0.00, -1.00, 1194.4, 78.5)">a</text><text xml:space="preserve" font-family="FuturaPT-BookObl,Futura PT" font-style="italic" font-size="10.0" fill="#61C59F" transform="matrix(1.00, 0.00, -0.00, -1.00, 1199.6, 78.5)">r</text><text xml:space="preserve" font-family="FuturaPT-BookObl,Futura PT" font-style="italic" font-size="10.0" fill="#61C59F" transform="matrix(1.00, 0.00, -0.00, -1.00, 1202.4, 78.5)">_</text><text xml:space="preserve" font-family="FuturaPT-BookObl,Futura PT" font-style="italic" font-size="10.0" fill="#61C59F" transform="matrix(1.00, 0.00, -0.00, -1.00, 1207.3, 78.5)">t</text><text xml:space="preserve" font-family="FuturaPT-BookObl,Futura PT" font-style="italic" font-size="10.0" fill="#61C59F" transform="matrix(1.00, 0.00, -0.00, -1.00, 1209.4, 78.5)">r</text><text xml:space="preserve" font-family="FuturaPT-BookObl,Futura PT" font-style="italic" font-size="10.0" fill="#61C59F" transform="matrix(1.00, 0.00, -0.00, -1.00, 1212.0, 78.5)">e</text><text xml:space="preserve" font-family="FuturaPT-BookObl,Futura PT" font-style="italic" font-size="10.0" fill="#61C59F" transform="matrix(1.00, 0.00, -0.00, -1.00, 1216.7, 78.5)">k</text><text xml:space="preserve" font-family="FuturaPT-BookObl,Futura PT" font-style="italic" font-size="10.0" fill="#61C59F" transform="matrix(1.00, 0.00, -0.00, -1.00, 1220.8, 78.5)">_</text><text xml:space="preserve" font-family="FuturaPT-BookObl,Futura PT" font-style="italic" font-size="10.0" fill="#61C59F" transform="matrix(1.00, 0.00, -0.00, -1.00, 1225.7, 78.5)">s</text><text xml:space="preserve" font-family="FuturaPT-BookObl,Futura PT" font-style="italic" font-size="10.0" fill="#61C59F" transform="matrix(1.00, 0.00, -0.00, -1.00, 1229.1, 78.5)">t</text><text xml:space="preserve" font-family="FuturaPT-BookObl,Futura PT" font-style="italic" font-size="10.0" fill="#61C59F" transform="matrix(1.00, 0.00, -0.00, -1.00, 1231.5, 78.5)">y</text><text xml:space="preserve" font-family="FuturaPT-BookObl,Futura PT" font-style="italic" font-size="10.0" fill="#61C59F" transform="matrix(1.00, 0.00, -0.00, -1.00, 1236.0, 78.5)">l</text><text xml:space="preserve" font-family="FuturaPT-BookObl,Futura PT" font-style="italic" font-size="10.0" fill="#61C59F" transform="matrix(1.00, 0.00, -0.00, -1.00, 1237.9, 78.5)">e</text><text xml:space="preserve" font-family="FuturaPT-BookObl,Futura PT" font-style="italic" font-size="10.0" fill="#61C59F" transform="matrix(1.00, 0.00, -0.00, -1.00, 1242.7, 78.5)">.</text><text xml:space="preserve" font-family="FuturaPT-BookObl,Futura PT" font-style="italic" font-size="10.0" fill="#61C59F" transform="matrix(1.00, 0.00, -0.00, -1.00, 1244.9, 78.5)">j</text><text xml:space="preserve" font-family="FuturaPT-BookObl,Futura PT" font-style="italic" font-size="10.0" fill="#61C59F" transform="matrix(1.00, 0.00, -0.00, -1.00, 1246.8, 78.5)">p</text><text xml:space="preserve" font-family="FuturaPT-BookObl,Futura PT" font-style="italic" font-size="10.0" fill="#61C59F" transform="matrix(1.00, 0.00, -0.00, -1.00, 1252.0, 78.5)">g</text><g><clipPath id="clip0x7fe148d45730"><path d="M 856.3 75.6 L 1257.2 75.6 L 1257.2 78.3 L 856.3 78.3 Z M 856.3 75.6 "></path></clipPath><g clip-path="url(#clip0x7fe148d45730)"><path d="M 4.0 15.5 L 403.9 15.5 " fill="none" stroke="#61C59F" stroke-width="0.72" transform="matrix(1.00, 0.00, 0.00, -1.00, 853.3, 92.5)"></path></g></g><image xlink:href="../../35D946F5-3C2C-44CF-8729-136EE0553A4E/assets/392E7D873CD128F24A8591E34BF9A61C.png" width="500.00" height="560.00" transform="matrix(1.15, 0.00, -0.00, -1.15, 363.4, 754.4)"></image></g></svg>