<?xml version="1.0" encoding="UTF-8" standalone="no"?><svg xmlns="http://www.w3.org/2000/svg" xmlns:xlink="http://www.w3.org/1999/xlink" clip-rule="evenodd" stroke-miterlimit="10" viewBox="0 0 1280 800"><desc>SVG generated by Keynote</desc><defs></defs><g transform="matrix(1.00, 0.00, -0.00, -1.00, 0.0, 800.0)"><path d="M 0.0 800.0 L 1280.0 800.0 L 1280.0 0.0 L 0.0 0.0 Z M 0.0 800.0 " fill="#FCFCFC"></path><path d="M 0.0 800.0 L 1280.0 800.0 L 1280.0 764.0 L 0.0 764.0 Z M 0.0 800.0 " fill="#2D2D2D"></path><path d="M 0.0 56.0 L 1280.0 56.0 L 1280.0 0.0 L 0.0 0.0 Z M 0.0 56.0 " fill="#2D2D2D"></path><text xml:space="preserve" font-family="FuturaLT-Book,Futura LT" font-size="24.0" fill="#B5B5B5" transform="matrix(1.00, 0.00, -0.00, -1.00, 927.2, 20.4)">K</text><text xml:space="preserve" font-family="FuturaLT-Book,Futura LT" font-size="24.0" fill="#B5B5B5" transform="matrix(1.00, 0.00, -0.00, -1.00, 941.6, 20.4)">e</text><text xml:space="preserve" font-family="FuturaLT-Book,Futura LT" font-size="24.0" fill="#B5B5B5" transform="matrix(1.00, 0.00, -0.00, -1.00, 953.8, 20.4)">v</text><text xml:space="preserve" font-family="FuturaLT-Book,Futura LT" font-size="24.0" fill="#B5B5B5" transform="matrix(1.00, 0.00, -0.00, -1.00, 964.7, 20.4)">i</text><text xml:space="preserve" font-family="FuturaLT-Book,Futura LT" font-size="24.0" fill="#B5B5B5" transform="matrix(1.00, 0.00, -0.00, -1.00, 970.7, 20.4)">n</text><text xml:space="preserve" font-family="FuturaLT-Book,Futura LT" font-size="24.0" fill="#B5B5B5" transform="matrix(1.00, 0.00, -0.00, -1.00, 983.2, 20.4)"> </text><text xml:space="preserve" font-family="FuturaLT-Book,Futura LT" font-size="24.0" fill="#B5B5B5" transform="matrix(1.00, 0.00, -0.00, -1.00, 990.3, 20.4)">Y</text><text xml:space="preserve" font-family="FuturaLT-Book,Futura LT" font-size="24.0" fill="#B5B5B5" transform="matrix(1.00, 0.00, -0.00, -1.00, 1002.4, 20.4)">u</text><text xml:space="preserve" font-family="FuturaLT-Book,Futura LT" font-size="24.0" fill="#B5B5B5" transform="matrix(1.00, 0.00, -0.00, -1.00, 1014.4, 20.4)">n</text><text xml:space="preserve" font-family="FuturaLT-Book,Futura LT" font-size="24.0" fill="#B5B5B5" transform="matrix(1.00, 0.00, -0.00, -1.00, 1026.9, 20.4)">,</text><text xml:space="preserve" font-family="FuturaLT-Book,Futura LT" font-size="24.0" fill="#B5B5B5" transform="matrix(1.00, 0.00, -0.00, -1.00, 1034.0, 20.4)"> </text><text xml:space="preserve" font-family="FuturaLT-Book,Futura LT" font-size="24.0" fill="#B5B5B5" transform="matrix(1.00, 0.00, -0.00, -1.00, 1041.2, 20.4)">@</text><text xml:space="preserve" font-family="FuturaLT-Book,Futura LT" font-size="24.0" fill="#B5B5B5" transform="matrix(1.00, 0.00, -0.00, -1.00, 1060.1, 20.4)">k</text><text xml:space="preserve" font-family="FuturaLT-Book,Futura LT" font-size="24.0" fill="#B5B5B5" transform="matrix(1.00, 0.00, -0.00, -1.00, 1071.2, 20.4)">e</text><text xml:space="preserve" font-family="FuturaLT-Book,Futura LT" font-size="24.0" fill="#B5B5B5" transform="matrix(1.00, 0.00, -0.00, -1.00, 1083.4, 20.4)">v</text><text xml:space="preserve" font-family="FuturaLT-Book,Futura LT" font-size="24.0" fill="#B5B5B5" transform="matrix(1.00, 0.00, -0.00, -1.00, 1094.3, 20.4)">i</text><text xml:space="preserve" font-family="FuturaLT-Book,Futura LT" font-size="24.0" fill="#B5B5B5" transform="matrix(1.00, 0.00, -0.00, -1.00, 1100.3, 20.4)">n</text><text xml:space="preserve" font-family="FuturaLT-Book,Futura LT" font-size="24.0" fill="#B5B5B5" transform="matrix(1.00, 0.00, -0.00, -1.00, 1112.7, 20.4)">s</text><text xml:space="preserve" font-family="FuturaLT-Book,Futura LT" font-size="24.0" fill="#B5B5B5" transform="matrix(1.00, 0.00, -0.00, -1.00, 1122.1, 20.4)">y</text><text xml:space="preserve" font-family="FuturaLT-Book,Futura LT" font-size="24.0" fill="#B5B5B5" transform="matrix(1.00, 0.00, -0.00, -1.00, 1133.8, 20.4)">u</text><text xml:space="preserve" font-family="FuturaLT-Book,Futura LT" font-size="24.0" fill="#B5B5B5" transform="matrix(1.00, 0.00, -0.00, -1.00, 1145.8, 20.4)">n</text><g><clipPath id="clip0x7fe148a9a670"><path d="M 1167.0 45.0 L 1209.0 45.0 L 1209.0 11.0 L 1167.0 11.0 Z M 1166.9 45.2 "></path></clipPath><g clip-path="url(#clip0x7fe148a9a670)"><image xlink:href="../../A9B4A605-238E-4E05-8F10-8BFA5952B821/assets/C77DCD3790C3F0B3E066644871480D19.png" width="400.00" height="328.00" transform="matrix(0.10, 0.00, -0.00, -0.10, 1166.9, 45.2)"></image></g></g><image xlink:href="../../A9B4A605-238E-4E05-8F10-8BFA5952B821/assets/FAD6F78933DA75A50BC84521C83A2ED1.png" width="768.00" height="109.00" transform="matrix(0.26, 0.00, -0.00, -0.26, 133.6, 45.4)"></image><image xlink:href="../../A9B4A605-238E-4E05-8F10-8BFA5952B821/assets/1BB4E873FACCA81805DB57C2B755465B.png" width="436.00" height="244.00" transform="matrix(0.11, 0.00, -0.00, -0.11, 75.3, 43.1)"></image><text xml:space="preserve" font-family="FuturaPT-Heavy,Futura PT" font-weight="bold" font-size="96.0" fill="#206288" transform="matrix(1.00, 0.00, -0.00, -1.00, 386.8, 554.4)">H</text><text xml:space="preserve" font-family="FuturaPT-Heavy,Futura PT" font-weight="bold" font-size="96.0" fill="#206288" transform="matrix(1.00, 0.00, -0.00, -1.00, 455.0, 554.4)">o</text><text xml:space="preserve" font-family="FuturaPT-Heavy,Futura PT" font-weight="bold" font-size="96.0" fill="#206288" transform="matrix(1.00, 0.00, -0.00, -1.00, 510.9, 554.4)">m</text><text xml:space="preserve" font-family="FuturaPT-Heavy,Futura PT" font-weight="bold" font-size="96.0" fill="#206288" transform="matrix(1.00, 0.00, -0.00, -1.00, 590.8, 554.4)">e</text><text xml:space="preserve" font-family="FuturaPT-Heavy,Futura PT" font-weight="bold" font-size="96.0" fill="#206288" transform="matrix(1.00, 0.00, -0.00, -1.00, 642.4, 554.4)">w</text><text xml:space="preserve" font-family="FuturaPT-Heavy,Futura PT" font-weight="bold" font-size="96.0" fill="#206288" transform="matrix(1.00, 0.00, -0.00, -1.00, 722.3, 554.4)">o</text><text xml:space="preserve" font-family="FuturaPT-Heavy,Futura PT" font-weight="bold" font-size="96.0" fill="#206288" transform="matrix(1.00, 0.00, -0.00, -1.00, 778.1, 554.4)">r</text><text xml:space="preserve" font-family="FuturaPT-Heavy,Futura PT" font-weight="bold" font-size="96.0" fill="#206288" transform="matrix(1.00, 0.00, -0.00, -1.00, 814.0, 554.4)">k</text><text xml:space="preserve" font-family="FuturaPT-Heavy,Futura PT" font-weight="bold" font-size="96.0" fill="#206288" transform="matrix(1.00, 0.00, -0.00, -1.00, 867.4, 554.4)">:</text><text xml:space="preserve" font-family="FuturaPT-Book,Futura PT" font-size="96.0" fill="#52575F" transform="matrix(1.00, 0.00, -0.00, -1.00, 115.8, 433.2)">F</text><text xml:space="preserve" font-family="FuturaPT-Book,Futura PT" font-size="96.0" fill="#52575F" transform="matrix(1.00, 0.00, -0.00, -1.00, 156.5, 433.2)">i</text><text xml:space="preserve" font-family="FuturaPT-Book,Futura PT" font-size="96.0" fill="#52575F" transform="matrix(1.00, 0.00, -0.00, -1.00, 175.5, 433.2)">n</text><text xml:space="preserve" font-family="FuturaPT-Book,Futura PT" font-size="96.0" fill="#52575F" transform="matrix(1.00, 0.00, -0.00, -1.00, 219.7, 433.2)">i</text><text xml:space="preserve" font-family="FuturaPT-Book,Futura PT" font-size="96.0" fill="#52575F" transform="matrix(1.00, 0.00, -0.00, -1.00, 238.7, 433.2)">s</text><text xml:space="preserve" font-family="FuturaPT-Book,Futura PT" font-size="96.0" fill="#52575F" transform="matrix(1.00, 0.00, -0.00, -1.00, 271.5, 433.2)">h</text><text xml:space="preserve" font-family="FuturaPT-Book,Futura PT" font-size="96.0" fill="#52575F" transform="matrix(1.00, 0.00, -0.00, -1.00, 315.7, 433.2)"> </text><text xml:space="preserve" font-family="FuturaPT-Book,Futura PT" font-size="96.0" fill="#52575F" transform="matrix(1.00, 0.00, -0.00, -1.00, 337.1, 433.2)">u</text><text xml:space="preserve" font-family="FuturaPT-Book,Futura PT" font-size="96.0" fill="#52575F" transform="matrix(1.00, 0.00, -0.00, -1.00, 380.8, 433.2)">p</text><text xml:space="preserve" font-family="FuturaPT-Book,Futura PT" font-size="96.0" fill="#52575F" transform="matrix(1.00, 0.00, -0.00, -1.00, 430.4, 433.2)">l</text><text xml:space="preserve" font-family="FuturaPT-Book,Futura PT" font-size="96.0" fill="#52575F" transform="matrix(1.00, 0.00, -0.00, -1.00, 449.4, 433.2)">o</text><text xml:space="preserve" font-family="FuturaPT-Book,Futura PT" font-size="96.0" fill="#52575F" transform="matrix(1.00, 0.00, -0.00, -1.00, 498.7, 433.2)">a</text><text xml:space="preserve" font-family="FuturaPT-Book,Futura PT" font-size="96.0" fill="#52575F" transform="matrix(1.00, 0.00, -0.00, -1.00, 548.3, 433.2)">d</text><text xml:space="preserve" font-family="FuturaPT-Book,Futura PT" font-size="96.0" fill="#52575F" transform="matrix(1.00, 0.00, -0.00, -1.00, 596.8, 433.2)">i</text><text xml:space="preserve" font-family="FuturaPT-Book,Futura PT" font-size="96.0" fill="#52575F" transform="matrix(1.00, 0.00, -0.00, -1.00, 615.9, 433.2)">n</text><text xml:space="preserve" font-family="FuturaPT-Book,Futura PT" font-size="96.0" fill="#52575F" transform="matrix(1.00, 0.00, -0.00, -1.00, 660.0, 433.2)">g</text><text xml:space="preserve" font-family="FuturaPT-Book,Futura PT" font-size="96.0" fill="#52575F" transform="matrix(1.00, 0.00, -0.00, -1.00, 709.6, 433.2)"> </text><text xml:space="preserve" font-family="FuturaPT-Book,Futura PT" font-size="96.0" fill="#52575F" transform="matrix(1.00, 0.00, -0.00, -1.00, 731.0, 433.2)">a</text><text xml:space="preserve" font-family="FuturaPT-Book,Futura PT" font-size="96.0" fill="#52575F" transform="matrix(1.00, 0.00, -0.00, -1.00, 780.5, 433.2)"> </text><text xml:space="preserve" font-family="FuturaPT-Book,Futura PT" font-size="96.0" fill="#52575F" transform="matrix(1.00, 0.00, -0.00, -1.00, 801.9, 433.2)">c</text><text xml:space="preserve" font-family="FuturaPT-Book,Futura PT" font-size="96.0" fill="#52575F" transform="matrix(1.00, 0.00, -0.00, -1.00, 843.0, 433.2)">o</text><text xml:space="preserve" font-family="FuturaPT-Book,Futura PT" font-size="96.0" fill="#52575F" transform="matrix(1.00, 0.00, -0.00, -1.00, 892.3, 433.2)">d</text><text xml:space="preserve" font-family="FuturaPT-Book,Futura PT" font-size="96.0" fill="#52575F" transform="matrix(1.00, 0.00, -0.00, -1.00, 941.9, 433.2)">e</text><text xml:space="preserve" font-family="FuturaPT-Book,Futura PT" font-size="96.0" fill="#52575F" transform="matrix(1.00, 0.00, -0.00, -1.00, 987.1, 433.2)">b</text><text xml:space="preserve" font-family="FuturaPT-Book,Futura PT" font-size="96.0" fill="#52575F" transform="matrix(1.00, 0.00, -0.00, -1.00, 1036.6, 433.2)">a</text><text xml:space="preserve" font-family="FuturaPT-Book,Futura PT" font-size="96.0" fill="#52575F" transform="matrix(1.00, 0.00, -0.00, -1.00, 1086.2, 433.2)">s</text><text xml:space="preserve" font-family="FuturaPT-Book,Futura PT" font-size="96.0" fill="#52575F" transform="matrix(1.00, 0.00, -0.00, -1.00, 1119.0, 433.2)">e</text><text xml:space="preserve" font-family="FuturaPT-Book,Futura PT" font-size="96.0" fill="#52575F" transform="matrix(1.00, 0.00, -0.00, -1.00, 1164.2, 433.2)"> </text><text xml:space="preserve" font-family="FuturaPT-Book,Futura PT" font-size="96.0" fill="#52575F" transform="matrix(1.00, 0.00, -0.00, -1.00, 414.9, 310.2)">o</text><text xml:space="preserve" font-family="FuturaPT-Book,Futura PT" font-size="96.0" fill="#52575F" transform="matrix(1.00, 0.00, -0.00, -1.00, 464.3, 310.2)">n</text><text xml:space="preserve" font-family="FuturaPT-Book,Futura PT" font-size="96.0" fill="#52575F" transform="matrix(1.00, 0.00, -0.00, -1.00, 508.4, 310.2)">t</text><text xml:space="preserve" font-family="FuturaPT-Book,Futura PT" font-size="96.0" fill="#52575F" transform="matrix(1.00, 0.00, -0.00, -1.00, 528.0, 310.2)">o</text><text xml:space="preserve" font-family="FuturaPT-Book,Futura PT" font-size="96.0" fill="#52575F" transform="matrix(1.00, 0.00, -0.00, -1.00, 577.4, 310.2)"> </text><text xml:space="preserve" font-family="FuturaPT-Book,Futura PT" font-size="96.0" fill="#52575F" transform="matrix(1.00, 0.00, -0.00, -1.00, 598.8, 310.2)">G</text><text xml:space="preserve" font-family="FuturaPT-Book,Futura PT" font-size="96.0" fill="#52575F" transform="matrix(1.00, 0.00, -0.00, -1.00, 670.6, 310.2)">i</text><text xml:space="preserve" font-family="FuturaPT-Book,Futura PT" font-size="96.0" fill="#52575F" transform="matrix(1.00, 0.00, -0.00, -1.00, 689.6, 310.2)">t</text><text xml:space="preserve" font-family="FuturaPT-Book,Futura PT" font-size="96.0" fill="#52575F" transform="matrix(1.00, 0.00, -0.00, -1.00, 709.2, 310.2)">H</text><text xml:space="preserve" font-family="FuturaPT-Book,Futura PT" font-size="96.0" fill="#52575F" transform="matrix(1.00, 0.00, -0.00, -1.00, 771.8, 310.2)">u</text><text xml:space="preserve" font-family="FuturaPT-Book,Futura PT" font-size="96.0" fill="#52575F" transform="matrix(1.00, 0.00, -0.00, -1.00, 815.5, 310.2)">b</text><text xml:space="preserve" font-family="FuturaPT-BookObl,Futura PT" font-style="italic" font-size="22.0" fill="#000000" transform="matrix(1.00, 0.00, -0.00, -1.00, 197.4, 202.8)">T</text><text xml:space="preserve" font-family="FuturaPT-BookObl,Futura PT" font-style="italic" font-size="22.0" fill="#000000" transform="matrix(1.00, 0.00, -0.00, -1.00, 205.9, 202.8)">w</text><text xml:space="preserve" font-family="FuturaPT-BookObl,Futura PT" font-style="italic" font-size="22.0" fill="#000000" transform="matrix(1.00, 0.00, -0.00, -1.00, 220.6, 202.8)">o</text><text xml:space="preserve" font-family="FuturaPT-BookObl,Futura PT" font-style="italic" font-size="22.0" fill="#000000" transform="matrix(1.00, 0.00, -0.00, -1.00, 232.0, 202.8)"> </text><text xml:space="preserve" font-family="FuturaPT-BookObl,Futura PT" font-style="italic" font-size="22.0" fill="#000000" transform="matrix(1.00, 0.00, -0.00, -1.00, 236.9, 202.8)">g</text><text xml:space="preserve" font-family="FuturaPT-BookObl,Futura PT" font-style="italic" font-size="22.0" fill="#000000" transform="matrix(1.00, 0.00, -0.00, -1.00, 248.3, 202.8)">o</text><text xml:space="preserve" font-family="FuturaPT-BookObl,Futura PT" font-style="italic" font-size="22.0" fill="#000000" transform="matrix(1.00, 0.00, -0.00, -1.00, 259.7, 202.8)">o</text><text xml:space="preserve" font-family="FuturaPT-BookObl,Futura PT" font-style="italic" font-size="22.0" fill="#000000" transform="matrix(1.00, 0.00, -0.00, -1.00, 271.1, 202.8)">d</text><text xml:space="preserve" font-family="FuturaPT-BookObl,Futura PT" font-style="italic" font-size="22.0" fill="#000000" transform="matrix(1.00, 0.00, -0.00, -1.00, 282.5, 202.8)"> </text><text xml:space="preserve" font-family="FuturaPT-BookObl,Futura PT" font-style="italic" font-size="22.0" fill="#000000" transform="matrix(1.00, 0.00, -0.00, -1.00, 287.4, 202.8)">r</text><text xml:space="preserve" font-family="FuturaPT-BookObl,Futura PT" font-style="italic" font-size="22.0" fill="#000000" transform="matrix(1.00, 0.00, -0.00, -1.00, 293.2, 202.8)">e</text><text xml:space="preserve" font-family="FuturaPT-BookObl,Futura PT" font-style="italic" font-size="22.0" fill="#000000" transform="matrix(1.00, 0.00, -0.00, -1.00, 303.6, 202.8)">f</text><text xml:space="preserve" font-family="FuturaPT-BookObl,Futura PT" font-style="italic" font-size="22.0" fill="#000000" transform="matrix(1.00, 0.00, -0.00, -1.00, 308.6, 202.8)">e</text><text xml:space="preserve" font-family="FuturaPT-BookObl,Futura PT" font-style="italic" font-size="22.0" fill="#000000" transform="matrix(1.00, 0.00, -0.00, -1.00, 319.0, 202.8)">r</text><text xml:space="preserve" font-family="FuturaPT-BookObl,Futura PT" font-style="italic" font-size="22.0" fill="#000000" transform="matrix(1.00, 0.00, -0.00, -1.00, 324.8, 202.8)">e</text><text xml:space="preserve" font-family="FuturaPT-BookObl,Futura PT" font-style="italic" font-size="22.0" fill="#000000" transform="matrix(1.00, 0.00, -0.00, -1.00, 335.2, 202.8)">n</text><text xml:space="preserve" font-family="FuturaPT-BookObl,Futura PT" font-style="italic" font-size="22.0" fill="#000000" transform="matrix(1.00, 0.00, -0.00, -1.00, 345.3, 202.8)">c</text><text xml:space="preserve" font-family="FuturaPT-BookObl,Futura PT" font-style="italic" font-size="22.0" fill="#000000" transform="matrix(1.00, 0.00, -0.00, -1.00, 354.8, 202.8)">e</text><text xml:space="preserve" font-family="FuturaPT-BookObl,Futura PT" font-style="italic" font-size="22.0" fill="#000000" transform="matrix(1.00, 0.00, -0.00, -1.00, 365.2, 202.8)">s</text><text xml:space="preserve" font-family="FuturaPT-BookObl,Futura PT" font-style="italic" font-size="22.0" fill="#000000" transform="matrix(1.00, 0.00, -0.00, -1.00, 372.6, 202.8)"> </text><text xml:space="preserve" font-family="FuturaPT-BookObl,Futura PT" font-style="italic" font-size="22.0" fill="#000000" transform="matrix(1.00, 0.00, -0.00, -1.00, 377.5, 202.8)">t</text><text xml:space="preserve" font-family="FuturaPT-BookObl,Futura PT" font-style="italic" font-size="22.0" fill="#000000" transform="matrix(1.00, 0.00, -0.00, -1.00, 382.0, 202.8)">o</text><text xml:space="preserve" font-family="FuturaPT-BookObl,Futura PT" font-style="italic" font-size="22.0" fill="#000000" transform="matrix(1.00, 0.00, -0.00, -1.00, 393.4, 202.8)"> </text><text xml:space="preserve" font-family="FuturaPT-BookObl,Futura PT" font-style="italic" font-size="22.0" fill="#000000" transform="matrix(1.00, 0.00, -0.00, -1.00, 398.3, 202.8)">r</text><text xml:space="preserve" font-family="FuturaPT-BookObl,Futura PT" font-style="italic" font-size="22.0" fill="#000000" transform="matrix(1.00, 0.00, -0.00, -1.00, 404.1, 202.8)">e</text><text xml:space="preserve" font-family="FuturaPT-BookObl,Futura PT" font-style="italic" font-size="22.0" fill="#000000" transform="matrix(1.00, 0.00, -0.00, -1.00, 414.5, 202.8)">a</text><text xml:space="preserve" font-family="FuturaPT-BookObl,Futura PT" font-style="italic" font-size="22.0" fill="#000000" transform="matrix(1.00, 0.00, -0.00, -1.00, 425.9, 202.8)">d</text><text xml:space="preserve" font-family="FuturaPT-BookObl,Futura PT" font-style="italic" font-size="22.0" fill="#000000" transform="matrix(1.00, 0.00, -0.00, -1.00, 437.3, 202.8)"> </text><text xml:space="preserve" font-family="FuturaPT-BookObl,Futura PT" font-style="italic" font-size="22.0" fill="#000000" transform="matrix(1.00, 0.00, -0.00, -1.00, 442.2, 202.8)">f</text><text xml:space="preserve" font-family="FuturaPT-BookObl,Futura PT" font-style="italic" font-size="22.0" fill="#000000" transform="matrix(1.00, 0.00, -0.00, -1.00, 447.3, 202.8)">o</text><text xml:space="preserve" font-family="FuturaPT-BookObl,Futura PT" font-style="italic" font-size="22.0" fill="#000000" transform="matrix(1.00, 0.00, -0.00, -1.00, 458.7, 202.8)">r</text><text xml:space="preserve" font-family="FuturaPT-BookObl,Futura PT" font-style="italic" font-size="22.0" fill="#000000" transform="matrix(1.00, 0.00, -0.00, -1.00, 464.9, 202.8)"> </text><text xml:space="preserve" font-family="FuturaPT-BookObl,Futura PT" font-style="italic" font-size="22.0" fill="#000000" transform="matrix(1.00, 0.00, -0.00, -1.00, 469.9, 202.8)">l</text><text xml:space="preserve" font-family="FuturaPT-BookObl,Futura PT" font-style="italic" font-size="22.0" fill="#000000" transform="matrix(1.00, 0.00, -0.00, -1.00, 474.2, 202.8)">a</text><text xml:space="preserve" font-family="FuturaPT-BookObl,Futura PT" font-style="italic" font-size="22.0" fill="#000000" transform="matrix(1.00, 0.00, -0.00, -1.00, 485.6, 202.8)">t</text><text xml:space="preserve" font-family="FuturaPT-BookObl,Futura PT" font-style="italic" font-size="22.0" fill="#000000" transform="matrix(1.00, 0.00, -0.00, -1.00, 490.1, 202.8)">e</text><text xml:space="preserve" font-family="FuturaPT-BookObl,Futura PT" font-style="italic" font-size="22.0" fill="#000000" transform="matrix(1.00, 0.00, -0.00, -1.00, 500.5, 202.8)">r</text><text xml:space="preserve" font-family="FuturaPT-BookObl,Futura PT" font-style="italic" font-size="22.0" fill="#000000" transform="matrix(1.00, 0.00, -0.00, -1.00, 506.8, 202.8)">:</text><text xml:space="preserve" font-family="FuturaPT-BookObl,Futura PT" font-style="italic" font-size="22.0" fill="#000000" transform="matrix(1.00, 0.00, -0.00, -1.00, 511.6, 202.8)"> </text><text xml:space="preserve" font-family="FuturaPT-BookObl,Futura PT" font-style="italic" font-size="37.6" fill="#000000" transform="matrix(1.00, 0.00, -0.00, -1.00, 222.4, 169.0)">-</text><text xml:space="preserve" font-family="FuturaPT-BookObl,Futura PT" font-style="italic" font-size="22.0" fill="#61C59F" transform="matrix(1.00, 0.00, -0.00, -1.00, 246.0, 173.8)">h</text><text xml:space="preserve" font-family="FuturaPT-BookObl,Futura PT" font-style="italic" font-size="22.0" fill="#61C59F" transform="matrix(1.00, 0.00, -0.00, -1.00, 256.1, 173.8)">t</text><text xml:space="preserve" font-family="FuturaPT-BookObl,Futura PT" font-style="italic" font-size="22.0" fill="#61C59F" transform="matrix(1.00, 0.00, -0.00, -1.00, 261.0, 173.8)">t</text><text xml:space="preserve" font-family="FuturaPT-BookObl,Futura PT" font-style="italic" font-size="22.0" fill="#61C59F" transform="matrix(1.00, 0.00, -0.00, -1.00, 265.5, 173.8)">p</text><text xml:space="preserve" font-family="FuturaPT-BookObl,Futura PT" font-style="italic" font-size="22.0" fill="#61C59F" transform="matrix(1.00, 0.00, -0.00, -1.00, 276.9, 173.8)">:</text><text xml:space="preserve" font-family="FuturaPT-BookObl,Futura PT" font-style="italic" font-size="22.0" fill="#61C59F" transform="matrix(1.00, 0.00, -0.00, -1.00, 281.7, 173.8)">/</text><text xml:space="preserve" font-family="FuturaPT-BookObl,Futura PT" font-style="italic" font-size="22.0" fill="#61C59F" transform="matrix(1.00, 0.00, -0.00, -1.00, 294.8, 173.8)">/</text><text xml:space="preserve" font-family="FuturaPT-BookObl,Futura PT" font-style="italic" font-size="22.0" fill="#61C59F" transform="matrix(1.00, 0.00, -0.00, -1.00, 307.9, 173.8)">r</text><text xml:space="preserve" font-family="FuturaPT-BookObl,Futura PT" font-style="italic" font-size="22.0" fill="#61C59F" transform="matrix(1.00, 0.00, -0.00, -1.00, 313.6, 173.8)">e</text><text xml:space="preserve" font-family="FuturaPT-BookObl,Futura PT" font-style="italic" font-size="22.0" fill="#61C59F" transform="matrix(1.00, 0.00, -0.00, -1.00, 324.0, 173.8)">a</text><text xml:space="preserve" font-family="FuturaPT-BookObl,Futura PT" font-style="italic" font-size="22.0" fill="#61C59F" transform="matrix(1.00, 0.00, -0.00, -1.00, 335.4, 173.8)">d</text><text xml:space="preserve" font-family="FuturaPT-BookObl,Futura PT" font-style="italic" font-size="22.0" fill="#61C59F" transform="matrix(1.00, 0.00, -0.00, -1.00, 346.8, 173.8)">w</text><text xml:space="preserve" font-family="FuturaPT-BookObl,Futura PT" font-style="italic" font-size="22.0" fill="#61C59F" transform="matrix(1.00, 0.00, -0.00, -1.00, 361.6, 173.8)">r</text><text xml:space="preserve" font-family="FuturaPT-BookObl,Futura PT" font-style="italic" font-size="22.0" fill="#61C59F" transform="matrix(1.00, 0.00, -0.00, -1.00, 367.9, 173.8)">i</text><text xml:space="preserve" font-family="FuturaPT-BookObl,Futura PT" font-style="italic" font-size="22.0" fill="#61C59F" transform="matrix(1.00, 0.00, -0.00, -1.00, 372.3, 173.8)">t</text><text xml:space="preserve" font-family="FuturaPT-BookObl,Futura PT" font-style="italic" font-size="22.0" fill="#61C59F" transform="matrix(1.00, 0.00, -0.00, -1.00, 376.7, 173.8)">e</text><text xml:space="preserve" font-family="FuturaPT-BookObl,Futura PT" font-style="italic" font-size="22.0" fill="#61C59F" transform="matrix(1.00, 0.00, -0.00, -1.00, 387.2, 173.8)">.</text><text xml:space="preserve" font-family="FuturaPT-BookObl,Futura PT" font-style="italic" font-size="22.0" fill="#61C59F" transform="matrix(1.00, 0.00, -0.00, -1.00, 392.0, 173.8)">c</text><text xml:space="preserve" font-family="FuturaPT-BookObl,Futura PT" font-style="italic" font-size="22.0" fill="#61C59F" transform="matrix(1.00, 0.00, -0.00, -1.00, 401.4, 173.8)">o</text><text xml:space="preserve" font-family="FuturaPT-BookObl,Futura PT" font-style="italic" font-size="22.0" fill="#61C59F" transform="matrix(1.00, 0.00, -0.00, -1.00, 412.8, 173.8)">m</text><text xml:space="preserve" font-family="FuturaPT-BookObl,Futura PT" font-style="italic" font-size="22.0" fill="#61C59F" transform="matrix(1.00, 0.00, -0.00, -1.00, 427.7, 173.8)">/</text><text xml:space="preserve" font-family="FuturaPT-BookObl,Futura PT" font-style="italic" font-size="22.0" fill="#61C59F" transform="matrix(1.00, 0.00, -0.00, -1.00, 440.7, 173.8)">2</text><text xml:space="preserve" font-family="FuturaPT-BookObl,Futura PT" font-style="italic" font-size="22.0" fill="#61C59F" transform="matrix(1.00, 0.00, -0.00, -1.00, 453.0, 173.8)">0</text><text xml:space="preserve" font-family="FuturaPT-BookObl,Futura PT" font-style="italic" font-size="22.0" fill="#61C59F" transform="matrix(1.00, 0.00, -0.00, -1.00, 462.5, 173.8)">1</text><text xml:space="preserve" font-family="FuturaPT-BookObl,Futura PT" font-style="italic" font-size="22.0" fill="#61C59F" transform="matrix(1.00, 0.00, -0.00, -1.00, 471.8, 173.8)">3</text><text xml:space="preserve" font-family="FuturaPT-BookObl,Futura PT" font-style="italic" font-size="22.0" fill="#61C59F" transform="matrix(1.00, 0.00, -0.00, -1.00, 484.1, 173.8)">/</text><text xml:space="preserve" font-family="FuturaPT-BookObl,Futura PT" font-style="italic" font-size="22.0" fill="#61C59F" transform="matrix(1.00, 0.00, -0.00, -1.00, 497.2, 173.8)">0</text><text xml:space="preserve" font-family="FuturaPT-BookObl,Futura PT" font-style="italic" font-size="22.0" fill="#61C59F" transform="matrix(1.00, 0.00, -0.00, -1.00, 509.4, 173.8)">9</text><text xml:space="preserve" font-family="FuturaPT-BookObl,Futura PT" font-style="italic" font-size="22.0" fill="#61C59F" transform="matrix(1.00, 0.00, -0.00, -1.00, 521.7, 173.8)">/</text><text xml:space="preserve" font-family="FuturaPT-BookObl,Futura PT" font-style="italic" font-size="22.0" fill="#61C59F" transform="matrix(1.00, 0.00, -0.00, -1.00, 534.8, 173.8)">3</text><text xml:space="preserve" font-family="FuturaPT-BookObl,Futura PT" font-style="italic" font-size="22.0" fill="#61C59F" transform="matrix(1.00, 0.00, -0.00, -1.00, 547.1, 173.8)">0</text><text xml:space="preserve" font-family="FuturaPT-BookObl,Futura PT" font-style="italic" font-size="22.0" fill="#61C59F" transform="matrix(1.00, 0.00, -0.00, -1.00, 559.3, 173.8)">/</text><text xml:space="preserve" font-family="FuturaPT-BookObl,Futura PT" font-style="italic" font-size="22.0" fill="#61C59F" transform="matrix(1.00, 0.00, -0.00, -1.00, 572.4, 173.8)">u</text><text xml:space="preserve" font-family="FuturaPT-BookObl,Futura PT" font-style="italic" font-size="22.0" fill="#61C59F" transform="matrix(1.00, 0.00, -0.00, -1.00, 582.4, 173.8)">n</text><text xml:space="preserve" font-family="FuturaPT-BookObl,Futura PT" font-style="italic" font-size="22.0" fill="#61C59F" transform="matrix(1.00, 0.00, -0.00, -1.00, 592.5, 173.8)">d</text><text xml:space="preserve" font-family="FuturaPT-BookObl,Futura PT" font-style="italic" font-size="22.0" fill="#61C59F" transform="matrix(1.00, 0.00, -0.00, -1.00, 603.9, 173.8)">e</text><text xml:space="preserve" font-family="FuturaPT-BookObl,Futura PT" font-style="italic" font-size="22.0" fill="#61C59F" transform="matrix(1.00, 0.00, -0.00, -1.00, 614.3, 173.8)">r</text><text xml:space="preserve" font-family="FuturaPT-BookObl,Futura PT" font-style="italic" font-size="22.0" fill="#61C59F" transform="matrix(1.00, 0.00, -0.00, -1.00, 620.4, 173.8)">s</text><text xml:space="preserve" font-family="FuturaPT-BookObl,Futura PT" font-style="italic" font-size="22.0" fill="#61C59F" transform="matrix(1.00, 0.00, -0.00, -1.00, 627.9, 173.8)">t</text><text xml:space="preserve" font-family="FuturaPT-BookObl,Futura PT" font-style="italic" font-size="22.0" fill="#61C59F" transform="matrix(1.00, 0.00, -0.00, -1.00, 632.4, 173.8)">a</text><text xml:space="preserve" font-family="FuturaPT-BookObl,Futura PT" font-style="italic" font-size="22.0" fill="#61C59F" transform="matrix(1.00, 0.00, -0.00, -1.00, 643.8, 173.8)">n</text><text xml:space="preserve" font-family="FuturaPT-BookObl,Futura PT" font-style="italic" font-size="22.0" fill="#61C59F" transform="matrix(1.00, 0.00, -0.00, -1.00, 653.9, 173.8)">d</text><text xml:space="preserve" font-family="FuturaPT-BookObl,Futura PT" font-style="italic" font-size="22.0" fill="#61C59F" transform="matrix(1.00, 0.00, -0.00, -1.00, 665.3, 173.8)">i</text><text xml:space="preserve" font-family="FuturaPT-BookObl,Futura PT" font-style="italic" font-size="22.0" fill="#61C59F" transform="matrix(1.00, 0.00, -0.00, -1.00, 669.6, 173.8)">n</text><text xml:space="preserve" font-family="FuturaPT-BookObl,Futura PT" font-style="italic" font-size="22.0" fill="#61C59F" transform="matrix(1.00, 0.00, -0.00, -1.00, 679.7, 173.8)">g</text><text xml:space="preserve" font-family="FuturaPT-BookObl,Futura PT" font-style="italic" font-size="22.0" fill="#61C59F" transform="matrix(1.00, 0.00, -0.00, -1.00, 691.1, 173.8)">-</text><text xml:space="preserve" font-family="FuturaPT-BookObl,Futura PT" font-style="italic" font-size="22.0" fill="#61C59F" transform="matrix(1.00, 0.00, -0.00, -1.00, 697.9, 173.8)">g</text><text xml:space="preserve" font-family="FuturaPT-BookObl,Futura PT" font-style="italic" font-size="22.0" fill="#61C59F" transform="matrix(1.00, 0.00, -0.00, -1.00, 709.3, 173.8)">i</text><text xml:space="preserve" font-family="FuturaPT-BookObl,Futura PT" font-style="italic" font-size="22.0" fill="#61C59F" transform="matrix(1.00, 0.00, -0.00, -1.00, 713.6, 173.8)">t</text><text xml:space="preserve" font-family="FuturaPT-BookObl,Futura PT" font-style="italic" font-size="22.0" fill="#61C59F" transform="matrix(1.00, 0.00, -0.00, -1.00, 718.1, 173.8)">h</text><text xml:space="preserve" font-family="FuturaPT-BookObl,Futura PT" font-style="italic" font-size="22.0" fill="#61C59F" transform="matrix(1.00, 0.00, -0.00, -1.00, 728.2, 173.8)">u</text><text xml:space="preserve" font-family="FuturaPT-BookObl,Futura PT" font-style="italic" font-size="22.0" fill="#61C59F" transform="matrix(1.00, 0.00, -0.00, -1.00, 738.2, 173.8)">b</text><text xml:space="preserve" font-family="FuturaPT-BookObl,Futura PT" font-style="italic" font-size="22.0" fill="#61C59F" transform="matrix(1.00, 0.00, -0.00, -1.00, 749.6, 173.8)">-</text><text xml:space="preserve" font-family="FuturaPT-BookObl,Futura PT" font-style="italic" font-size="22.0" fill="#61C59F" transform="matrix(1.00, 0.00, -0.00, -1.00, 756.4, 173.8)">a</text><text xml:space="preserve" font-family="FuturaPT-BookObl,Futura PT" font-style="italic" font-size="22.0" fill="#61C59F" transform="matrix(1.00, 0.00, -0.00, -1.00, 767.8, 173.8)">-</text><text xml:space="preserve" font-family="FuturaPT-BookObl,Futura PT" font-style="italic" font-size="22.0" fill="#61C59F" transform="matrix(1.00, 0.00, -0.00, -1.00, 774.6, 173.8)">j</text><text xml:space="preserve" font-family="FuturaPT-BookObl,Futura PT" font-style="italic" font-size="22.0" fill="#61C59F" transform="matrix(1.00, 0.00, -0.00, -1.00, 779.0, 173.8)">o</text><text xml:space="preserve" font-family="FuturaPT-BookObl,Futura PT" font-style="italic" font-size="22.0" fill="#61C59F" transform="matrix(1.00, 0.00, -0.00, -1.00, 790.4, 173.8)">u</text><text xml:space="preserve" font-family="FuturaPT-BookObl,Futura PT" font-style="italic" font-size="22.0" fill="#61C59F" transform="matrix(1.00, 0.00, -0.00, -1.00, 800.4, 173.8)">r</text><text xml:space="preserve" font-family="FuturaPT-BookObl,Futura PT" font-style="italic" font-size="22.0" fill="#61C59F" transform="matrix(1.00, 0.00, -0.00, -1.00, 806.7, 173.8)">n</text><text xml:space="preserve" font-family="FuturaPT-BookObl,Futura PT" font-style="italic" font-size="22.0" fill="#61C59F" transform="matrix(1.00, 0.00, -0.00, -1.00, 816.8, 173.8)">e</text><text xml:space="preserve" font-family="FuturaPT-BookObl,Futura PT" font-style="italic" font-size="22.0" fill="#61C59F" transform="matrix(1.00, 0.00, -0.00, -1.00, 827.2, 173.8)">y</text><text xml:space="preserve" font-family="FuturaPT-BookObl,Futura PT" font-style="italic" font-size="22.0" fill="#61C59F" transform="matrix(1.00, 0.00, -0.00, -1.00, 837.1, 173.8)">-</text><text xml:space="preserve" font-family="FuturaPT-BookObl,Futura PT" font-style="italic" font-size="22.0" fill="#61C59F" transform="matrix(1.00, 0.00, -0.00, -1.00, 843.9, 173.8)">f</text><text xml:space="preserve" font-family="FuturaPT-BookObl,Futura PT" font-style="italic" font-size="22.0" fill="#61C59F" transform="matrix(1.00, 0.00, -0.00, -1.00, 849.0, 173.8)">o</text><text xml:space="preserve" font-family="FuturaPT-BookObl,Futura PT" font-style="italic" font-size="22.0" fill="#61C59F" transform="matrix(1.00, 0.00, -0.00, -1.00, 860.4, 173.8)">r</text><text xml:space="preserve" font-family="FuturaPT-BookObl,Futura PT" font-style="italic" font-size="22.0" fill="#61C59F" transform="matrix(1.00, 0.00, -0.00, -1.00, 867.6, 173.8)">-</text><text xml:space="preserve" font-family="FuturaPT-BookObl,Futura PT" font-style="italic" font-size="22.0" fill="#61C59F" transform="matrix(1.00, 0.00, -0.00, -1.00, 874.4, 173.8)">b</text><text xml:space="preserve" font-family="FuturaPT-BookObl,Futura PT" font-style="italic" font-size="22.0" fill="#61C59F" transform="matrix(1.00, 0.00, -0.00, -1.00, 885.8, 173.8)">e</text><text xml:space="preserve" font-family="FuturaPT-BookObl,Futura PT" font-style="italic" font-size="22.0" fill="#61C59F" transform="matrix(1.00, 0.00, -0.00, -1.00, 896.2, 173.8)">g</text><text xml:space="preserve" font-family="FuturaPT-BookObl,Futura PT" font-style="italic" font-size="22.0" fill="#61C59F" transform="matrix(1.00, 0.00, -0.00, -1.00, 907.5, 173.8)">i</text><text xml:space="preserve" font-family="FuturaPT-BookObl,Futura PT" font-style="italic" font-size="22.0" fill="#61C59F" transform="matrix(1.00, 0.00, -0.00, -1.00, 911.9, 173.8)">n</text><text xml:space="preserve" font-family="FuturaPT-BookObl,Futura PT" font-style="italic" font-size="22.0" fill="#61C59F" transform="matrix(1.00, 0.00, -0.00, -1.00, 922.0, 173.8)">n</text><text xml:space="preserve" font-family="FuturaPT-BookObl,Futura PT" font-style="italic" font-size="22.0" fill="#61C59F" transform="matrix(1.00, 0.00, -0.00, -1.00, 932.1, 173.8)">e</text><text xml:space="preserve" font-family="FuturaPT-BookObl,Futura PT" font-style="italic" font-size="22.0" fill="#61C59F" transform="matrix(1.00, 0.00, -0.00, -1.00, 942.5, 173.8)">r</text><text xml:space="preserve" font-family="FuturaPT-BookObl,Futura PT" font-style="italic" font-size="22.0" fill="#61C59F" transform="matrix(1.00, 0.00, -0.00, -1.00, 948.6, 173.8)">s</text><text xml:space="preserve" font-family="FuturaPT-BookObl,Futura PT" font-style="italic" font-size="22.0" fill="#61C59F" transform="matrix(1.00, 0.00, -0.00, -1.00, 956.1, 173.8)">-</text><text xml:space="preserve" font-family="FuturaPT-BookObl,Futura PT" font-style="italic" font-size="22.0" fill="#61C59F" transform="matrix(1.00, 0.00, -0.00, -1.00, 962.9, 173.8)">p</text><text xml:space="preserve" font-family="FuturaPT-BookObl,Futura PT" font-style="italic" font-size="22.0" fill="#61C59F" transform="matrix(1.00, 0.00, -0.00, -1.00, 974.3, 173.8)">a</text><text xml:space="preserve" font-family="FuturaPT-BookObl,Futura PT" font-style="italic" font-size="22.0" fill="#61C59F" transform="matrix(1.00, 0.00, -0.00, -1.00, 985.7, 173.8)">r</text><text xml:space="preserve" font-family="FuturaPT-BookObl,Futura PT" font-style="italic" font-size="22.0" fill="#61C59F" transform="matrix(1.00, 0.00, -0.00, -1.00, 992.4, 173.8)">t</text><text xml:space="preserve" font-family="FuturaPT-BookObl,Futura PT" font-style="italic" font-size="22.0" fill="#61C59F" transform="matrix(1.00, 0.00, -0.00, -1.00, 996.9, 173.8)">-</text><text xml:space="preserve" font-family="FuturaPT-BookObl,Futura PT" font-style="italic" font-size="22.0" fill="#61C59F" transform="matrix(1.00, 0.00, -0.00, -1.00, 1003.7, 173.8)">1</text><text xml:space="preserve" font-family="FuturaPT-BookObl,Futura PT" font-style="italic" font-size="22.0" fill="#000000" transform="matrix(1.00, 0.00, -0.00, -1.00, 1016.0, 173.8)"> </text><g><clipPath id="clip0x7fe149e064c0"><path d="M 245.0 168.7 L 1016.0 168.7 L 1016.0 172.3 L 245.0 172.3 Z M 245.0 168.7 "></path></clipPath><g clip-path="url(#clip0x7fe149e064c0)"><path d="M 52.6 58.7 L 822.6 58.7 " fill="none" stroke="#61C59F" stroke-width="1.58" transform="matrix(1.00, 0.00, 0.00, -1.00, 193.4, 229.2)"></path></g></g><text xml:space="preserve" font-family="FuturaPT-BookObl,Futura PT" font-style="italic" font-size="37.6" fill="#000000" transform="matrix(1.00, 0.00, -0.00, -1.00, 222.4, 140.0)">-</text><text xml:space="preserve" font-family="FuturaPT-BookObl,Futura PT" font-style="italic" font-size="22.0" fill="#61C59F" transform="matrix(1.00, 0.00, -0.00, -1.00, 246.0, 144.8)">h</text><text xml:space="preserve" font-family="FuturaPT-BookObl,Futura PT" font-style="italic" font-size="22.0" fill="#61C59F" transform="matrix(1.00, 0.00, -0.00, -1.00, 256.1, 144.8)">t</text><text xml:space="preserve" font-family="FuturaPT-BookObl,Futura PT" font-style="italic" font-size="22.0" fill="#61C59F" transform="matrix(1.00, 0.00, -0.00, -1.00, 261.0, 144.8)">t</text><text xml:space="preserve" font-family="FuturaPT-BookObl,Futura PT" font-style="italic" font-size="22.0" fill="#61C59F" transform="matrix(1.00, 0.00, -0.00, -1.00, 265.5, 144.8)">p</text><text xml:space="preserve" font-family="FuturaPT-BookObl,Futura PT" font-style="italic" font-size="22.0" fill="#61C59F" transform="matrix(1.00, 0.00, -0.00, -1.00, 276.9, 144.8)">s</text><text xml:space="preserve" font-family="FuturaPT-BookObl,Futura PT" font-style="italic" font-size="22.0" fill="#61C59F" transform="matrix(1.00, 0.00, -0.00, -1.00, 284.3, 144.8)">:</text><text xml:space="preserve" font-family="FuturaPT-BookObl,Futura PT" font-style="italic" font-size="22.0" fill="#61C59F" transform="matrix(1.00, 0.00, -0.00, -1.00, 289.2, 144.8)">/</text><text xml:space="preserve" font-family="FuturaPT-BookObl,Futura PT" font-style="italic" font-size="22.0" fill="#61C59F" transform="matrix(1.00, 0.00, -0.00, -1.00, 302.3, 144.8)">/</text><text xml:space="preserve" font-family="FuturaPT-BookObl,Futura PT" font-style="italic" font-size="22.0" fill="#61C59F" transform="matrix(1.00, 0.00, -0.00, -1.00, 315.3, 144.8)">t</text><text xml:space="preserve" font-family="FuturaPT-BookObl,Futura PT" font-style="italic" font-size="22.0" fill="#61C59F" transform="matrix(1.00, 0.00, -0.00, -1.00, 319.8, 144.8)">r</text><text xml:space="preserve" font-family="FuturaPT-BookObl,Futura PT" font-style="italic" font-size="22.0" fill="#61C59F" transform="matrix(1.00, 0.00, -0.00, -1.00, 326.8, 144.8)">y</text><text xml:space="preserve" font-family="FuturaPT-BookObl,Futura PT" font-style="italic" font-size="22.0" fill="#61C59F" transform="matrix(1.00, 0.00, -0.00, -1.00, 336.2, 144.8)">.</text><text xml:space="preserve" font-family="FuturaPT-BookObl,Futura PT" font-style="italic" font-size="22.0" fill="#61C59F" transform="matrix(1.00, 0.00, -0.00, -1.00, 341.1, 144.8)">g</text><text xml:space="preserve" font-family="FuturaPT-BookObl,Futura PT" font-style="italic" font-size="22.0" fill="#61C59F" transform="matrix(1.00, 0.00, -0.00, -1.00, 352.4, 144.8)">i</text><text xml:space="preserve" font-family="FuturaPT-BookObl,Futura PT" font-style="italic" font-size="22.0" fill="#61C59F" transform="matrix(1.00, 0.00, -0.00, -1.00, 356.8, 144.8)">t</text><text xml:space="preserve" font-family="FuturaPT-BookObl,Futura PT" font-style="italic" font-size="22.0" fill="#61C59F" transform="matrix(1.00, 0.00, -0.00, -1.00, 361.3, 144.8)">h</text><text xml:space="preserve" font-family="FuturaPT-BookObl,Futura PT" font-style="italic" font-size="22.0" fill="#61C59F" transform="matrix(1.00, 0.00, -0.00, -1.00, 371.4, 144.8)">u</text><text xml:space="preserve" font-family="FuturaPT-BookObl,Futura PT" font-style="italic" font-size="22.0" fill="#61C59F" transform="matrix(1.00, 0.00, -0.00, -1.00, 381.4, 144.8)">b</text><text xml:space="preserve" font-family="FuturaPT-BookObl,Futura PT" font-style="italic" font-size="22.0" fill="#61C59F" transform="matrix(1.00, 0.00, -0.00, -1.00, 392.8, 144.8)">.</text><text xml:space="preserve" font-family="FuturaPT-BookObl,Futura PT" font-style="italic" font-size="22.0" fill="#61C59F" transform="matrix(1.00, 0.00, -0.00, -1.00, 397.6, 144.8)">i</text><text xml:space="preserve" font-family="FuturaPT-BookObl,Futura PT" font-style="italic" font-size="22.0" fill="#61C59F" transform="matrix(1.00, 0.00, -0.00, -1.00, 401.9, 144.8)">o</text><text xml:space="preserve" font-family="FuturaPT-BookObl,Futura PT" font-style="italic" font-size="22.0" fill="#61C59F" transform="matrix(1.00, 0.00, -0.00, -1.00, 413.3, 144.8)">/</text><text xml:space="preserve" font-family="FuturaPT-BookObl,Futura PT" font-style="italic" font-size="22.0" fill="#61C59F" transform="matrix(1.00, 0.00, -0.00, -1.00, 426.4, 144.8)">l</text><text xml:space="preserve" font-family="FuturaPT-BookObl,Futura PT" font-style="italic" font-size="22.0" fill="#61C59F" transform="matrix(1.00, 0.00, -0.00, -1.00, 430.8, 144.8)">e</text><text xml:space="preserve" font-family="FuturaPT-BookObl,Futura PT" font-style="italic" font-size="22.0" fill="#61C59F" transform="matrix(1.00, 0.00, -0.00, -1.00, 441.2, 144.8)">v</text><text xml:space="preserve" font-family="FuturaPT-BookObl,Futura PT" font-style="italic" font-size="22.0" fill="#61C59F" transform="matrix(1.00, 0.00, -0.00, -1.00, 450.3, 144.8)">e</text><text xml:space="preserve" font-family="FuturaPT-BookObl,Futura PT" font-style="italic" font-size="22.0" fill="#61C59F" transform="matrix(1.00, 0.00, -0.00, -1.00, 460.7, 144.8)">l</text><text xml:space="preserve" font-family="FuturaPT-BookObl,Futura PT" font-style="italic" font-size="22.0" fill="#61C59F" transform="matrix(1.00, 0.00, -0.00, -1.00, 465.1, 144.8)">s</text><text xml:space="preserve" font-family="FuturaPT-BookObl,Futura PT" font-style="italic" font-size="22.0" fill="#61C59F" transform="matrix(1.00, 0.00, -0.00, -1.00, 472.5, 144.8)">/</text><text xml:space="preserve" font-family="FuturaPT-BookObl,Futura PT" font-style="italic" font-size="22.0" fill="#61C59F" transform="matrix(1.00, 0.00, -0.00, -1.00, 485.6, 144.8)">1</text><text xml:space="preserve" font-family="FuturaPT-BookObl,Futura PT" font-style="italic" font-size="22.0" fill="#61C59F" transform="matrix(1.00, 0.00, -0.00, -1.00, 497.9, 144.8)">/</text><text xml:space="preserve" font-family="FuturaPT-BookObl,Futura PT" font-style="italic" font-size="22.0" fill="#61C59F" transform="matrix(1.00, 0.00, -0.00, -1.00, 511.0, 144.8)">c</text><text xml:space="preserve" font-family="FuturaPT-BookObl,Futura PT" font-style="italic" font-size="22.0" fill="#61C59F" transform="matrix(1.00, 0.00, -0.00, -1.00, 520.5, 144.8)">h</text><text xml:space="preserve" font-family="FuturaPT-BookObl,Futura PT" font-style="italic" font-size="22.0" fill="#61C59F" transform="matrix(1.00, 0.00, -0.00, -1.00, 530.5, 144.8)">a</text><text xml:space="preserve" font-family="FuturaPT-BookObl,Futura PT" font-style="italic" font-size="22.0" fill="#61C59F" transform="matrix(1.00, 0.00, -0.00, -1.00, 541.9, 144.8)">l</text><text xml:space="preserve" font-family="FuturaPT-BookObl,Futura PT" font-style="italic" font-size="22.0" fill="#61C59F" transform="matrix(1.00, 0.00, -0.00, -1.00, 546.3, 144.8)">l</text><text xml:space="preserve" font-family="FuturaPT-BookObl,Futura PT" font-style="italic" font-size="22.0" fill="#61C59F" transform="matrix(1.00, 0.00, -0.00, -1.00, 550.7, 144.8)">e</text><text xml:space="preserve" font-family="FuturaPT-BookObl,Futura PT" font-style="italic" font-size="22.0" fill="#61C59F" transform="matrix(1.00, 0.00, -0.00, -1.00, 561.1, 144.8)">n</text><text xml:space="preserve" font-family="FuturaPT-BookObl,Futura PT" font-style="italic" font-size="22.0" fill="#61C59F" transform="matrix(1.00, 0.00, -0.00, -1.00, 571.2, 144.8)">g</text><text xml:space="preserve" font-family="FuturaPT-BookObl,Futura PT" font-style="italic" font-size="22.0" fill="#61C59F" transform="matrix(1.00, 0.00, -0.00, -1.00, 582.5, 144.8)">e</text><text xml:space="preserve" font-family="FuturaPT-BookObl,Futura PT" font-style="italic" font-size="22.0" fill="#61C59F" transform="matrix(1.00, 0.00, -0.00, -1.00, 592.9, 144.8)">s</text><text xml:space="preserve" font-family="FuturaPT-BookObl,Futura PT" font-style="italic" font-size="22.0" fill="#61C59F" transform="matrix(1.00, 0.00, -0.00, -1.00, 600.4, 144.8)">/</text><text xml:space="preserve" font-family="FuturaPT-BookObl,Futura PT" font-style="italic" font-size="22.0" fill="#61C59F" transform="matrix(1.00, 0.00, -0.00, -1.00, 613.5, 144.8)">1</text><g><clipPath id="clip0x7fe12b60de40"><path d="M 245.0 139.7 L 625.8 139.7 L 625.8 143.3 L 245.0 143.3 Z M 245.0 139.7 "></path></clipPath><g clip-path="url(#clip0x7fe12b60de40)"><path d="M 52.6 87.7 L 432.4 87.7 " fill="none" stroke="#61C59F" stroke-width="1.58" transform="matrix(1.00, 0.00, 0.00, -1.00, 193.4, 229.2)"></path></g></g></g></svg>