<?xml version="1.0" encoding="UTF-8" standalone="no"?><svg xmlns="http://www.w3.org/2000/svg" xmlns:xlink="http://www.w3.org/1999/xlink" clip-rule="evenodd" stroke-miterlimit="10" viewBox="0 0 1044 198"><desc>SVG generated by Keynote</desc><defs></defs><g transform="matrix(1.00, 0.00, -0.00, -1.00, 0.0, 198.0)"><text xml:space="preserve" font-family="FuturaPT-Book,Futura PT" font-size="96.0" fill="#52575F" transform="matrix(1.00, 0.00, -0.00, -1.00, -6.2, 126.2)">F</text><text xml:space="preserve" font-family="FuturaPT-Book,Futura PT" font-size="96.0" fill="#52575F" transform="matrix(1.00, 0.00, -0.00, -1.00, 34.5, 126.2)">i</text><text xml:space="preserve" font-family="FuturaPT-Book,Futura PT" font-size="96.0" fill="#52575F" transform="matrix(1.00, 0.00, -0.00, -1.00, 53.5, 126.2)">n</text><text xml:space="preserve" font-family="FuturaPT-Book,Futura PT" font-size="96.0" fill="#52575F" transform="matrix(1.00, 0.00, -0.00, -1.00, 97.7, 126.2)">i</text><text xml:space="preserve" font-family="FuturaPT-Book,Futura PT" font-size="96.0" fill="#52575F" transform="matrix(1.00, 0.00, -0.00, -1.00, 116.7, 126.2)">s</text><text xml:space="preserve" font-family="FuturaPT-Book,Futura PT" font-size="96.0" fill="#52575F" transform="matrix(1.00, 0.00, -0.00, -1.00, 149.5, 126.2)">h</text><text xml:space="preserve" font-family="FuturaPT-Book,Futura PT" font-size="96.0" fill="#52575F" transform="matrix(1.00, 0.00, -0.00, -1.00, 193.7, 126.2)"> </text><text xml:space="preserve" font-family="FuturaPT-Book,Futura PT" font-size="96.0" fill="#52575F" transform="matrix(1.00, 0.00, -0.00, -1.00, 215.1, 126.2)">u</text><text xml:space="preserve" font-family="FuturaPT-Book,Futura PT" font-size="96.0" fill="#52575F" transform="matrix(1.00, 0.00, -0.00, -1.00, 258.8, 126.2)">p</text><text xml:space="preserve" font-family="FuturaPT-Book,Futura PT" font-size="96.0" fill="#52575F" transform="matrix(1.00, 0.00, -0.00, -1.00, 308.4, 126.2)">l</text><text xml:space="preserve" font-family="FuturaPT-Book,Futura PT" font-size="96.0" fill="#52575F" transform="matrix(1.00, 0.00, -0.00, -1.00, 327.4, 126.2)">o</text><text xml:space="preserve" font-family="FuturaPT-Book,Futura PT" font-size="96.0" fill="#52575F" transform="matrix(1.00, 0.00, -0.00, -1.00, 376.7, 126.2)">a</text><text xml:space="preserve" font-family="FuturaPT-Book,Futura PT" font-size="96.0" fill="#52575F" transform="matrix(1.00, 0.00, -0.00, -1.00, 426.3, 126.2)">d</text><text xml:space="preserve" font-family="FuturaPT-Book,Futura PT" font-size="96.0" fill="#52575F" transform="matrix(1.00, 0.00, -0.00, -1.00, 474.8, 126.2)">i</text><text xml:space="preserve" font-family="FuturaPT-Book,Futura PT" font-size="96.0" fill="#52575F" transform="matrix(1.00, 0.00, -0.00, -1.00, 493.9, 126.2)">n</text><text xml:space="preserve" font-family="FuturaPT-Book,Futura PT" font-size="96.0" fill="#52575F" transform="matrix(1.00, 0.00, -0.00, -1.00, 538.0, 126.2)">g</text><text xml:space="preserve" font-family="FuturaPT-Book,Futura PT" font-size="96.0" fill="#52575F" transform="matrix(1.00, 0.00, -0.00, -1.00, 587.6, 126.2)"> </text><text xml:space="preserve" font-family="FuturaPT-Book,Futura PT" font-size="96.0" fill="#52575F" transform="matrix(1.00, 0.00, -0.00, -1.00, 609.0, 126.2)">a</text><text xml:space="preserve" font-family="FuturaPT-Book,Futura PT" font-size="96.0" fill="#52575F" transform="matrix(1.00, 0.00, -0.00, -1.00, 658.5, 126.2)"> </text><text xml:space="preserve" font-family="FuturaPT-Book,Futura PT" font-size="96.0" fill="#52575F" transform="matrix(1.00, 0.00, -0.00, -1.00, 679.9, 126.2)">c</text><text xml:space="preserve" font-family="FuturaPT-Book,Futura PT" font-size="96.0" fill="#52575F" transform="matrix(1.00, 0.00, -0.00, -1.00, 721.0, 126.2)">o</text><text xml:space="preserve" font-family="FuturaPT-Book,Futura PT" font-size="96.0" fill="#52575F" transform="matrix(1.00, 0.00, -0.00, -1.00, 770.3, 126.2)">d</text><text xml:space="preserve" font-family="FuturaPT-Book,Futura PT" font-size="96.0" fill="#52575F" transform="matrix(1.00, 0.00, -0.00, -1.00, 819.9, 126.2)">e</text><text xml:space="preserve" font-family="FuturaPT-Book,Futura PT" font-size="96.0" fill="#52575F" transform="matrix(1.00, 0.00, -0.00, -1.00, 865.1, 126.2)">b</text><text xml:space="preserve" font-family="FuturaPT-Book,Futura PT" font-size="96.0" fill="#52575F" transform="matrix(1.00, 0.00, -0.00, -1.00, 914.6, 126.2)">a</text><text xml:space="preserve" font-family="FuturaPT-Book,Futura PT" font-size="96.0" fill="#52575F" transform="matrix(1.00, 0.00, -0.00, -1.00, 964.2, 126.2)">s</text><text xml:space="preserve" font-family="FuturaPT-Book,Futura PT" font-size="96.0" fill="#52575F" transform="matrix(1.00, 0.00, -0.00, -1.00, 997.0, 126.2)">e</text><text xml:space="preserve" font-family="FuturaPT-Book,Futura PT" font-size="96.0" fill="#52575F" transform="matrix(1.00, 0.00, -0.00, -1.00, 1042.2, 126.2)"> </text><text xml:space="preserve" font-family="FuturaPT-Book,Futura PT" font-size="96.0" fill="#52575F" transform="matrix(1.00, 0.00, -0.00, -1.00, 292.9, 3.2)">o</text><text xml:space="preserve" font-family="FuturaPT-Book,Futura PT" font-size="96.0" fill="#52575F" transform="matrix(1.00, 0.00, -0.00, -1.00, 342.3, 3.2)">n</text><text xml:space="preserve" font-family="FuturaPT-Book,Futura PT" font-size="96.0" fill="#52575F" transform="matrix(1.00, 0.00, -0.00, -1.00, 386.4, 3.2)">t</text><text xml:space="preserve" font-family="FuturaPT-Book,Futura PT" font-size="96.0" fill="#52575F" transform="matrix(1.00, 0.00, -0.00, -1.00, 406.0, 3.2)">o</text><text xml:space="preserve" font-family="FuturaPT-Book,Futura PT" font-size="96.0" fill="#52575F" transform="matrix(1.00, 0.00, -0.00, -1.00, 455.4, 3.2)"> </text><text xml:space="preserve" font-family="FuturaPT-Book,Futura PT" font-size="96.0" fill="#52575F" transform="matrix(1.00, 0.00, -0.00, -1.00, 476.8, 3.2)">G</text><text xml:space="preserve" font-family="FuturaPT-Book,Futura PT" font-size="96.0" fill="#52575F" transform="matrix(1.00, 0.00, -0.00, -1.00, 548.6, 3.2)">i</text><text xml:space="preserve" font-family="FuturaPT-Book,Futura PT" font-size="96.0" fill="#52575F" transform="matrix(1.00, 0.00, -0.00, -1.00, 567.6, 3.2)">t</text><text xml:space="preserve" font-family="FuturaPT-Book,Futura PT" font-size="96.0" fill="#52575F" transform="matrix(1.00, 0.00, -0.00, -1.00, 587.2, 3.2)">H</text><text xml:space="preserve" font-family="FuturaPT-Book,Futura PT" font-size="96.0" fill="#52575F" transform="matrix(1.00, 0.00, -0.00, -1.00, 649.8, 3.2)">u</text><text xml:space="preserve" font-family="FuturaPT-Book,Futura PT" font-size="96.0" fill="#52575F" transform="matrix(1.00, 0.00, -0.00, -1.00, 693.5, 3.2)">b</text></g></svg>